<?xml version="1.0" encoding="utf-8"?>
<!-- Generator: Adobe Illustrator 23.0.1, SVG Export Plug-In . SVG Version: 6.00 Build 0)  -->
<svg version="1.1" id="Слой_1" xmlns="http://www.w3.org/2000/svg" xmlns:xlink="http://www.w3.org/1999/xlink" x="0px" y="0px"
	 viewBox="0 0 105 35" style="enable-background:new 0 0 105 35;" xml:space="preserve">
<style type="text/css">
	.st0{fill:#EDF2FB;}
	.st1{fill:#CFDDE8;}
	.st2{fill:#43637C;}
</style>
<title>Ресурс 433</title>
<g>
	<g id="Layer_1">
		<path class="st0" d="M17.1,13.2c-0.2-0.2-0.4-0.4-0.7-0.5v-1.2H16v1.2c-0.3,0.1-0.5,0.3-0.7,0.5c-4.6,0.6-8,4.6-7.9,9.2
			c-0.1,5,3.9,9.1,8.9,9.3c5-0.1,9-4.2,8.9-9.2c0,0,0,0,0,0C25.2,17.7,21.8,13.7,17.1,13.2z"/>
		<path class="st1" d="M16.2,32.1C11,32,6.8,27.6,6.9,22.4c-0.1-4.8,3.4-8.9,8.1-9.7c0.1-0.2,0.3-0.3,0.5-0.4V11h1.4v1.3
			c0.2,0.1,0.3,0.2,0.5,0.4c4.8,0.7,8.3,4.8,8.2,9.7C25.7,27.6,21.5,32,16.2,32.1z M16.2,13.1h-0.1c-0.2,0-0.3,0.1-0.4,0.3l-0.1,0.2
			h-0.2c-4.4,0.6-7.6,4.3-7.5,8.7c-0.1,4.7,3.7,8.7,8.4,8.8c4.7-0.1,8.5-4,8.4-8.8c0.1-4.4-3.2-8.2-7.5-8.7h-0.2l-0.1-0.2
			c-0.1-0.1-0.2-0.2-0.4-0.3L16.2,13.1z"/>
		<path class="st0" d="M36.6,13.2c-0.2-0.3-0.4-0.4-0.7-0.5v-1.2h-0.5v1.2c-0.3,0.1-0.5,0.3-0.7,0.5c-4.6,0.6-8,4.6-7.9,9.2
			c-0.1,5,3.9,9.1,8.9,9.3c5-0.1,9-4.2,8.9-9.2c0,0,0,0,0,0C44.6,17.7,41.2,13.8,36.6,13.2z"/>
		<path class="st1" d="M35.7,32.1c-5.3-0.1-9.5-4.5-9.4-9.7c-0.1-4.8,3.4-8.9,8.1-9.6c0.1-0.2,0.3-0.3,0.5-0.4V11h1.5v1.3
			c0.2,0.1,0.3,0.2,0.5,0.4c4.8,0.7,8.3,4.8,8.2,9.7C45.1,27.6,40.9,32,35.7,32.1z M35.7,13.1h-0.1c-0.2,0-0.3,0.1-0.4,0.3L35,13.6
			h-0.2c-4.4,0.6-7.6,4.3-7.5,8.7c-0.1,4.7,3.7,8.7,8.4,8.8c4.7-0.1,8.5-4,8.4-8.8c0.1-4.4-3.2-8.2-7.5-8.7h-0.2l-0.1-0.2
			c-0.1-0.1-0.2-0.2-0.4-0.3L35.7,13.1z"/>
		<path class="st0" d="M56,13.2c-0.2-0.3-0.4-0.4-0.7-0.5v-1.2h-0.5v1.2c-0.3,0.1-0.5,0.3-0.7,0.5c-4.6,0.6-8,4.6-7.9,9.2
			c-0.2,4.9,3.7,9,8.6,9.2s9-3.7,9.2-8.6c0-0.2,0-0.4,0-0.6C64,17.7,60.6,13.8,56,13.2z"/>
		<path class="st1" d="M55.1,32.1c-5.3-0.1-9.4-4.5-9.3-9.7c-0.1-4.8,3.4-8.9,8.1-9.6c0.1-0.2,0.3-0.3,0.5-0.4V11h1.4v1.3
			c0.2,0.1,0.3,0.2,0.5,0.4c4.8,0.7,8.3,4.8,8.2,9.7C64.5,27.6,60.3,32,55.1,32.1z M55.1,13.1h-0.1c-0.2,0-0.3,0.1-0.4,0.3l-0.1,0.2
			h-0.2c-4.4,0.6-7.6,4.3-7.5,8.7c-0.2,4.6,3.4,8.6,8,8.8s8.6-3.4,8.8-8c0-0.3,0-0.5,0-0.8c0.1-4.4-3.2-8.2-7.5-8.7h-0.2l-0.1-0.2
			c-0.1-0.1-0.2-0.2-0.4-0.3L55.1,13.1z"/>
		<path class="st0" d="M75.4,13.2c-0.2-0.3-0.4-0.4-0.7-0.5v-1.2h-0.5v1.2c-0.3,0.1-0.5,0.3-0.7,0.5c-4.6,0.6-8,4.6-7.9,9.2
			c-0.2,4.9,3.5,9.1,8.4,9.3s9.1-3.5,9.3-8.4c0-0.3,0-0.6,0-0.8C83.4,17.7,80,13.8,75.4,13.2z"/>
		<path class="st1" d="M74.5,32.1c-5.3-0.1-9.4-4.5-9.3-9.7c-0.1-4.8,3.4-8.9,8.1-9.6c0.1-0.2,0.3-0.3,0.5-0.4V11h1.4v1.3
			c0.2,0.1,0.3,0.2,0.5,0.4c4.8,0.7,8.3,4.8,8.2,9.7C83.9,27.6,79.7,32,74.5,32.1z M74.5,13.1h-0.1c-0.2,0-0.3,0.2-0.4,0.3l-0.1,0.2
			h-0.2c-4.4,0.6-7.6,4.3-7.5,8.7c-0.2,4.6,3.4,8.6,8,8.8c4.6,0.2,8.6-3.4,8.8-8c0-0.3,0-0.5,0-0.8c0.1-4.4-3.2-8.2-7.5-8.7h-0.2
			L75,13.4c-0.1-0.1-0.2-0.2-0.4-0.3L74.5,13.1z"/>
		<rect x="16.2" y="11.2" class="st2" width="72.5" height="0.2"/>
		<path class="st2" d="M101,19.7H88.5V8.8h0.7V6.7h1.8L91.4,0h1.4l0.5,6.7h1.6v4.9h6.1L101,19.7z M89.5,18.7H100v-6.1h-6.1V7.7h-1.6
			l-0.2-3.5L92,7.7h-1.8v2.1h-0.7L89.5,18.7z"/>
		<path class="st2" d="M8.9,22.2c-0.7,0-1.3-0.6-1.4-1.3c0-0.7,0.6-1.3,1.3-1.4c0.7,0,1.3,0.6,1.4,1.3c0,0,0,0,0,0
			C10.2,21.6,9.7,22.2,8.9,22.2C8.9,22.2,8.9,22.2,8.9,22.2z M8.9,20.5c-0.2,0-0.4,0.2-0.4,0.3s0.2,0.4,0.3,0.4
			c0.2,0,0.4-0.2,0.4-0.3c0,0,0,0,0,0C9.3,20.7,9.1,20.5,8.9,20.5C8.9,20.5,8.9,20.5,8.9,20.5z"/>
		<path class="st2" d="M2.7,35c-1.3,0.1-2.4-0.9-2.5-2.2c0-0.1,0-0.1,0-0.2c0-1.2,0.9-2.1,1.7-3C2.8,29,3.3,28,3.5,27v-0.1
			c0-2.4-3.2-8.7-3.2-8.8L0,17.5h12.2l1.4,1.5h10.1l1.4,1.6h60.2l1.4-1.6H105v0.5c0,0.2-0.2,5.1-1.2,7.7c-0.7,1.6-1.9,3-3.4,4V35
			H2.7z M4.5,27c-0.2,1.3-0.9,2.5-1.9,3.3c-0.7,0.8-1.5,1.5-1.5,2.3c0,0.8,0.6,1.4,1.4,1.4c0,0,0.1,0,0.1,0h96.7v-3.4l0.2-0.1
			c1.4-0.9,2.5-2.2,3.2-3.7c0.7-2.2,1.1-4.5,1.1-6.8H87.2l-1.4,1.6h-61L23.3,20H13.2l-1.4-1.5H1.5C2.4,20.2,4.5,24.8,4.5,27L4.5,27z
			"/>
	</g>
</g>
</svg>
