<svg xmlns="http://www.w3.org/2000/svg" viewBox="0 0 105 35"><defs><style>.cls-1{fill:#eef3fc;}.cls-2{fill:#43637c;}</style></defs><title>Ресурс 423</title><g id="Слой_2" data-name="Слой 2"><g id="Layer_1" data-name="Layer 1"><rect class="cls-1" x="29.55" y="4.6" width="10.36" height="9.93"/><path class="cls-2" d="M40.4,15H29.05V4.1H40.4ZM30,14h9.37V5.1H30Z"/><rect class="cls-1" x="39.91" y="4.6" width="10.36" height="9.93"/><path class="cls-2" d="M50.77,15H39.41V4.1H50.77ZM40.4,14h9.38V5.1H40.4Z"/><rect class="cls-1" x="29.55" y="14.35" width="10.36" height="9.93"/><path class="cls-2" d="M40.4,24.78H29.05V13.85H40.4ZM30,23.78h9.37V14.85H30Z"/><rect class="cls-1" x="39.91" y="14.35" width="10.36" height="9.93"/><path class="cls-2" d="M50.77,24.78H39.41V13.85H50.77Zm-10.37-1h9.38V14.85H40.4Z"/><rect class="cls-1" x="29.55" y="24.28" width="10.36" height="9.93"/><path class="cls-2" d="M40.4,34.71H29.05V23.78H40.4ZM30,33.71h9.37V24.78H30Z"/><rect class="cls-1" x="39.91" y="24.28" width="10.36" height="9.93"/><path class="cls-2" d="M50.77,34.71H39.41V23.78H50.77Zm-10.37-1h9.38V24.78H40.4Z"/><rect class="cls-1" x="50.27" y="24.28" width="10.36" height="9.93"/><path class="cls-2" d="M61.13,34.71H49.78V23.78H61.13Zm-10.36-1h9.37V24.78H50.77Z"/><rect class="cls-1" x="60.63" y="24.28" width="10.36" height="9.93"/><path class="cls-2" d="M71.49,34.71H60.14V23.78H71.49Zm-10.36-1H70.5V24.78H61.13Z"/><rect class="cls-1" x="71" y="24.28" width="10.36" height="9.93"/><path class="cls-2" d="M81.86,34.71H70.5V23.78H81.86Zm-10.37-1h9.37V24.78H71.49Z"/><rect class="cls-1" x="50.27" y="14.35" width="10.36" height="9.93"/><path class="cls-2" d="M61.13,24.78H49.78V13.85H61.13Zm-10.36-1h9.37V14.85H50.77Z"/><rect class="cls-1" x="60.63" y="14.35" width="10.36" height="9.93"/><path class="cls-2" d="M71.49,24.78H60.14V13.85H71.49Zm-10.36-1H70.5V14.85H61.13Z"/><rect class="cls-1" x="57.57" y="14.27" width="9.78" height="20.02"/><path class="cls-2" d="M67.84,34.79H57.07v-21H67.84Zm-9.78-1h8.79v-19H58.06Z"/><line class="cls-1" x1="57.57" y1="18.44" x2="67.35" y2="18.44"/><rect class="cls-2" x="57.57" y="17.94" width="9.78" height="1"/><rect class="cls-1" x="39.68" y="17.97" width="21.91" height="8.18" rx="3.25"/><path class="cls-2" d="M58.37,26.65H42.9a3.74,3.74,0,0,1-3.71-3.75V21.22a3.73,3.73,0,0,1,3.71-3.75H58.37a3.73,3.73,0,0,1,3.71,3.75V22.9A3.74,3.74,0,0,1,58.37,26.65ZM42.9,18.47a2.74,2.74,0,0,0-2.72,2.75V22.9a2.74,2.74,0,0,0,2.72,2.75H58.37a2.74,2.74,0,0,0,2.72-2.75V21.22a2.74,2.74,0,0,0-2.72-2.75Z"/><rect class="cls-1" x="39.68" y="26.32" width="21.91" height="8.18" rx="3.25"/><path class="cls-2" d="M58.37,35H42.9a3.73,3.73,0,0,1-3.71-3.75V29.57a3.73,3.73,0,0,1,3.71-3.75H58.37a3.73,3.73,0,0,1,3.71,3.75v1.68A3.73,3.73,0,0,1,58.37,35ZM42.9,26.82a2.74,2.74,0,0,0-2.72,2.75v1.68A2.74,2.74,0,0,0,42.9,34H58.37a2.74,2.74,0,0,0,2.72-2.75V29.57a2.74,2.74,0,0,0-2.72-2.75Z"/><line class="cls-1" x1="46.84" y1="17.97" x2="46.84" y2="34.5"/><rect class="cls-2" x="46.35" y="17.97" width="0.99" height="16.53"/><line class="cls-1" x1="54.46" y1="17.88" x2="54.46" y2="34.41"/><rect class="cls-2" x="53.97" y="17.88" width="0.99" height="16.53"/><polygon class="cls-1" points="0.49 0.5 0.49 34.5 43.97 34.5 27.38 0.5 0.49 0.5"/><path class="cls-2" d="M44.76,35H0V0H27.69l.13.28ZM1,34H43.17L27.07,1H1Z"/><path class="cls-2" d="M105,35H0V0H105ZM1,34H104V1H1Z"/></g></g></svg>