<svg xmlns="http://www.w3.org/2000/svg" viewBox="0 0 105 35"><defs><style>.cls-1{fill:#eef3fc;}.cls-2{fill:#43637c;}.cls-3{fill:none;}</style></defs><title>icon-container-4</title><g id="Слой_2" data-name="Слой 2"><g id="Layer_1" data-name="Layer 1"><rect class="cls-1" x="0.5" y="0.5" width="54" height="34"/><path class="cls-2" d="M55,35H0V0H55ZM1,34H54V1H1Z"/><line class="cls-1" x1="8" y1="6.17" x2="8" y2="28.83"/><rect class="cls-2" x="7.5" y="6.17" width="1" height="22.67"/><line class="cls-1" x1="15.8" y1="6.17" x2="15.8" y2="28.83"/><rect class="cls-2" x="15.3" y="6.17" width="1" height="22.67"/><line class="cls-1" x1="23.6" y1="6.17" x2="23.6" y2="28.83"/><rect class="cls-2" x="23.1" y="6.17" width="1" height="22.67"/><line class="cls-1" x1="31.4" y1="6.17" x2="31.4" y2="28.83"/><rect class="cls-2" x="30.9" y="6.17" width="1" height="22.67"/><line class="cls-1" x1="39.2" y1="14.38" x2="39.2" y2="28.83"/><rect class="cls-2" x="38.7" y="14.37" width="1" height="14.46"/><line class="cls-1" x1="46.39" y1="17.76" x2="46.39" y2="28.83"/><rect class="cls-2" x="46" y="17.76" width="0.77" height="11.07"/><line class="cls-1" x1="47" y1="6.17" x2="47" y2="28.83"/><rect class="cls-3" width="105" height="35"/><path class="cls-2" d="M48,11V5.11a1.54,1.54,0,1,0-3.07,0V11a2.47,2.47,0,0,0-1,2,2.5,2.5,0,1,0,4-2Zm-1.54,3.76a1.8,1.8,0,0,1-1-3.29l.16-.11V5.11a.84.84,0,1,1,1.67,0v6.25l.16.11a1.8,1.8,0,0,1-1,3.29Z"/><path class="cls-2" d="M46.84,11.78V9.83a.35.35,0,1,0-.69,0v1.95a1.25,1.25,0,1,0,.69,0Zm-.35,1.74A.54.54,0,0,1,46,13a.55.55,0,0,1,.54-.55A.55.55,0,0,1,47,13,.55.55,0,0,1,46.49,13.52Z"/><path class="cls-2" d="M48.55,4.82h1.92v.7H48.55Z"/><path class="cls-2" d="M48.55,6.38h1.31v.7H48.55Z"/><path class="cls-2" d="M48.55,7.94h1.92v.7H48.55Z"/><path class="cls-2" d="M48.55,9.5h1.31v.7H48.55Z"/><path class="cls-2" d="M44.22,9.34l.35-.6-.63-.36.42-.17-.25-.65-.94.37-.61-.35s0-.09,0-.13,0-.09,0-.13L43.17,7l.94.36.25-.65-.42-.16.63-.36-.35-.61-.63.36.07-.44L43,5.36l-.15,1-.61.35A1.26,1.26,0,0,0,42,6.58v-.7l.79-.63-.43-.55L42,5V4.26h-.69V5l-.36-.28-.43.55.79.63v.7a1.71,1.71,0,0,0-.23.13l-.61-.35-.15-1-.69.11.07.44-.63-.36-.35.61.63.36-.42.16.25.65L40.1,7l.61.35s0,.08,0,.13,0,.08,0,.13l-.61.35-.94-.37-.25.65.42.17-.63.36.35.6L39.68,9l-.07.45.69.1.15-1,.61-.35a1,1,0,0,0,.23.13V9l-.79.63.43.54.36-.28v.72H42V9.91l.36.28.43-.54L42,9V8.31a.86.86,0,0,0,.23-.13l.61.35.15,1,.69-.1L43.59,9ZM41.87,7.45a.24.24,0,1,1-.23-.23A.23.23,0,0,1,41.87,7.45Z"/></g></g></svg>