<svg xmlns="http://www.w3.org/2000/svg" viewBox="0 0 105 35"><defs><style>.cls-1{fill:#eef3fc;}.cls-2{fill:#43637c;}</style></defs><title>icon-container-5</title><g id="Слой_2" data-name="Слой 2"><g id="Layer_1" data-name="Layer 1"><rect class="cls-1" x="0.49" y="0.5" width="104.01" height="34"/><path class="cls-2" d="M105,35H0V0H105ZM1,34H104V1H1Z"/><line class="cls-1" x1="9.61" y1="6.17" x2="9.61" y2="28.83"/><rect class="cls-2" x="9.12" y="6.17" width="0.99" height="22.67"/><line class="cls-1" x1="17.36" y1="6.17" x2="17.36" y2="28.83"/><rect class="cls-2" x="16.86" y="6.17" width="0.99" height="22.67"/><line class="cls-1" x1="25.1" y1="6.17" x2="25.1" y2="28.83"/><rect class="cls-2" x="24.61" y="6.17" width="0.99" height="22.67"/><line class="cls-1" x1="32.85" y1="6.17" x2="32.85" y2="28.83"/><rect class="cls-2" x="32.35" y="6.17" width="0.99" height="22.67"/><line class="cls-1" x1="40.59" y1="6.17" x2="40.59" y2="28.83"/><rect class="cls-2" x="40.1" y="6.17" width="0.99" height="22.67"/><line class="cls-1" x1="48.34" y1="6.17" x2="48.34" y2="28.83"/><rect class="cls-2" x="47.84" y="6.17" width="0.99" height="22.67"/><line class="cls-1" x1="56.08" y1="6.17" x2="56.08" y2="28.83"/><rect class="cls-2" x="55.59" y="6.17" width="0.99" height="22.67"/><line class="cls-1" x1="63.83" y1="6.17" x2="63.83" y2="28.83"/><rect class="cls-2" x="63.33" y="6.17" width="0.99" height="22.67"/><line class="cls-1" x1="71.57" y1="6.17" x2="71.57" y2="28.83"/><rect class="cls-2" x="71.07" y="6.17" width="0.99" height="22.67"/><line class="cls-1" x1="79.31" y1="6.17" x2="79.31" y2="28.83"/><rect class="cls-2" x="78.82" y="6.17" width="0.99" height="22.67"/><line class="cls-1" x1="87.06" y1="12.4" x2="87.06" y2="28.83"/><rect class="cls-2" x="86.56" y="12.4" width="0.99" height="16.44"/><line class="cls-1" x1="93.92" y1="16.92" x2="93.92" y2="28.83"/><rect class="cls-2" x="93.56" y="16.92" width="0.72" height="11.92"/><line class="cls-1" x1="94.8" y1="6.17" x2="94.8" y2="28.83"/><path class="cls-2" d="M98.26,11.1V5.25a1.53,1.53,0,1,0-3.05,0V11.1a2.49,2.49,0,1,0,3.05,0Zm-1.52,3.74a1.78,1.78,0,0,1-1-3.27l.16-.1V5.25a.83.83,0,0,1,1.66,0v6.22l.15.1a1.78,1.78,0,0,1-1,3.27Z"/><path class="cls-2" d="M97.08,11.88V9.94a.34.34,0,0,0-.34-.34.35.35,0,0,0-.35.34v1.94a1.24,1.24,0,1,0,.69,0Zm-.34,1.73a.54.54,0,1,1,.54-.54A.54.54,0,0,1,96.74,13.61Z"/><path class="cls-2" d="M98.78,5h1.91v.7H98.78Z"/><path class="cls-2" d="M98.78,6.51h1.3v.7h-1.3Z"/><path class="cls-2" d="M98.78,8.07h1.91v.69H98.78Z"/><path class="cls-2" d="M98.78,9.62h1.3v.69h-1.3Z"/><path class="cls-2" d="M94.48,9.46l.34-.6L94.2,8.5l.42-.17-.25-.64-.94.36-.61-.35a.53.53,0,0,0,0-.13.49.49,0,0,0,0-.12l.61-.35.94.36.25-.65-.42-.16.62-.36-.34-.6-.63.36.07-.44-.69-.11-.15,1-.6.35a1,1,0,0,0-.23-.12V6L93,5.39l-.44-.54-.35.27V4.41h-.69v.71l-.35-.27-.43.54.78.62v.71a.94.94,0,0,0-.22.12l-.61-.35-.15-1-.69.11.07.44-.62-.36-.35.6.62.36-.41.16.25.65.93-.36.61.35a.49.49,0,0,0,0,.12.53.53,0,0,0,0,.13l-.61.35-.93-.36-.25.64.41.17L89,8.86l.35.6L90,9.1l-.07.44.69.11.15-1,.61-.35a.71.71,0,0,0,.22.13v.7l-.78.63.43.54.35-.28v.72h.69V10l.35.28L93,9.76l-.79-.63v-.7a.76.76,0,0,0,.23-.13l.6.35.15,1,.69-.11-.07-.44ZM92.14,7.57a.23.23,0,0,1-.23.23.23.23,0,0,1-.23-.23.23.23,0,0,1,.23-.23A.24.24,0,0,1,92.14,7.57Z"/></g></g></svg>