<svg xmlns="http://www.w3.org/2000/svg" viewBox="0 0 105 35"><defs><style>.cls-1{fill:#43637c;}</style></defs><title>icon-ship-73</title><g id="Слой_2" data-name="Слой 2"><g id="Layer_1" data-name="Layer 1"><path class="cls-1" d="M101,19.67H88.54V8.84h.74V6.74h1.78L91.41,0h1.38l.46,6.74h1.63v4.91l6.07,0Zm-11.47-1H100V12.6l-6.06,0V7.71H92.37l-.23-3.47L92,7.71H90.22v2.1h-.74Z"/><path class="cls-1" d="M2.71,35a2.35,2.35,0,0,1-2.5-2.4c0-1.21.88-2.12,1.72-3A4.38,4.38,0,0,0,3.54,27v-.08c0-2.44-3.15-8.7-3.18-8.76L0,17.45H12.23L13.64,19H23.73l1.42,1.6H85.32L86.73,19H105v.5c0,.2-.15,5.07-1.23,7.72a9.89,9.89,0,0,1-3.38,4V35H2.71Zm1.77-8A5.22,5.22,0,0,1,2.6,30.29c-.74.77-1.45,1.5-1.45,2.31A1.42,1.42,0,0,0,2.71,34H99.44V30.63l.22-.14a9.4,9.4,0,0,0,3.23-3.67A25.26,25.26,0,0,0,104,20H87.15l-1.42,1.6h-61L23.32,20H13.23l-1.4-1.53H1.55c.85,1.77,2.94,6.32,2.94,8.51Z"/><path class="cls-1" d="M8.94,22.23a1.33,1.33,0,1,1,1.29-1.33A1.31,1.31,0,0,1,8.94,22.23Zm0-1.69a.36.36,0,1,0,.35.36A.35.35,0,0,0,8.94,20.54Z"/></g></g></svg>