<svg xmlns="http://www.w3.org/2000/svg" viewBox="0 0 105 35"><defs><style>.cls-1{opacity:0.3;}.cls-2{fill:#eef3fc;}.cls-3{fill:#43637c;}.cls-4{fill:#d0dee9;}</style></defs><title>MULTIPURPUSE</title><g id="Слой_2" data-name="Слой 2"><g id="Layer_1" data-name="Layer 1"><g class="cls-1"><rect class="cls-2" x="14.12" y="20.06" width="73.75" height="12.99"/></g><path class="cls-3" d="M2.51,35A2.35,2.35,0,0,1,0,32.6a8.3,8.3,0,0,1,.26-1.53,21.1,21.1,0,0,0,.6-4.45A61.6,61.6,0,0,0,.11,18L0,17.46h12L13.46,19H105v.5c0,.21-.15,5.07-1.23,7.72a10,10,0,0,1-3.39,4V35H2.51ZM1.12,18.44a57.62,57.62,0,0,1,.68,8.19,21.84,21.84,0,0,1-.62,4.65A8.2,8.2,0,0,0,.94,32.6,1.42,1.42,0,0,0,2.51,34H99.43V30.63l.22-.14a9.41,9.41,0,0,0,3.24-3.66A25.26,25.26,0,0,0,104,20h-91l-1.41-1.52Z"/><path class="cls-3" d="M8.75,22.25A1.34,1.34,0,1,1,10,20.91,1.31,1.31,0,0,1,8.75,22.25Zm0-1.7a.36.36,0,0,0,0,.72.36.36,0,0,0,0-.72Z"/><path class="cls-3" d="M102.5,19.65H90.07V8.83h.74V6.74H92.6L93,0h1.38l.46,6.74h1.63v4.9l6.08,0ZM91,18.68h10.55V12.59l-6.08,0V7.71H93.91l-.24-3.49-.18,3.49H91.76V9.8H91Z"/><path class="cls-4" d="M15.43,21.39a.06.06,0,0,0,0,.07c.14,0,.5.05.5.28,0,.48-.63.38-1,.72s-.14,2.17-.14,2.17a1.22,1.22,0,0,1-.27.87l-.29.29a.08.08,0,0,0,.06.14L16,25.8a3.68,3.68,0,0,1,.47,0l1.66.13a.08.08,0,0,0,.06-.14l-.35-.39a1.19,1.19,0,0,1-.19-.71c0-.65.11-1.94-.17-2.23s-1-.43-1-.57c0-.32.62-.41.73-.36a0,0,0,0,0,0-.07,1,1,0,0,0-.92-.58C15.62,20.88,15.46,21.24,15.43,21.39Z"/><path class="cls-4" d="M85.94,21.39a.08.08,0,0,1,0,.07c-.14,0-.5.05-.5.28,0,.48.64.38,1,.72s.14,2.17.14,2.17a1.22,1.22,0,0,0,.28.87l.28.29a.08.08,0,0,1-.06.14l-1.65-.13a3.68,3.68,0,0,0-.47,0l-1.67.13a.09.09,0,0,1-.06-.14l.35-.39a1.12,1.12,0,0,0,.19-.71c0-.65-.11-1.94.17-2.23s1-.43,1-.57c0-.32-.62-.41-.72-.36a.05.05,0,0,1-.06-.07,1,1,0,0,1,.92-.58C85.74,20.88,85.9,21.24,85.94,21.39Z"/><path class="cls-4" d="M23.53,21.39a.06.06,0,0,0,0,.07c.14,0,.5.05.5.28,0,.48-.63.38-1,.72S23,24.63,23,24.63a1.22,1.22,0,0,1-.27.87l-.29.29a.08.08,0,0,0,.06.14l1.66-.13a3.68,3.68,0,0,1,.47,0l1.66.13a.08.08,0,0,0,.06-.14L26,25.4a1.19,1.19,0,0,1-.19-.71c0-.65.11-1.94-.17-2.23s-1-.43-1-.57c0-.32.62-.41.73-.36a0,0,0,0,0,.05-.07,1,1,0,0,0-.92-.58C23.72,20.88,23.56,21.24,23.53,21.39Z"/><path class="cls-4" d="M77.84,21.39a.08.08,0,0,1,0,.07c-.14,0-.5.05-.5.28,0,.48.64.38,1,.72s.14,2.17.14,2.17a1.22,1.22,0,0,0,.28.87l.28.29a.08.08,0,0,1-.06.14l-1.65-.13a3.68,3.68,0,0,0-.47,0l-1.67.13a.09.09,0,0,1-.06-.14l.35-.39a1.12,1.12,0,0,0,.19-.71c0-.65-.11-1.94.17-2.23s1-.43,1-.57c0-.32-.62-.41-.72-.36a.05.05,0,0,1-.06-.07,1,1,0,0,1,.92-.58C77.64,20.88,77.8,21.24,77.84,21.39Z"/><path class="cls-4" d="M31.63,21.39a.06.06,0,0,0,0,.07c.15,0,.5.05.5.28,0,.48-.63.38-1,.72s-.14,2.17-.14,2.17a1.22,1.22,0,0,1-.27.87l-.29.29a.08.08,0,0,0,.06.14l1.66-.13a3.68,3.68,0,0,1,.47,0l1.66.13a.08.08,0,0,0,.06-.14l-.35-.39a1.19,1.19,0,0,1-.19-.71c0-.65.11-1.94-.17-2.23s-1-.43-1-.57c0-.32.62-.41.73-.36a0,0,0,0,0,0-.07,1,1,0,0,0-.92-.58C31.82,20.88,31.66,21.24,31.63,21.39Z"/><path class="cls-4" d="M69.73,21.39a.06.06,0,0,1,0,.07c-.14,0-.5.05-.5.28,0,.48.64.38,1,.72s.14,2.17.14,2.17a1.18,1.18,0,0,0,.28.87l.28.29a.08.08,0,0,1-.06.14l-1.65-.13a3.68,3.68,0,0,0-.47,0L67,25.93a.09.09,0,0,1-.06-.14l.35-.39a1.12,1.12,0,0,0,.19-.71c0-.65-.11-1.94.17-2.23s1-.43,1-.57c0-.32-.62-.41-.72-.36a.05.05,0,0,1-.06-.07,1,1,0,0,1,.92-.58C69.54,20.88,69.7,21.24,69.73,21.39Z"/><path class="cls-4" d="M39.73,21.39a.06.06,0,0,0,0,.07c.15,0,.51.05.51.28,0,.48-.64.38-1,.72s-.14,2.17-.14,2.17a1.22,1.22,0,0,1-.27.87l-.29.29a.08.08,0,0,0,.06.14l1.66-.13a3.68,3.68,0,0,1,.47,0l1.66.13a.08.08,0,0,0,.06-.14l-.35-.39a1.19,1.19,0,0,1-.19-.71c0-.65.11-1.94-.17-2.23s-1-.43-1-.57c0-.32.62-.41.73-.36a0,0,0,0,0,0-.07,1,1,0,0,0-.92-.58C39.92,20.88,39.76,21.24,39.73,21.39Z"/><path class="cls-4" d="M61.63,21.39a.06.06,0,0,1,0,.07c-.14,0-.5.05-.5.28,0,.48.64.38,1,.72s.14,2.17.14,2.17a1.18,1.18,0,0,0,.28.87l.28.29a.08.08,0,0,1-.06.14l-1.65-.13a3.68,3.68,0,0,0-.47,0l-1.67.13a.09.09,0,0,1-.06-.14l.35-.39a1.12,1.12,0,0,0,.19-.71c0-.65-.11-1.94.17-2.23s1-.43,1-.57c0-.32-.62-.41-.72-.36a.05.05,0,0,1-.06-.07,1,1,0,0,1,.92-.58C61.44,20.88,61.6,21.24,61.63,21.39Z"/><path class="cls-4" d="M47.83,21.39s0,.06.05.07.5.05.5.28c0,.48-.64.38-1,.72s-.14,2.17-.14,2.17a1.22,1.22,0,0,1-.27.87l-.29.29a.09.09,0,0,0,.06.14l1.66-.13a3.68,3.68,0,0,1,.47,0l1.66.13a.08.08,0,0,0,.06-.14l-.35-.39a1.26,1.26,0,0,1-.19-.71c0-.65.11-1.94-.17-2.23s-1-.43-1-.57c0-.32.62-.41.73-.36a0,0,0,0,0,.05-.07,1,1,0,0,0-.92-.58C48,20.88,47.86,21.24,47.83,21.39Z"/><path class="cls-4" d="M53.53,21.39a.06.06,0,0,1,0,.07c-.14,0-.5.05-.5.28,0,.48.64.38,1,.72s.14,2.17.14,2.17a1.18,1.18,0,0,0,.28.87l.28.29a.08.08,0,0,1-.06.14l-1.66-.13a3.68,3.68,0,0,0-.47,0l-1.66.13a.09.09,0,0,1-.06-.14l.35-.39a1.19,1.19,0,0,0,.19-.71c0-.65-.11-1.94.17-2.23s1-.43,1-.57c0-.32-.62-.41-.72-.36a.05.05,0,0,1-.06-.07,1,1,0,0,1,.92-.58C53.34,20.88,53.5,21.24,53.53,21.39Z"/><path class="cls-4" d="M55.93,21.39s0,.06,0,.07.5.05.5.28c0,.48-.64.38-1,.72s-.14,2.17-.14,2.17a1.22,1.22,0,0,1-.27.87l-.28.29a.08.08,0,0,0,0,.14l1.66-.13a3.68,3.68,0,0,1,.47,0l1.66.13a.08.08,0,0,0,.06-.14l-.35-.39a1.26,1.26,0,0,1-.19-.71c0-.65.11-1.94-.17-2.23s-1-.43-1-.57c0-.32.62-.41.73-.36a0,0,0,0,0,.05-.07,1,1,0,0,0-.92-.58C56.12,20.88,56,21.24,55.93,21.39Z"/><path class="cls-4" d="M45.43,21.39a.06.06,0,0,1,0,.07c-.14,0-.5.05-.5.28,0,.48.63.38,1,.72s.14,2.17.14,2.17a1.18,1.18,0,0,0,.28.87l.28.29a.08.08,0,0,1-.06.14l-1.66-.13a3.68,3.68,0,0,0-.47,0l-1.66.13a.09.09,0,0,1-.06-.14L43,25.4a1.19,1.19,0,0,0,.19-.71c0-.65-.11-1.94.17-2.23s1-.43,1-.57c0-.32-.62-.41-.72-.36a.05.05,0,0,1-.06-.07,1,1,0,0,1,.92-.58C45.24,20.88,45.4,21.24,45.43,21.39Z"/><path class="cls-4" d="M64,21.39s0,.06,0,.07.5.05.5.28c0,.48-.64.38-1,.72s-.13,2.17-.13,2.17a1.22,1.22,0,0,1-.28.87l-.28.29a.08.08,0,0,0,.05.14l1.66-.13a3.69,3.69,0,0,1,.47,0l1.66.13a.08.08,0,0,0,.06-.14l-.35-.39a1.26,1.26,0,0,1-.19-.71c0-.65.11-1.94-.17-2.23s-1-.43-1-.57c0-.32.62-.41.73-.36a0,0,0,0,0,0-.07,1,1,0,0,0-.92-.58C64.22,20.88,64.06,21.24,64,21.39Z"/><path class="cls-4" d="M37.33,21.39a.06.06,0,0,1,0,.07c-.14,0-.5.05-.5.28,0,.48.63.38,1,.72s.14,2.17.14,2.17a1.18,1.18,0,0,0,.28.87l.28.29a.08.08,0,0,1-.06.14l-1.66-.13a3.68,3.68,0,0,0-.47,0l-1.66.13a.08.08,0,0,1-.06-.14l.35-.39a1.19,1.19,0,0,0,.19-.71c0-.65-.11-1.94.17-2.23s1-.43,1-.57c0-.32-.62-.41-.73-.36a0,0,0,0,1,0-.07,1,1,0,0,1,.92-.58C37.14,20.88,37.3,21.24,37.33,21.39Z"/><path class="cls-4" d="M72.13,21.39s0,.06.05.07.5.05.5.28c0,.48-.64.38-1,.72s-.13,2.17-.13,2.17a1.22,1.22,0,0,1-.28.87l-.28.29a.08.08,0,0,0,0,.14l1.66-.13a3.69,3.69,0,0,1,.47,0l1.66.13a.08.08,0,0,0,.06-.14l-.35-.39a1.26,1.26,0,0,1-.19-.71c0-.65.11-1.94-.17-2.23s-1-.43-1-.57c0-.32.62-.41.73-.36a0,0,0,0,0,.05-.07,1,1,0,0,0-.92-.58C72.32,20.88,72.16,21.24,72.13,21.39Z"/><path class="cls-4" d="M29.23,21.39a.06.06,0,0,1,0,.07c-.14,0-.5.05-.5.28,0,.48.63.38,1,.72s.14,2.17.14,2.17a1.18,1.18,0,0,0,.28.87l.28.29a.08.08,0,0,1-.06.14l-1.66-.13a3.68,3.68,0,0,0-.47,0l-1.66.13a.08.08,0,0,1-.06-.14l.35-.39a1.19,1.19,0,0,0,.19-.71c0-.65-.11-1.94.17-2.23s1-.43,1-.57c0-.32-.62-.41-.73-.36a0,0,0,0,1,0-.07,1,1,0,0,1,.92-.58C29,20.88,29.2,21.24,29.23,21.39Z"/><path class="cls-4" d="M80.23,21.39s0,.06,0,.07.5.05.5.28c0,.48-.64.38-1,.72s-.13,2.17-.13,2.17a1.22,1.22,0,0,1-.28.87l-.28.29a.08.08,0,0,0,0,.14l1.66-.13a3.69,3.69,0,0,1,.47,0l1.66.13a.08.08,0,0,0,.06-.14l-.35-.39a1.26,1.26,0,0,1-.19-.71c0-.65.11-1.94-.17-2.23s-1-.43-1-.57c0-.32.62-.41.73-.36a0,0,0,0,0,0-.07,1,1,0,0,0-.92-.58C80.42,20.88,80.26,21.24,80.23,21.39Z"/><path class="cls-4" d="M21.13,21.39a.06.06,0,0,1,0,.07c-.14,0-.5.05-.5.28,0,.48.63.38,1,.72s.14,2.17.14,2.17a1.22,1.22,0,0,0,.27.87l.29.29a.08.08,0,0,1-.06.14l-1.66-.13a3.68,3.68,0,0,0-.47,0l-1.66.13a.08.08,0,0,1-.06-.14l.35-.39a1.19,1.19,0,0,0,.19-.71c0-.65-.11-1.94.17-2.23s1-.43,1-.57c0-.32-.62-.41-.73-.36a0,0,0,0,1-.05-.07,1,1,0,0,1,.92-.58C20.94,20.88,21.1,21.24,21.13,21.39Z"/><path class="cls-4" d="M19.48,27.28s0,.07,0,.07.5,0,.5.29c0,.48-.63.37-1,.72s-.14,2.16-.14,2.16a1.2,1.2,0,0,1-.27.87l-.29.29a.08.08,0,0,0,.06.14l1.66-.12h.47l1.66.12a.08.08,0,0,0,.06-.14l-.35-.38a1.2,1.2,0,0,1-.19-.72c0-.64.11-1.93-.17-2.22s-1-.43-1-.58c0-.32.62-.4.73-.36s.07,0,.05-.06a1,1,0,0,0-.92-.59C19.67,26.77,19.51,27.13,19.48,27.28Z"/><path class="cls-4" d="M81.89,27.28s0,.07,0,.07-.5,0-.5.29c0,.48.64.37,1,.72s.14,2.16.14,2.16a1.2,1.2,0,0,0,.28.87l.28.29a.08.08,0,0,1-.06.14L81.3,31.7h-.47l-1.67.12a.09.09,0,0,1-.06-.14l.35-.38a1.14,1.14,0,0,0,.19-.72c0-.64-.11-1.93.17-2.22s1-.43,1-.58c0-.32-.62-.4-.72-.36a0,0,0,0,1-.06-.06,1.05,1.05,0,0,1,.92-.59C81.69,26.77,81.85,27.13,81.89,27.28Z"/><path class="cls-4" d="M27.58,27.28s0,.07,0,.07.5,0,.5.29c0,.48-.63.37-1,.72S27,30.52,27,30.52a1.2,1.2,0,0,1-.27.87l-.29.29a.08.08,0,0,0,.06.14l1.66-.12h.47l1.66.12a.08.08,0,0,0,.06-.14L30,31.3a1.2,1.2,0,0,1-.19-.72c0-.64.11-1.93-.17-2.22s-1-.43-1-.58c0-.32.62-.4.73-.36s.07,0,.05-.06a1,1,0,0,0-.92-.59C27.77,26.77,27.61,27.13,27.58,27.28Z"/><path class="cls-4" d="M73.79,27.28s0,.07-.05.07-.5,0-.5.29c0,.48.64.37,1,.72s.14,2.16.14,2.16a1.2,1.2,0,0,0,.28.87l.28.29a.08.08,0,0,1-.06.14L73.2,31.7h-.47l-1.67.12a.09.09,0,0,1-.06-.14l.35-.38a1.14,1.14,0,0,0,.19-.72c0-.64-.11-1.93.17-2.22s1-.43,1-.58c0-.32-.62-.4-.72-.36a0,0,0,0,1-.06-.06,1.05,1.05,0,0,1,.92-.59C73.59,26.77,73.75,27.13,73.79,27.28Z"/><path class="cls-4" d="M35.68,27.28s0,.07,0,.07.5,0,.5.29c0,.48-.63.37-1,.72s-.14,2.16-.14,2.16a1.2,1.2,0,0,1-.27.87l-.29.29a.08.08,0,0,0,.06.14l1.66-.12h.47l1.66.12a.08.08,0,0,0,.06-.14l-.35-.38a1.2,1.2,0,0,1-.19-.72c0-.64.11-1.93-.17-2.22s-1-.43-1-.58c0-.32.62-.4.73-.36s.07,0,.05-.06a1,1,0,0,0-.92-.59C35.87,26.77,35.71,27.13,35.68,27.28Z"/><path class="cls-4" d="M65.68,27.28s0,.07,0,.07-.5,0-.5.29c0,.48.64.37,1,.72s.14,2.16.14,2.16a1.16,1.16,0,0,0,.28.87l.28.29a.08.08,0,0,1-.06.14L65.1,31.7h-.47L63,31.82a.09.09,0,0,1-.06-.14l.35-.38a1.14,1.14,0,0,0,.19-.72c0-.64-.11-1.93.17-2.22s1-.43,1-.58c0-.32-.62-.4-.72-.36a0,0,0,0,1-.06-.06,1.05,1.05,0,0,1,.92-.59C65.49,26.77,65.65,27.13,65.68,27.28Z"/><path class="cls-4" d="M43.78,27.28a.05.05,0,0,0,0,.07c.14,0,.5,0,.5.29,0,.48-.64.37-1,.72s-.14,2.16-.14,2.16a1.2,1.2,0,0,1-.27.87l-.29.29a.08.08,0,0,0,.06.14l1.66-.12h.47l1.66.12a.08.08,0,0,0,.06-.14l-.35-.38a1.28,1.28,0,0,1-.19-.72c0-.64.11-1.93-.17-2.22s-1-.43-1-.58c0-.32.62-.4.73-.36s.07,0,0-.06a1,1,0,0,0-.92-.59C44,26.77,43.81,27.13,43.78,27.28Z"/><path class="cls-4" d="M57.58,27.28s0,.07,0,.07-.5,0-.5.29c0,.48.64.37,1,.72s.14,2.16.14,2.16a1.16,1.16,0,0,0,.28.87l.28.29a.08.08,0,0,1-.06.14L57,31.7h-.46l-1.67.12a.09.09,0,0,1-.06-.14l.35-.38a1.14,1.14,0,0,0,.19-.72c0-.64-.11-1.93.17-2.22s1-.43,1-.58c0-.32-.62-.4-.72-.36a0,0,0,0,1-.06-.06,1.05,1.05,0,0,1,.92-.59C57.39,26.77,57.55,27.13,57.58,27.28Z"/><path class="cls-4" d="M51.88,27.28a.05.05,0,0,0,0,.07c.14,0,.5,0,.5.29,0,.48-.64.37-1,.72s-.14,2.16-.14,2.16a1.2,1.2,0,0,1-.27.87l-.29.29a.09.09,0,0,0,.06.14l1.66-.12h.47l1.66.12a.08.08,0,0,0,.06-.14l-.35-.38a1.28,1.28,0,0,1-.19-.72c0-.64.11-1.93-.17-2.22s-1-.43-1-.58c0-.32.62-.4.73-.36s.07,0,0-.06a1,1,0,0,0-.92-.59C52.07,26.77,51.91,27.13,51.88,27.28Z"/><path class="cls-4" d="M49.48,27.28s0,.07,0,.07-.5,0-.5.29c0,.48.64.37,1,.72s.14,2.16.14,2.16a1.16,1.16,0,0,0,.28.87l.28.29a.08.08,0,0,1-.06.14l-1.66-.12h-.47l-1.66.12a.09.09,0,0,1-.06-.14l.35-.38a1.2,1.2,0,0,0,.19-.72c0-.64-.11-1.93.17-2.22s1-.43,1-.58c0-.32-.62-.4-.72-.36a0,0,0,0,1-.06-.06,1.05,1.05,0,0,1,.92-.59C49.29,26.77,49.45,27.13,49.48,27.28Z"/><path class="cls-4" d="M60,27.28a.05.05,0,0,0,.05.07c.14,0,.5,0,.5.29,0,.48-.64.37-1,.72s-.14,2.16-.14,2.16a1.2,1.2,0,0,1-.27.87l-.28.29c0,.06,0,.14,0,.14l1.66-.12H61l1.66.12a.08.08,0,0,0,.06-.14l-.35-.38a1.28,1.28,0,0,1-.19-.72c0-.64.11-1.93-.17-2.22s-1-.43-1-.58c0-.32.62-.4.73-.36s.07,0,0-.06a1,1,0,0,0-.92-.59C60.17,26.77,60,27.13,60,27.28Z"/><path class="cls-4" d="M41.38,27.28s0,.07,0,.07-.5,0-.5.29c0,.48.63.37,1,.72s.14,2.16.14,2.16a1.16,1.16,0,0,0,.28.87l.28.29a.08.08,0,0,1-.06.14l-1.66-.12h-.47l-1.66.12a.09.09,0,0,1-.06-.14L39,31.3a1.2,1.2,0,0,0,.19-.72c0-.64-.11-1.93.17-2.22s1-.43,1-.58c0-.32-.62-.4-.72-.36a0,0,0,0,1-.06-.06,1,1,0,0,1,.92-.59C41.19,26.77,41.35,27.13,41.38,27.28Z"/><path class="cls-4" d="M68.08,27.28a.05.05,0,0,0,0,.07c.14,0,.5,0,.5.29,0,.48-.64.37-1,.72s-.13,2.16-.13,2.16a1.2,1.2,0,0,1-.28.87l-.28.29c0,.06,0,.14.05.14l1.66-.12h.47l1.66.12a.08.08,0,0,0,.06-.14l-.35-.38a1.28,1.28,0,0,1-.19-.72c0-.64.11-1.93-.17-2.22s-1-.43-1-.58c0-.32.62-.4.73-.36s.07,0,0-.06a1,1,0,0,0-.92-.59C68.27,26.77,68.11,27.13,68.08,27.28Z"/><path class="cls-4" d="M33.28,27.28s0,.07,0,.07-.5,0-.5.29c0,.48.63.37,1,.72s.14,2.16.14,2.16a1.16,1.16,0,0,0,.28.87l.28.29a.08.08,0,0,1-.06.14l-1.66-.12h-.47l-1.66.12a.08.08,0,0,1-.06-.14l.35-.38a1.2,1.2,0,0,0,.19-.72c0-.64-.11-1.93.17-2.22s1-.43,1-.58c0-.32-.62-.4-.73-.36s-.07,0-.05-.06a1,1,0,0,1,.92-.59C33.09,26.77,33.25,27.13,33.28,27.28Z"/><path class="cls-4" d="M76.18,27.28a.05.05,0,0,0,0,.07c.14,0,.5,0,.5.29,0,.48-.64.37-1,.72s-.13,2.16-.13,2.16a1.2,1.2,0,0,1-.28.87l-.28.29c0,.06,0,.14,0,.14l1.66-.12h.47l1.66.12a.08.08,0,0,0,.06-.14l-.35-.38a1.28,1.28,0,0,1-.19-.72c0-.64.11-1.93-.17-2.22s-1-.43-1-.58c0-.32.62-.4.73-.36s.07,0,0-.06a1,1,0,0,0-.92-.59C76.37,26.77,76.21,27.13,76.18,27.28Z"/><path class="cls-4" d="M25.18,27.28s0,.07,0,.07-.5,0-.5.29c0,.48.63.37,1,.72s.14,2.16.14,2.16a1.16,1.16,0,0,0,.28.87l.28.29a.08.08,0,0,1-.06.14l-1.66-.12h-.47l-1.66.12a.08.08,0,0,1-.06-.14l.35-.38a1.2,1.2,0,0,0,.19-.72c0-.64-.11-1.93.17-2.22s1-.43,1-.58c0-.32-.62-.4-.73-.36s-.07,0-.05-.06a1,1,0,0,1,.92-.59C25,26.77,25.15,27.13,25.18,27.28Z"/><path class="cls-4" d="M84.28,27.28a.05.05,0,0,0,0,.07c.14,0,.5,0,.5.29,0,.48-.64.37-1,.72s-.13,2.16-.13,2.16a1.2,1.2,0,0,1-.28.87l-.28.29c0,.06,0,.14,0,.14l1.66-.12h.47l1.66.12a.08.08,0,0,0,.06-.14l-.35-.38a1.28,1.28,0,0,1-.19-.72c0-.64.11-1.93-.17-2.22s-1-.43-1-.58c0-.32.62-.4.73-.36s.07,0,0-.06a1,1,0,0,0-.92-.59C84.47,26.77,84.31,27.13,84.28,27.28Z"/><path class="cls-4" d="M17.08,27.28s0,.07,0,.07-.5,0-.5.29c0,.48.63.37,1,.72s.14,2.16.14,2.16a1.2,1.2,0,0,0,.27.87l.29.29a.08.08,0,0,1-.06.14l-1.66-.12H16l-1.66.12a.08.08,0,0,1-.06-.14l.35-.38a1.2,1.2,0,0,0,.19-.72c0-.64-.11-1.93.17-2.22s1-.43,1-.58c0-.32-.62-.4-.73-.36s-.07,0-.05-.06a1,1,0,0,1,.92-.59C16.89,26.77,17.05,27.13,17.08,27.28Z"/></g></g></svg>