<svg xmlns="http://www.w3.org/2000/svg" viewBox="0 0 105 35"><defs><style>.cls-1{fill:#43637c;}.cls-2{fill:#398aff;}</style></defs><title>Ресурс 427</title><g id="Слой_2" data-name="Слой 2"><g id="Layer_1" data-name="Layer 1"><rect class="cls-1" x="9.12" y="8.15" width="0.99" height="22.67"/><rect class="cls-1" x="16.86" y="8.15" width="0.99" height="22.67"/><rect class="cls-1" x="24.61" y="8.15" width="0.99" height="22.67"/><rect class="cls-1" x="32.35" y="8.15" width="0.99" height="22.67"/><rect class="cls-1" x="40.1" y="8.15" width="0.99" height="22.67"/><rect class="cls-1" x="47.84" y="8.15" width="0.99" height="22.67"/><rect class="cls-1" x="55.59" y="8.15" width="0.99" height="22.67"/><rect class="cls-1" x="63.33" y="8.15" width="0.99" height="22.67"/><rect class="cls-1" x="71.07" y="8.15" width="0.99" height="22.67"/><rect class="cls-1" x="78.82" y="8.15" width="0.99" height="22.67"/><rect class="cls-1" x="86.56" y="8.15" width="0.99" height="22.67"/><rect class="cls-1" x="94.31" y="8.15" width="0.99" height="22.67"/><rect class="cls-2" x="0.49" y="0.5" width="104.01" height="5.67"/><path class="cls-1" d="M105,35H0V0H105ZM1,34H104V1H1Z"/></g></g></svg>