<svg xmlns="http://www.w3.org/2000/svg" viewBox="0 0 105 35"><defs><style>.cls-1{fill:#43637c;}.cls-2{fill:none;}</style></defs><title>Air</title><g id="Слой_2" data-name="Слой 2"><g id="Layer_1" data-name="Layer 1"><path class="cls-1" d="M60.88,18.82H39.54a.62.62,0,0,1-.31-1.15l14.09-4.06a.71.71,0,0,1,.31-.08h8.79a.62.62,0,0,1,.56.35.63.63,0,0,1-.08.66l-1.54,4.05A.6.6,0,0,1,60.88,18.82Zm-19-1.24H60.59l.53-2.81H53.8Z"/><path class="cls-1" d="M72.18,30.75H62.85a.62.62,0,0,1-.47-.22l-5.74-3.14a.63.63,0,0,1-.14-.4H33.66l12.2,2.61a.63.63,0,0,1,.29.7.62.62,0,0,1-.6.46H11.29C8.57,30.75,0,29.05,0,25.11c0-3,8-7.53,11.29-7.53h74L98.73,4.73a.63.63,0,0,1,.44-.19h5a.63.63,0,0,1,.51.27.66.66,0,0,1,.06.58L96.91,19.57l4.22.53a.62.62,0,0,1,.54.61v2.51a.62.62,0,0,1-.46.6L96.3,25.11a.63.63,0,0,1-.57-.14L95,24.31a.6.6,0,0,1-.2-.46v-.64H81v.25l6.33,2.93a.61.61,0,0,1,.35.61.6.6,0,0,1-.45.54c-3.35.92-5.59,1.56-6.65,1.92A30.39,30.39,0,0,1,72.18,30.75Zm-9.91-1.24h9.91a29.25,29.25,0,0,0,8-1.22c.91-.3,2.62-.8,5.1-1.49l-5.16-2.39a.62.62,0,0,1-.36-.56V22.6a.62.62,0,0,1,.62-.62H95.41a.61.61,0,0,1,.61.62v1l.29.25,4.13-1.08V21.26L96,20.7a.62.62,0,0,1-.5-.85l7.82-14.07H99.44L86,18.63a.64.64,0,0,1-.45.19H11.29c-3.1,0-10,4.35-10,6.29,0,2.41,6.65,4.4,10,4.4H41.84l-9.6-1.92a.62.62,0,0,1-.3-.61l.08-.69a.62.62,0,0,1,.61-.55H57.11a.62.62,0,0,1,.62.62v.4Z"/><path class="cls-1" d="M15.08,27.61h-1.3a1.85,1.85,0,0,1-1.85-1.86V23.2a1.85,1.85,0,0,1,1.85-1.85h1.3a1.85,1.85,0,0,1,1.85,1.85v2.55A1.85,1.85,0,0,1,15.08,27.61Zm-1.3-5a.61.61,0,0,0-.62.61v2.55a.62.62,0,0,0,.62.62h1.3a.61.61,0,0,0,.61-.62V23.2a.61.61,0,0,0-.61-.61Z"/><path class="cls-1" d="M7.84,23.21H2.19a.62.62,0,1,1,0-1.23H7.84a.62.62,0,0,1,0,1.23Z"/><path class="cls-1" d="M66.8,33.55H58a.68.68,0,0,1-.31-.08L32.24,27.59a.62.62,0,0,1-.3-.61l.08-.69a.62.62,0,0,1,.61-.55H57.11a.62.62,0,0,1,.62.62v.4l9.54,5.77a.63.63,0,0,1,.09.66A.62.62,0,0,1,66.8,33.55Zm-8.63-1.23h7.28l-8.81-4.93a.63.63,0,0,1-.14-.4H33.66Z"/><path class="cls-1" d="M104.2,32.32H97.29a.58.58,0,0,1-.26-.06l-17-7.85a.62.62,0,0,1-.36-.56V22.6a.62.62,0,0,1,.62-.62H95.41a.61.61,0,0,1,.61.62v1l8.59,7.66a.62.62,0,0,1-.41,1.08Zm-6.77-1.24h5.15L95,24.31a.6.6,0,0,1-.2-.46v-.64H81v.25Z"/><rect class="cls-2" width="105" height="35"/></g></g></svg>