<svg xmlns="http://www.w3.org/2000/svg" viewBox="0 0 105 35"><defs><style>.cls-1{fill:#e1e1e1;}.cls-2{fill:#43637c;}.cls-3{fill:#398aff;}.cls-4{fill:none;}</style></defs><title>Ресурс 324</title><g id="Слой_2" data-name="Слой 2"><g id="Layer_1" data-name="Layer 1"><path class="cls-1" d="M50.19,6H4.6c-1.32.87-2.34,6.66-2.34,13.71s1,12.84,2.34,13.71H50.19c1.32-.87,2.35-6.66,2.35-13.71S51.51,6.83,50.19,6Z"/><path class="cls-2" d="M50.34,33.88H4.45l-.12-.08c-1.77-1.17-2.57-8.15-2.57-14.13s.8-13,2.57-14.13l.12-.08H50.34l.12.08C52.23,6.71,53,13.68,53,19.67s-.81,13-2.58,14.13Zm-45.56-1H50c1-1,2-6.11,2-13.21S51,7.4,50,6.46H4.78c-1,.94-2,6.11-2,13.21S3.79,31.93,4.78,32.88Z"/><rect class="cls-3" x="21.38" y="0.64" width="13.36" height="5.31"/><path class="cls-2" d="M35.25,6.46H20.88V.14H35.25Zm-13.37-1H34.25V1.14H21.88Z"/><path class="cls-2" d="M55,35H0V0H55ZM1,34H54V1H1Z"/><rect class="cls-4" width="105" height="35"/></g></g></svg>