<svg xmlns="http://www.w3.org/2000/svg" viewBox="0 0 105 35"><defs><style>.cls-1{fill:#43637c;}.cls-2{fill:#398aff;}</style></defs><title>Ресурс 424</title><g id="Слой_2" data-name="Слой 2"><g id="Layer_1" data-name="Layer 1"><rect class="cls-1" x="8.53" y="5.72" width="0.99" height="23.98"/><rect class="cls-1" x="16.28" y="5.72" width="0.99" height="23.98"/><rect class="cls-1" x="24.02" y="5.72" width="0.99" height="23.98"/><rect class="cls-1" x="31.77" y="5.72" width="0.99" height="23.98"/><rect class="cls-1" x="39.51" y="5.72" width="0.99" height="23.98"/><rect class="cls-1" x="47.26" y="5.72" width="0.99" height="23.98"/><rect class="cls-1" x="55" y="5.72" width="0.99" height="23.98"/><rect class="cls-1" x="62.75" y="5.72" width="0.99" height="23.98"/><rect class="cls-1" x="70.49" y="5.72" width="0.99" height="23.98"/><rect class="cls-1" x="78.23" y="5.72" width="0.99" height="23.98"/><rect class="cls-1" x="85.98" y="5.72" width="0.99" height="23.98"/><rect class="cls-1" x="93.72" y="5.72" width="0.99" height="23.98"/><rect class="cls-2" x="97.3" y="0.73" width="7.2" height="34.18"/><path class="cls-1" d="M105,35H0V0H105ZM1,34H104V1H1Z"/></g></g></svg>