<?xml version="1.0" encoding="utf-8"?>
<!-- Generator: Adobe Illustrator 24.1.0, SVG Export Plug-In . SVG Version: 6.00 Build 0)  -->
<svg version="1.1" id="Слой_1" xmlns="http://www.w3.org/2000/svg" xmlns:xlink="http://www.w3.org/1999/xlink" x="0px" y="0px"
	 viewBox="0 0 134.6 29.3" style="enable-background:new 0 0 134.6 29.3;" xml:space="preserve">
<style type="text/css">
	.st0{fill:#0088FF;}
	.st1{opacity:0.5;fill:#0088FF;enable-background:new    ;}
	.st2{fill:#A6A6A8;}
</style>
<g>
	<path class="st0" d="M48.1,9c-0.6-0.2-1.4-0.5-2.3-0.7c-0.7-0.2-1.2-0.3-1.6-0.5c-0.4-0.1-0.7-0.3-1-0.5c-0.3-0.2-0.4-0.5-0.4-0.9
		c0-0.5,0.2-0.9,0.7-1.2c0.5-0.3,1.1-0.5,2.1-0.5c0.6,0,1.1,0.1,1.8,0.3c0.6,0.2,1.2,0.4,1.7,0.7l0.7-1.8c-0.5-0.4-1.2-0.6-1.9-0.8
		c-0.7-0.2-1.5-0.3-2.3-0.3c-1.1,0-2,0.2-2.8,0.5C42,3.6,41.4,4,41,4.6c-0.4,0.6-0.6,1.2-0.6,1.9c0,0.8,0.2,1.5,0.6,2
		C41.5,9,42,9.3,42.6,9.6C43.2,9.8,44,10,45,10.2c0.7,0.2,1.2,0.3,1.6,0.5c0.4,0.1,0.7,0.3,1,0.6c0.3,0.2,0.4,0.5,0.4,0.9
		c0,0.5-0.2,0.9-0.7,1.2c-0.5,0.3-1.2,0.5-2.1,0.5c-0.8,0-1.5-0.1-2.3-0.4c-0.7-0.3-1.4-0.6-1.9-1l-0.8,1.8c0.5,0.5,1.2,0.8,2.1,1.1
		c0.9,0.3,1.9,0.4,2.8,0.4c1.1,0,2-0.2,2.8-0.5c0.8-0.3,1.3-0.8,1.7-1.4c0.4-0.6,0.6-1.2,0.6-1.9c0-0.8-0.2-1.5-0.7-2
		C49.2,9.5,48.7,9.2,48.1,9z"/>
	<polygon class="st0" points="55,10.1 61.1,10.1 61.1,8.2 55,8.2 55,4.9 61.8,4.9 61.8,2.9 52.6,2.9 52.6,15.5 62.1,15.5 62.1,13.6 
		55,13.6 	"/>
	<path class="st0" d="M68.6,2.9l-5.7,12.6h2.4l1.2-2.9h6.3l1.3,2.9h2.5L70.9,2.9H68.6z M67.4,10.8l2.4-5.5l2.4,5.5H67.4z"/>
	<path class="st0" d="M87.7,9.8c0.5-0.7,0.8-1.5,0.8-2.5c0-1.3-0.5-2.4-1.4-3.2c-0.9-0.8-2.2-1.2-3.8-1.2h-4.7v12.6h1.3v-4h3.4
		c0.3,0,0.7,0,1-0.1l2.9,4.1h1.5l-3.1-4.3C86.5,10.9,87.2,10.4,87.7,9.8z M83.3,10.4h-3.4V4.1h3.4c1.3,0,2.2,0.3,2.9,0.8
		c0.7,0.5,1,1.3,1,2.3c0,1-0.3,1.8-1,2.3S84.5,10.4,83.3,10.4z"/>
	<path class="st0" d="M95.4,2.9l-5.8,12.6H91l1.5-3.4h7l1.5,3.4h1.4L96.7,2.9H95.4z M93,11.1l3-6.8l3,6.8H93z"/>
	<polygon class="st0" points="102,4.1 106.4,4.1 106.4,15.5 107.7,15.5 107.7,4.1 112.2,4.1 112.2,2.9 102,2.9 	"/>
	<polygon class="st0" points="115.6,9.7 122.2,9.7 122.2,8.6 115.6,8.6 115.6,4.1 123,4.1 123,2.9 114.3,2.9 114.3,15.5 123.2,15.5 
		123.2,14.4 115.6,14.4 	"/>
	<path class="st0" d="M134,10.4c-0.4-0.5-0.9-0.8-1.5-1c-0.6-0.2-1.3-0.5-2.2-0.7c-0.8-0.2-1.4-0.4-1.9-0.5
		c-0.5-0.2-0.8-0.4-1.2-0.7c-0.3-0.3-0.5-0.7-0.5-1.2c0-0.7,0.3-1.2,0.8-1.6c0.6-0.4,1.4-0.6,2.5-0.6c0.6,0,1.2,0.1,1.8,0.3
		c0.6,0.2,1.2,0.4,1.7,0.8l0.5-1.1c-0.5-0.3-1.1-0.6-1.8-0.8c-0.7-0.2-1.4-0.3-2.1-0.3c-1,0-1.9,0.2-2.6,0.5
		c-0.7,0.3-1.2,0.7-1.6,1.3c-0.3,0.5-0.5,1.1-0.5,1.7c0,0.8,0.2,1.4,0.6,1.9c0.4,0.5,0.9,0.8,1.5,1c0.6,0.2,1.3,0.4,2.3,0.7
		c0.8,0.2,1.4,0.4,1.9,0.5c0.4,0.2,0.8,0.4,1.1,0.7c0.3,0.3,0.5,0.7,0.5,1.2c0,0.7-0.3,1.2-0.8,1.6c-0.6,0.4-1.4,0.6-2.5,0.6
		c-0.8,0-1.6-0.1-2.3-0.4c-0.8-0.3-1.4-0.7-1.8-1.1l-0.5,1c0.5,0.5,1.1,0.9,2,1.2c0.9,0.3,1.8,0.5,2.7,0.5c1,0,1.9-0.2,2.6-0.5
		c0.7-0.3,1.2-0.7,1.6-1.2c0.3-0.5,0.5-1.1,0.5-1.8C134.6,11.4,134.4,10.8,134,10.4z"/>
</g>
<path class="st1" d="M0.1,3.3c-0.5-1.9,1.3-3.7,3.2-3.2L15,3.2c0.1,0,0.2,0.1,0.3,0.1c0.6,0.2,0.9,0.8,0.8,1.4
	c-0.2,0.6-0.8,0.9-1.4,0.8l-0.3-0.1c-1.5-0.4-4.7-0.4-7,2c-2.4,2.4-2.4,5.5-2,7l0.1,0.3c0.2,0.6-0.2,1.2-0.8,1.4
	c-0.6,0.2-1.2-0.2-1.4-0.8c0-0.1-0.1-0.2-0.1-0.4L0.1,3.3z"/>
<path class="st1" d="M14.2,18.3c-3,0.8-6.1-1-6.9-4c-0.8-3,1-6.1,4-6.9c3-0.8,6.1,1,6.9,4C18.9,14.4,17.2,17.5,14.2,18.3z"/>
<path class="st1" d="M27.3,6.5c1.9,0.5,2.6,3,1.2,4.4L20,19.4c-0.1,0.1-0.2,0.2-0.2,0.2c-0.4,0.4-1.1,0.4-1.6,0
	c-0.4-0.4-0.4-1.1,0-1.6l0.2-0.2c1.1-1.1,2.7-3.9,1.8-7.1c-0.9-3.2-3.6-4.8-5.1-5.2l-0.3-0.1c-0.6-0.2-0.9-0.8-0.8-1.4
	c0.1-0.6,0.7-1,1.3-0.8c0.1,0,0.2,0.1,0.4,0.1L27.3,6.5z"/>
<path class="st0" d="M10.9,28.5c-1.4,1.4-3.9,0.8-4.4-1.2L3.4,15.7c0-0.1-0.1-0.2-0.1-0.3c-0.1-0.6,0.2-1.2,0.8-1.3
	c0.6-0.2,1.2,0.2,1.4,0.8L5.5,15c0.4,1.5,2,4.2,5.3,5.1c3.2,0.9,5.9-0.7,7.1-1.8l0.2-0.2c0.4-0.4,1.1-0.4,1.6,0
	c0.4,0.4,0.5,1.1,0,1.6c-0.1,0.1-0.2,0.2-0.3,0.3L10.9,28.5z"/>
<g>
	<path class="st2" d="M53.2,19.1h-2.1V25h2.1c0.9,0,1.7-0.3,2.4-0.9c0.6-0.6,0.9-1.3,0.9-2.1c0-0.8-0.3-1.5-0.9-2.1
		C54.9,19.4,54.1,19.1,53.2,19.1z M54.6,23.4c-0.4,0.3-0.8,0.5-1.4,0.5h-0.8v-3.7h0.8c0.6,0,1,0.2,1.4,0.5c0.4,0.3,0.5,0.8,0.5,1.3
		C55.1,22.6,55,23,54.6,23.4z"/>
	<path class="st2" d="M59.6,19.1h-2.6V25h1.3v-1.9h1.2c0.7,0,1.2-0.2,1.6-0.6c0.4-0.4,0.6-0.9,0.6-1.5c0-0.6-0.2-1.1-0.6-1.4
		C60.8,19.3,60.3,19.1,59.6,19.1z M60.3,21.8c-0.2,0.2-0.4,0.3-0.8,0.3h-1.1v-1.9h1.1c0.3,0,0.6,0.1,0.8,0.3
		c0.2,0.2,0.3,0.4,0.3,0.7C60.5,21.4,60.4,21.6,60.3,21.8z"/>
	<path class="st2" d="M75.1,19c-0.9,0-1.6,0.3-2.2,0.9c-0.6,0.6-0.9,1.3-0.9,2.2c0,0.9,0.3,1.6,0.9,2.2c0.6,0.6,1.3,0.9,2.2,0.9
		c0.9,0,1.6-0.3,2.2-0.9c0.6-0.6,0.9-1.3,0.9-2.2c0-0.9-0.3-1.6-0.9-2.2S76,19,75.1,19z M76.4,23.4c-0.3,0.4-0.8,0.5-1.3,0.5
		c-0.5,0-1-0.2-1.3-0.5c-0.3-0.4-0.5-0.8-0.5-1.3c0-0.5,0.2-1,0.5-1.3c0.3-0.4,0.8-0.5,1.3-0.5c0.5,0,1,0.2,1.3,0.5
		c0.3,0.4,0.5,0.8,0.5,1.3C76.9,22.6,76.8,23,76.4,23.4z"/>
	<path class="st2" d="M83.4,22.1c0.2-0.3,0.3-0.7,0.3-1.1c0-0.6-0.2-1-0.6-1.4c-0.4-0.4-0.9-0.5-1.5-0.5H79V25h1.3v-2h0.9l1.3,2H84
		l-1.5-2.2C82.9,22.7,83.2,22.4,83.4,22.1z M82.2,21.7C82,21.9,81.8,22,81.4,22h-1.2v-1.8h1.2c0.3,0,0.6,0.1,0.7,0.2
		c0.2,0.2,0.3,0.4,0.3,0.6C82.5,21.4,82.4,21.6,82.2,21.7z"/>
	<polygon class="st2" points="86,19.1 84.7,19.1 84.7,25 88.9,25 88.9,23.9 86,23.9 	"/>
	<path class="st2" d="M94,19.9c-0.6-0.6-1.4-0.8-2.3-0.8h-2.1V25h2.1c0.9,0,1.7-0.3,2.4-0.9c0.6-0.6,0.9-1.3,0.9-2.1
		C94.9,21.2,94.6,20.5,94,19.9z M93.1,23.4c-0.4,0.3-0.8,0.5-1.4,0.5h-0.8v-3.7h0.8c0.6,0,1,0.2,1.4,0.5c0.4,0.3,0.5,0.8,0.5,1.3
		C93.6,22.6,93.4,23,93.1,23.4z"/>
	<polygon class="st2" points="70.7,19.1 69.5,23.1 69.5,23.1 68.2,19.1 66.9,19.1 67.4,20.6 66.6,23.2 65.2,19.1 63.8,19.1 65.8,25 
		65.8,25 67.1,25 67.1,25 67.9,22.3 68.8,25 68.9,25 70.1,25 70.1,25 72.1,19.1 	"/>
	<path class="st2" d="M43.4,22.2l-0.1,0L43.4,22.2c0.3-0.2,0.5-0.3,0.6-0.5c0.1-0.2,0.2-0.4,0.2-0.7c0-0.4-0.2-0.8-0.5-1.1
		c-0.3-0.3-0.8-0.4-1.3-0.4h-2.2v5.5h2.2c0.6,0,1-0.1,1.4-0.3c0.4-0.3,0.7-0.6,0.7-1.1c0-0.4-0.1-0.7-0.3-0.9
		C44,22.5,43.8,22.3,43.4,22.2z M41.4,20.5h0.9c0.3,0,0.5,0.1,0.6,0.2c0.1,0.1,0.2,0.3,0.2,0.5c0,0.4-0.3,0.6-0.8,0.6h-0.9V20.5z
		 M43,23.9c-0.1,0.1-0.4,0.2-0.7,0.2h-0.9v-1.5h0.8c0.4,0,0.6,0.1,0.8,0.2c0.1,0.1,0.2,0.3,0.2,0.6C43.2,23.6,43.1,23.8,43,23.9z"/>
	<polygon class="st2" points="46.9,23.9 46,21.2 44.8,21.2 46.3,25.1 45.8,26.5 47,26.5 48.9,21.2 47.8,21.2 	"/>
</g>
</svg>
