<svg xmlns="http://www.w3.org/2000/svg" viewBox="0 0 1919.3 168.43"><defs><style>.cls-1{fill:#fff;}.cls-2{fill:#1c8ae2;}.cls-2,.cls-3{opacity:0.28;isolation:isolate;}.cls-3{fill:#47baf3;}</style></defs><title>v2</title><g id="Слой_2" data-name="Слой 2"><g id="Heder"><path class="cls-1" d="M910.74,124.24Q857,123.55,805,121.41C470.6,107.82,195.23,52.53.37,1.13.19,52.12,0,168.43,0,168.43H1919.3V1C1691.07,61.19,1342,129.78,910.74,124.24Z"/><path class="cls-2" d="M1789.12,31.85l-3.65.82-4.52,1L1775,35l-1.93.42a3739.7,3739.7,0,0,1-442,70.08l6.79.2q-52.71,5.27-108,9.23c99,2.71,194.3,4.56,274,6.54,182.87,4.59,326.65-40.69,415.43-81.28,0-13.28.13-26.84,0-40.21C1879.49,10.51,1836,21.27,1789.12,31.85Z"/><path class="cls-2" d="M910.6,124.23q-20.83-.27-41.4-.77c131.56,11.28,257.69,21.71,362.3,30.91C1500,178,1672.55,108.61,1753.41,40.63A3784.37,3784.37,0,0,1,910.6,124.23Z"/><path class="cls-3" d="M.32,1.11C.32,8,.26,15.05.26,22.31c59.83,17,185.18,34.41,339.25,51.36C209,52.06,95.14,26.13.32,1.11Z"/><path class="cls-3" d="M18.24,5.79C62.35,45,182.39,92.34,363.44,93.28h0c33.44.18,69,0,105.65-.47A3720.86,3720.86,0,0,1,18.24,5.79Z"/><path class="cls-3" d="M.38,1.13C.33,12.49.32,24.49.26,36.87,75.43,85,223.82,133.42,432.84,134.12c140.74.53,309.79-3.73,462.79-10.12C520.24,117.68,212.57,57.11.38,1.13Z"/></g></g></svg>