<svg width="432" height="260" viewBox="0 0 432 260" fill="none" xmlns="http://www.w3.org/2000/svg">
<g filter="url(#filter0_d)">
<path d="M32.174 32.756H72.8213V153.331H32.174V32.756Z" fill="white"/>
<path d="M206.925 153.331L206.58 98.3832L180.4 142.479H162.488L136.308 100.278V153.331H99.2781V32.756H132.692L171.961 97.0052L210.197 32.756H243.611L243.955 153.331H206.925Z" fill="white"/>
<path d="M333.707 156.087C320.732 156.087 309.077 153.388 298.743 147.991C288.409 142.594 280.314 135.13 274.458 125.599C268.602 115.953 265.674 105.101 265.674 93.0435C265.674 80.986 268.602 70.1917 274.458 60.6605C280.314 51.0145 288.409 43.4929 298.743 38.0957C309.077 32.6986 320.732 30 333.707 30C346.682 30 358.336 32.6986 368.67 38.0957C379.004 43.4929 387.099 51.0145 392.955 60.6605C398.811 70.1917 401.739 80.986 401.739 93.0435C401.739 105.101 398.811 115.953 392.955 125.599C387.099 135.13 379.004 142.594 368.67 147.991C358.336 153.388 346.682 156.087 333.707 156.087ZM333.707 123.187C338.759 123.187 343.294 121.981 347.313 119.57C351.447 117.044 354.719 113.541 357.13 109.063C359.542 104.469 360.747 99.1296 360.747 93.0435C360.747 86.9573 359.542 81.675 357.13 77.1965C354.719 72.6031 351.447 69.1007 347.313 66.6892C343.294 64.1629 338.759 62.8997 333.707 62.8997C328.654 62.8997 324.061 64.1629 319.928 66.6892C315.909 69.1007 312.694 72.6031 310.283 77.1965C307.871 81.675 306.666 86.9573 306.666 93.0435C306.666 99.1296 307.871 104.469 310.283 109.063C312.694 113.541 315.909 117.044 319.928 119.57C324.061 121.981 328.654 123.187 333.707 123.187Z" fill="white"/>
<path d="M53.9089 230C49.3396 230 45.222 229.087 41.5559 227.261C37.9431 225.383 35.1006 222.8 33.0285 219.513C31.0095 216.226 30 212.496 30 208.322C30 204.148 31.0095 200.418 33.0285 197.131C35.1006 193.844 37.9431 191.287 41.5559 189.461C45.222 187.583 49.3396 186.644 53.9089 186.644C58.425 186.644 62.3566 187.583 65.7039 189.461C69.1043 191.287 71.5748 193.922 73.1156 197.366L63.4724 202.453C61.2409 198.592 58.0265 196.661 53.8292 196.661C50.5882 196.661 47.9051 197.705 45.7798 199.792C43.6546 201.879 42.592 204.722 42.592 208.322C42.592 211.922 43.6546 214.766 45.7798 216.853C47.9051 218.939 50.5882 219.983 53.8292 219.983C58.0796 219.983 61.294 218.053 63.4724 214.192L73.1156 219.357C71.5748 222.696 69.1043 225.305 65.7039 227.183C62.3566 229.061 58.425 230 53.9089 230Z" fill="white"/>
<path d="M103.319 230C98.8031 230 94.7386 229.087 91.1257 227.261C87.566 225.383 84.7766 222.8 82.7576 219.513C80.7387 216.226 79.7292 212.496 79.7292 208.322C79.7292 204.148 80.7387 200.418 82.7576 197.131C84.7766 193.844 87.566 191.287 91.1257 189.461C94.7386 187.583 98.8031 186.644 103.319 186.644C107.835 186.644 111.873 187.583 115.433 189.461C118.993 191.287 121.782 193.844 123.801 197.131C125.82 200.418 126.83 204.148 126.83 208.322C126.83 212.496 125.82 216.226 123.801 219.513C121.782 222.8 118.993 225.383 115.433 227.261C111.873 229.087 107.835 230 103.319 230ZM103.319 219.983C106.507 219.983 109.11 218.939 111.129 216.853C113.202 214.713 114.238 211.87 114.238 208.322C114.238 204.774 113.202 201.957 111.129 199.87C109.11 197.731 106.507 196.661 103.319 196.661C100.131 196.661 97.5014 197.731 95.4293 199.87C93.3572 201.957 92.3212 204.774 92.3212 208.322C92.3212 211.87 93.3572 214.713 95.4293 216.853C97.5014 218.939 100.131 219.983 103.319 219.983Z" fill="white"/>
<path d="M182.001 171.305V229.374H170.126V224.522C167.045 228.174 162.582 230 156.737 230C152.7 230 149.034 229.113 145.739 227.339C142.498 225.566 139.948 223.035 138.089 219.748C136.229 216.461 135.299 212.653 135.299 208.322C135.299 203.992 136.229 200.183 138.089 196.896C139.948 193.609 142.498 191.079 145.739 189.305C149.034 187.531 152.7 186.644 156.737 186.644C162.21 186.644 166.487 188.339 169.569 191.731V171.305H182.001ZM158.889 219.983C162.024 219.983 164.627 218.939 166.699 216.853C168.772 214.713 169.808 211.87 169.808 208.322C169.808 204.774 168.772 201.957 166.699 199.87C164.627 197.731 162.024 196.661 158.889 196.661C155.701 196.661 153.071 197.731 150.999 199.87C148.927 201.957 147.891 204.774 147.891 208.322C147.891 211.87 148.927 214.713 150.999 216.853C153.071 218.939 155.701 219.983 158.889 219.983Z" fill="white"/>
<path d="M238.696 208.479C238.696 208.635 238.616 209.731 238.457 211.766H206.02C206.605 214.374 207.986 216.435 210.164 217.948C212.343 219.461 215.052 220.218 218.293 220.218C220.525 220.218 222.491 219.905 224.191 219.279C225.944 218.6 227.565 217.557 229.052 216.148L235.667 223.192C231.629 227.731 225.732 230 217.975 230C213.14 230 208.863 229.087 205.144 227.261C201.424 225.383 198.555 222.8 196.536 219.513C194.517 216.226 193.508 212.496 193.508 208.322C193.508 204.2 194.491 200.496 196.457 197.209C198.476 193.87 201.212 191.287 204.665 189.461C208.172 187.583 212.077 186.644 216.381 186.644C220.578 186.644 224.377 187.531 227.777 189.305C231.178 191.079 233.834 193.635 235.747 196.974C237.713 200.261 238.696 204.096 238.696 208.479ZM216.46 195.879C213.644 195.879 211.28 196.661 209.367 198.226C207.455 199.792 206.286 201.931 205.861 204.644H226.98C226.555 201.983 225.386 199.87 223.474 198.305C221.561 196.687 219.223 195.879 216.46 195.879Z" fill="white"/>
</g>
<defs>
<filter id="filter0_d" x="0" y="0" width="431.739" height="260" filterUnits="userSpaceOnUse" color-interpolation-filters="sRGB">
<feFlood flood-opacity="0" result="BackgroundImageFix"/>
<feColorMatrix in="SourceAlpha" type="matrix" values="0 0 0 0 0 0 0 0 0 0 0 0 0 0 0 0 0 0 127 0"/>
<feOffset/>
<feGaussianBlur stdDeviation="15"/>
<feColorMatrix type="matrix" values="0 0 0 0 0.19566 0 0 0 0 0.357219 0 0 0 0 0.670833 0 0 0 0.15 0"/>
<feBlend mode="normal" in2="BackgroundImageFix" result="effect1_dropShadow"/>
<feBlend mode="normal" in="SourceGraphic" in2="effect1_dropShadow" result="shape"/>
</filter>
</defs>
</svg>
