<svg width="35" height="34" viewBox="0 0 35 34" fill="none" xmlns="http://www.w3.org/2000/svg">
<path d="M17.4834 11.6208C14.7638 11.6208 12.5512 13.8334 12.5512 16.553C12.5512 19.2726 14.7638 21.4852 17.4834 21.4852C20.2031 21.4852 22.4158 19.2726 22.4158 16.553C22.4158 13.8333 20.2032 11.6208 17.4834 11.6208ZM17.4834 19.9877C15.5894 19.9877 14.0486 18.447 14.0486 16.553C14.0486 14.659 15.5894 13.1182 17.4834 13.1182C19.3775 13.1182 20.9184 14.659 20.9184 16.553C20.9184 18.447 19.3775 19.9877 17.4834 19.9877ZM17.2401 32.3806C17.2153 32.7774 16.8858 33.0826 16.4936 33.0826C16.478 33.0826 16.4622 33.0821 16.4463 33.0811C12.4166 32.8298 8.62343 31.1175 5.76553 28.26C3.74177 26.236 2.29253 23.743 1.52976 21.0291L1.47203 21.2448C1.36496 21.6443 0.954835 21.8812 0.555025 21.7742C0.155631 21.6671 -0.0812936 21.2566 0.0256884 20.8572L0.964235 17.3555C0.97663 17.3044 0.99435 17.2552 1.01673 17.2086C1.06415 17.1095 1.13195 17.0243 1.21331 16.9568C1.29816 16.8863 1.39882 16.8339 1.51004 16.8062C1.59248 16.7855 1.67908 16.7786 1.76668 16.7876C1.85595 16.7964 1.94105 16.8211 2.01875 16.8589C2.117 16.9065 2.20152 16.9741 2.26857 17.0551C2.33836 17.1393 2.39019 17.2393 2.41789 17.3495C2.43045 17.3992 2.43802 17.4505 2.4401 17.5027C2.67237 21.1616 4.22902 24.6054 6.82445 27.2011C9.42405 29.8005 12.8743 31.358 16.5396 31.5866C16.9523 31.6124 17.2659 31.9679 17.2401 32.3806ZM34.9742 12.1944L34.0316 15.7126C33.9939 15.8532 33.9187 15.9738 33.8194 16.0661C33.6938 16.1982 33.5199 16.2851 33.3236 16.2973C33.3078 16.2983 33.2919 16.2988 33.2763 16.2988C32.8841 16.2988 32.5545 15.9936 32.5297 15.5967C32.3011 11.931 30.7436 8.48069 28.1441 5.88151C25.5446 3.28192 22.0944 1.72444 18.429 1.49592C18.0163 1.47021 17.7026 1.11482 17.7283 0.702119C17.754 0.289415 18.1112 -0.0237113 18.5221 0.00141199C22.5521 0.252645 26.3453 1.96486 29.203 4.82259C31.2372 6.85666 32.691 9.36483 33.4506 12.0952L33.5279 11.8069C33.6348 11.4076 34.0455 11.1705 34.4448 11.2775C34.8442 11.3845 35.0812 11.7951 34.9742 12.1944ZM28.4746 10.1957C27.7208 8.89007 26.4811 7.57667 25.4438 8.12131L23.4832 8.99747C22.7327 8.39966 21.9063 7.92224 21.017 7.57276L20.7948 5.43137C20.7414 4.26514 18.9866 3.84977 17.4834 3.84977C15.9756 3.84977 14.2182 4.26672 14.1717 5.43728L13.9499 7.57268C13.0609 7.92224 12.2345 8.39958 11.4837 8.99738L9.52005 8.11973C8.48259 7.57941 7.24448 8.89281 6.49203 10.1956C5.73824 11.5015 5.2208 13.232 6.21118 13.8574L7.94344 15.1124C7.87231 15.5879 7.83637 16.0702 7.83637 16.5518C7.83637 17.0266 7.8714 17.5026 7.94078 17.9722L6.21126 19.2253C5.22122 19.8506 5.73841 21.5811 6.49211 22.8873C7.24406 24.1893 8.48168 25.5021 9.5188 24.9636L11.467 24.0931C12.2226 24.6976 13.0554 25.1797 13.9523 25.5319L14.1718 27.6454C14.2183 28.816 15.9757 29.2329 17.4835 29.2329C18.9866 29.2329 20.7415 28.8175 20.7948 27.6513L21.0147 25.5318C21.9117 25.1795 22.7446 24.6973 23.5002 24.0927L25.4465 24.9624C25.7537 25.1206 26.3545 25.2391 27.1855 24.5187C27.6339 24.1299 28.0918 23.5504 28.4747 22.8871C29.2261 21.5857 29.7439 19.8589 28.7614 19.2291L27.0263 17.9721C27.0956 17.5028 27.1306 17.027 27.1306 16.5518C27.1306 16.0698 27.0947 15.5875 27.0236 15.1126L28.7623 13.853C29.7435 13.2228 29.2259 11.4967 28.4746 10.1957ZM25.766 14.1744C25.5284 14.3466 25.4132 14.6416 25.4713 14.9292C25.5787 15.46 25.6331 16.0058 25.6331 16.5518C25.6331 17.0913 25.5797 17.6316 25.4747 18.1577C25.4173 18.4448 25.5325 18.739 25.7696 18.9108L27.8052 20.3856C27.8063 20.6244 27.6821 21.2652 27.1779 22.1385C26.6739 23.0113 26.1815 23.4393 25.9738 23.5581L23.6827 22.5343C23.4144 22.4144 23.1009 22.4626 22.8811 22.6571C22.0578 23.3855 21.1154 23.9312 20.0798 24.2791C19.8016 24.3724 19.6037 24.6198 19.5734 24.9116L19.3151 27.4024C19.1087 27.5227 18.4916 27.7355 17.4834 27.7355C16.4757 27.7355 15.8588 27.5229 15.6519 27.4025L15.3934 24.9116C15.3631 24.6197 15.1651 24.3725 14.887 24.279C13.8517 23.9314 12.9092 23.3857 12.0859 22.6574C11.8658 22.4627 11.5526 22.4147 11.2843 22.5345L8.99329 23.5582C8.78573 23.4395 8.29308 23.0116 7.78887 22.1387C7.28516 21.2657 7.16062 20.6253 7.16145 20.3861L9.19736 18.9111C9.43445 18.7394 9.54958 18.4452 9.49235 18.1582C9.38711 17.6312 9.33379 17.0908 9.33379 16.5518C9.33379 16.0066 9.38819 15.4606 9.49551 14.9288C9.55349 14.6414 9.43827 14.3465 9.20085 14.1744L7.16145 12.6969C7.16054 12.4577 7.28499 11.8172 7.78879 10.9444C8.293 10.0714 8.78557 9.64335 8.99321 9.52464L11.3 10.5555C11.5675 10.6752 11.8801 10.6275 12.1001 10.434C12.9199 9.71232 13.8569 9.17108 14.885 8.82535C15.163 8.73193 15.3608 8.48468 15.3911 8.19302L15.652 5.68028C15.8588 5.5599 16.4757 5.34735 17.4835 5.34735C18.4917 5.34735 19.1087 5.56007 19.3152 5.68044L19.5759 8.19311C19.6062 8.48493 19.804 8.73209 20.0822 8.8256C21.1105 9.17117 22.0473 9.71232 22.8668 10.434C23.0867 10.6277 23.3993 10.6752 23.667 10.5557L25.9738 9.52481C26.1815 9.64368 26.674 10.0717 27.178 10.9445C27.6823 11.8178 27.8065 12.4587 27.8053 12.6974L25.766 14.1744Z" fill="#0088FF"/>
</svg>
