<svg width="19" height="27" viewBox="0 0 19 27" fill="none" xmlns="http://www.w3.org/2000/svg">
<path d="M6.72917 16.5547H5.9375C5.71979 16.5547 5.54167 16.7375 5.54167 16.9609V21.8359C5.54167 22.0594 5.71979 22.2422 5.9375 22.2422H6.72917C6.94688 22.2422 7.125 22.0594 7.125 21.8359V16.9609C7.125 16.7375 6.94688 16.5547 6.72917 16.5547ZM9.89583 11.6797H9.10417C8.88646 11.6797 8.70833 11.8625 8.70833 12.0859V21.8359C8.70833 22.0594 8.88646 22.2422 9.10417 22.2422H9.89583C10.1135 22.2422 10.2917 22.0594 10.2917 21.8359V12.0859C10.2917 11.8625 10.1135 11.6797 9.89583 11.6797ZM11.875 15.3359V21.8359C11.875 22.0594 12.0531 22.2422 12.2708 22.2422H13.0625C13.2802 22.2422 13.4583 22.0594 13.4583 21.8359V15.3359C13.4583 15.1125 13.2802 14.9297 13.0625 14.9297H12.2708C12.0531 14.9297 11.875 15.1125 11.875 15.3359ZM18.3023 5.28023L14.152 1.0207C13.7067 0.563672 13.1031 0.304688 12.4752 0.304688H2.37451C1.0638 0.309766 0 1.40156 0 2.74676V23.8677C0 25.2129 1.0638 26.3047 2.37451 26.3047H16.6255C17.9362 26.3047 19 25.2129 19 23.8677V7.00629C19 6.36188 18.7477 5.73727 18.3023 5.28023ZM12.6682 1.95965C12.8067 1.9952 12.9304 2.06629 13.0343 2.17293L17.1846 6.43246C17.2885 6.5391 17.3578 6.66606 17.3924 6.80824H12.6682V1.95965ZM17.4172 23.8677C17.4172 24.3146 17.0609 24.6802 16.6255 24.6802H2.37451C1.93909 24.6802 1.58284 24.3146 1.58284 23.8677V2.74676C1.58284 2.29988 1.93909 1.92969 2.37451 1.92969H11.0848V7.21449C11.0848 7.88988 11.6142 8.42969 12.2723 8.42969H17.4172V23.8677Z" fill="#0088FF"/>
</svg>
