<svg width="31" height="31" viewBox="0 0 31 31" fill="none" xmlns="http://www.w3.org/2000/svg">
<path d="M0.889926 10.2185L6.30293 15.6663L4.78627 22.1468C4.64706 22.5994 4.685 22.9783 4.89894 23.2731C5.22555 23.7227 5.854 23.8042 6.45426 23.3931L12.7389 20.1423L14.3753 20.9888C14.4965 20.4487 14.6701 19.9298 14.8911 19.435L12.7389 18.3213L6.59875 21.4982L8.08152 15.1618L2.68894 9.73508L9.48229 8.87112L12.7389 2.40125L15.9957 8.87112L22.7887 9.73508L17.3963 15.1623L17.6142 16.0916C18.3107 15.5879 19.0845 15.186 19.9202 14.917L24.5884 10.2185C25.238 9.71341 25.1542 9.18001 25.0858 8.96928C25.0169 8.75741 24.768 8.27179 23.9337 8.25075L17.0532 7.37539L13.7742 0.862401C13.4949 0.0857218 12.96 0 12.7389 0C12.5173 0 11.9822 0.0857218 11.703 0.862401L8.42492 7.3755L1.54419 8.25086C0.70988 8.2719 0.461526 8.75793 0.392285 8.96928C0.324288 9.18001 0.240433 9.71403 0.889926 10.2185Z" fill="#0088FF"/>
<path d="M26.6714 16.6278C25.5799 16.0278 24.3271 15.6846 22.9948 15.6846C21.6922 15.6846 20.4662 16.0136 19.3909 16.5899C18.8755 16.8656 18.3998 17.2025 17.963 17.5841C17.1813 18.2689 16.5418 19.108 16.0891 20.0554C15.8557 20.5434 15.6723 21.0576 15.5462 21.5954C15.4141 22.1577 15.3369 22.7408 15.3369 23.343C15.3369 24.6746 15.6799 25.9262 16.2802 27.0184C17.5834 29.3896 20.1042 31.0003 22.9947 31.0003C23.4258 31.0003 23.8448 30.956 24.2564 30.8876C27.4682 30.3518 30.0047 27.8147 30.54 24.603C30.6084 24.1924 30.6532 23.7724 30.6532 23.3418C30.6528 20.4513 29.0421 17.9311 26.6714 16.6278ZM22.9948 29.3835C19.6641 29.3835 16.954 26.6738 16.954 23.3432C16.954 23.0104 16.9881 22.6862 17.0403 22.3683C17.1302 21.8157 17.295 21.2894 17.5245 20.7977C17.7552 20.304 18.0472 19.845 18.3972 19.4355C18.793 18.9692 19.2594 18.5675 19.7778 18.2396C20.711 17.6491 21.8127 17.3017 22.9954 17.3017C26.3267 17.3017 29.0363 20.0118 29.0363 23.3432C29.0363 23.6621 29.0042 23.9725 28.9564 24.2789C28.5521 26.8601 26.5125 28.8997 23.9314 29.304C23.6249 29.3519 23.3144 29.3835 22.9948 29.3835Z" fill="#0088FF"/>
<path d="M21.2305 19.875L21.5952 21.3104L23.039 20.5308V27.9572H24.715V18.7275H23.3743L21.2305 19.875Z" fill="#0088FF"/>
</svg>
