<svg width="25" height="31" viewBox="0 0 25 31" fill="none" xmlns="http://www.w3.org/2000/svg">
<path d="M17.8647 12.125C17.8647 9.17031 15.4488 6.7666 12.4699 6.7666C9.49707 6.7666 7.0752 9.17031 7.0752 12.125C7.0752 15.0797 9.49102 17.4834 12.4699 17.4834C15.4428 17.4894 17.8647 15.0857 17.8647 12.125ZM12.4699 16.3148C10.1752 16.3148 8.31641 14.4682 8.31641 12.1855C8.31641 9.90293 10.1752 8.05625 12.4699 8.05625C14.7646 8.05625 16.6234 9.90293 16.6234 12.1855C16.6234 14.4682 14.7646 16.3148 12.4699 16.3148Z" fill="#0088FF"/>
<path d="M24.4941 26.7896L19.723 18.5612L22.599 17.9376L21.5152 14.553L24.1551 12.1614L21.5152 9.76982L22.599 6.38525L19.1054 5.62842L18.3426 2.14697L14.9338 3.22471L12.5301 0.603027L10.1203 3.23076L6.71756 2.14697L5.95467 5.61631L2.46111 6.37314L3.5449 9.75771L0.905057 12.1493L3.5449 14.5409L2.46111 17.9255L5.25232 18.531L0.505448 26.729C0.196659 27.286 0.674979 27.7704 1.12303 27.6554L3.97478 27.0983L4.90721 29.8108C5.05252 30.271 5.73064 30.4587 6.02127 29.9319L10.7742 21.7944L12.5301 23.7138L14.2314 21.861L18.9178 29.9319C19.2508 30.4829 19.9773 30.271 20.0984 29.8714L21.0308 27.1589L23.8826 27.7159C24.3972 27.8612 24.8574 27.3769 24.4941 26.7896ZM5.58533 28.1458L4.90115 26.2386C4.8406 25.9903 4.59236 25.8087 4.34412 25.8087C4.28357 25.8087 4.28357 25.8087 4.22303 25.8087L2.17654 26.178L6.10603 19.3907L6.71756 22.1698L9.57537 21.2677L5.58533 28.1458ZM10.5078 19.6692L7.64392 20.5774L7.00213 17.6591L4.0656 17.0233L4.97986 14.1776L2.75174 12.1554L4.97381 10.1452L4.05955 7.29951L6.99607 6.66377L7.63787 3.74541L10.5017 4.65361L12.524 2.44365L14.5584 4.64756L17.4222 3.73936L18.064 6.65771L21.0006 7.29346L20.0863 10.1392L22.3084 12.1493L20.0863 14.1595L21.0006 17.0052L18.064 17.6409L17.4222 20.5593L14.5584 19.6511L12.5361 21.861L10.5078 19.6692ZM20.716 25.8087C20.4072 25.8087 20.159 25.9298 20.0318 26.2386L19.3476 28.1458L15.3334 21.2132L18.3426 22.1638L18.9178 19.5603L22.7625 26.172L20.716 25.8087Z" fill="#0088FF"/>
</svg>
