<svg width="25" height="28" viewBox="0 0 25 28" fill="none" xmlns="http://www.w3.org/2000/svg">
<path d="M24.4827 9.88575C24.0929 8.7138 23.0674 7.7207 21.0674 8.2207L18.2308 5.75972C19.2771 5.21066 19.687 4.54243 19.687 3.28118C19.6871 1.47191 18.2151 0 16.4059 0C14.5967 0 13.1247 1.47191 13.1247 3.28118C13.1247 3.49342 13.1457 3.70074 13.1844 3.90182C11.2634 3.09611 9.2919 2.41006 7.28701 1.85105C6.78597 1.71144 6.26628 1.64062 5.74204 1.64062C2.57588 1.64062 0 4.21649 0 7.38266C0 10.5488 2.57588 13.1247 5.74204 13.1247C6.97628 13.1247 7.87999 12.8037 8.75826 12.2529C8.44589 12.8776 8.42538 12.9096 8.36495 13.0675C8.36162 13.0763 8.35822 13.0849 8.355 13.0937C8.24852 13.382 8.19859 13.6826 8.20291 13.9806V19.5977L4.00206 23.7986C3.04263 24.758 3.04263 26.3191 4.00206 27.2786C4.96401 28.2405 6.51997 28.2406 7.48203 27.2786L12.4038 22.3568C13 21.5 13.1247 20.8424 13.1247 20.1853V25.5386C13.1247 26.8956 14.2287 27.9995 15.5856 27.9995C16.9425 27.9995 18.0464 26.8955 18.0464 25.5386V18.9762C18.0464 18.2907 17.6641 17.671 17.2261 17.2332L13.2449 13.5701L14 12L15.1786 13.6695C15.6361 14.3557 16.4015 14.7654 17.2261 14.7654C17.4902 14.7654 17.7518 14.723 18.0046 14.6392L22.9265 12.9985C24.2162 12.5682 24.9132 11.1761 24.4827 9.88575ZM19.5 9L18.2308 9.37513L16.0674 6.2207L19.5 9ZM16.4058 1.64062C17.3105 1.64062 18.0464 2.3766 18.0464 3.28118C18.0464 4.18576 17.3104 4.92174 16.4058 4.92174C15.5012 4.92174 14.7653 4.18576 14.7653 3.28118C14.7653 2.3766 15.5012 1.64062 16.4058 1.64062ZM5.74204 11.4841C3.48051 11.4841 1.64056 9.64425 1.64056 7.38266C1.64056 5.12107 3.48051 3 5.74204 3C6.11736 3 6.64251 3.18154 7 3.28118C8.92012 3.81656 10.6551 4.62249 12.4959 5.39188C12.2653 5.5595 12.0657 5.76676 11.9049 6.00646C11.9017 6.01116 11.8986 6.01597 11.8954 6.02073C11.7715 6.20814 11.8364 6.09675 10.4765 8.81656C10.2024 9.04127 9.92489 9.97986 9.68011 10.1846C8.06586 11.5344 7.28105 11.4841 5.74204 11.4841ZM11.8052 20.5C11.8052 20.7158 11.8052 21 11.3052 21.5L6.80518 26C6.48438 26.3207 5.74204 27.2786 4.80518 26.5C3.73627 25.6117 5.0625 24.4375 5.5 24L9.24261 20.125C9.39645 19.9712 9.68011 19.6488 9.68011 19.2113V16L11.8052 17.8046V20.5ZM22.4076 11.4421C17.1203 13.2045 17.417 13.1247 17.2261 13.1247C16.9513 13.1247 16.6962 12.9882 16.5436 12.7594L14.8308 10.19C14.8295 10.1881 14.828 10.1865 14.8267 10.1846C14.4746 9.66476 13.6979 9.72283 13.418 10.2723C13.417 10.2744 13.4157 10.2762 13.4147 10.2782L11.9265 13.2545C11.7686 13.5702 11.8305 13.9517 12.0802 14.2013L15 17C15.1326 17.1326 16.8052 18.7287 16.8052 18.9762V25.5C16.8052 25.9523 16.8052 26.7984 15.5856 26.7984C15.1333 26.7984 14.3052 26.7984 14.3052 25.5386V19.5C14.3052 19.2859 14.3052 19 13.8052 18.5L10.091 14.5321C10.0887 14.5297 10.0864 14.5273 10.084 14.525C9.82942 14.2703 9.77282 13.8825 9.93409 13.5701L13.081 6.92772C13.3588 6.36559 14.2764 6.40228 14.6276 6.92772L17.2134 10.8065C17.4186 11.1143 17.8046 11.2467 18.1553 11.1297L21.889 9.88542C22.3207 9.74121 22.7827 9.97259 22.9265 10.4045C23.0697 10.8344 22.8376 11.2986 22.4076 11.4421Z" fill="#0088FF"/>
</svg>
