<svg width="31" height="22" viewBox="0 0 31 22" fill="none" xmlns="http://www.w3.org/2000/svg">
<path d="M29.9243 5.45898L27.5115 0.439453C27.3782 0.166016 27.1118 0 26.8256 0C26.796 0 15.0032 1.5625 15.0032 1.5625C15.0032 1.5625 3.21048 0 3.18087 0C2.89469 0 2.62824 0.170898 2.49502 0.439453L0.0821884 5.45898C-0.134917 5.9082 0.096991 6.44531 0.555873 6.58203L2.99831 7.30957V17.627C2.99831 18.3447 3.46706 18.9697 4.13317 19.1406L14.268 21.7822C14.9095 21.9482 15.4375 21.8555 15.7236 21.7822L25.8684 19.1406C26.5345 18.9648 27.0032 18.3398 27.0032 17.627V7.30957L29.4457 6.58203C29.9095 6.44531 30.1365 5.9082 29.9243 5.45898ZM3.60521 1.62598L12.5312 2.8125L9.71377 7.68555L1.82396 5.33691L3.60521 1.62598ZM4.50324 7.75879C10.2812 9.47754 9.89633 9.375 10.0493 9.375C10.3157 9.375 10.5674 9.2334 10.7055 8.98926L14.2532 2.86133V20.166L4.50324 17.627V7.75879ZM25.5032 17.627L15.7532 20.166V2.85644L19.3009 8.98437C19.444 9.22851 19.6957 9.37012 19.9572 9.37012C20.1101 9.37012 19.7105 9.47266 25.5032 7.75391V17.627ZM20.2976 7.68066L17.4802 2.80762L26.4013 1.62598L28.1825 5.33691L20.2976 7.68066Z" fill="#0088FF"/>
</svg>
