<svg width="34" height="34" viewBox="0 0 34 34" fill="none" xmlns="http://www.w3.org/2000/svg">
<g clip-path="url(#clip0)">
<path d="M16.9999 0C16.4936 0 15.9874 0.13096 15.5344 0.392527C14.6283 0.915661 14.0688 1.88467 14.0688 2.93082L14.0881 24.3453C12.2234 25.5862 11.3205 27.8791 11.8987 30.0698C12.5077 32.3778 14.5982 33.9928 16.9852 33.9995C19.3722 34.0061 21.4716 32.4028 22.0935 30.0983C22.6841 27.9095 21.7946 25.6004 19.9341 24.3475L19.9312 2.93012C19.9311 1.88396 19.3716 0.915075 18.4656 0.392058C18.0127 0.130491 17.5061 0 16.9999 0ZM16.9999 1.17219C17.3033 1.17219 17.6067 1.25097 17.8792 1.40831C18.4241 1.72299 18.7585 2.30205 18.7585 2.93129V3.5175H18.1723C17.3795 3.50624 17.3795 4.70118 18.1723 4.68992H18.7587V5.86234H18.1721C17.3793 5.85109 17.3793 7.04602 18.1721 7.03477H18.759V8.20719H18.1721C17.3793 8.19593 17.3793 9.39086 18.1721 9.37961H18.7592L18.7614 24.652C18.7614 24.8613 18.8731 25.0548 19.0543 25.1595C20.6639 26.0905 21.4463 27.9971 20.9614 29.7937C20.4763 31.591 18.8498 32.8332 16.9882 32.828C15.1266 32.8229 13.507 31.5714 13.0319 29.7715C12.5569 27.9715 13.3481 26.0842 14.9648 25.1611C15.1477 25.0566 15.2606 24.8623 15.2604 24.6516L15.2409 2.93082C15.2409 2.30182 15.5754 1.72287 16.1202 1.40831C16.3927 1.25097 16.6965 1.17219 16.9999 1.17219ZM16.991 10.727C16.6675 10.7319 16.4091 10.9979 16.4137 11.3214V26.4571C15.3795 26.7242 14.6563 27.6564 14.655 28.7246C14.655 30.0196 15.7048 31.0694 16.9999 31.0694C18.2949 31.0694 19.3447 30.0196 19.3447 28.7246C19.3439 27.656 18.6208 26.7231 17.5861 26.4559V11.3214C17.5907 10.9977 17.3319 10.7315 17.0081 10.727C17.0025 10.7268 16.9967 10.7268 16.991 10.727Z" fill="#0088FF"/>
</g>
<defs>
<clipPath id="clip0">
<rect width="34" height="34" fill="white"/>
</clipPath>
</defs>
</svg>
