<svg width="27" height="23" viewBox="0 0 27 23" fill="none" xmlns="http://www.w3.org/2000/svg">
<path d="M0.674999 9.92969H6.75V0.992188C6.75 0.614062 7.05375 0.304688 7.425 0.304688H19.575C19.9462 0.304688 20.25 0.614062 20.25 0.992188V9.92969H26.325C26.6962 9.92969 27 10.2391 27 10.6172V21.6172C27 21.9953 26.6962 22.3047 26.325 22.3047H0.674999C0.303749 22.3047 0 21.9953 0 21.6172V10.6172C0 10.2391 0.303749 9.92969 0.674999 9.92969ZM8.1 11.3047H5.4V13.9816L6.75 13.5219L8.1 13.9816V11.3047ZM12.15 1.67969V4.35664L13.5 3.89687L14.85 4.35664V1.67969H12.15ZM18.9 1.67969H16.2V6.26445L13.5 5.34922L10.8 6.26445V1.67969H8.1V9.92969H18.9V1.67969ZM18.9 11.3047V13.9816L20.25 13.5219L21.6 13.9816V11.3047H18.9ZM25.65 11.3047H22.95V15.8895L20.25 14.9742L17.55 15.8895V11.3047H14.175V20.9297H25.65V11.3047ZM1.35 20.9297H12.825V11.3047H9.45V15.8895L6.75 14.9742L4.05 15.8895V11.3047H1.35V20.9297Z" fill="#0088FF"/>
</svg>
