<svg width="25" height="20" viewBox="0 0 25 20" fill="none" xmlns="http://www.w3.org/2000/svg">
<g clip-path="url(#clip0)">
<path d="M24.5464 2.5C24.7173 2.5 24.8571 2.35938 24.8571 2.1875V1.5625C24.8571 1.39062 24.7173 1.25 24.5464 1.25H0.310714C0.139821 1.25 0 1.39062 0 1.5625V2.1875C0 2.35938 0.139821 2.5 0.310714 2.5H0.621429V17.5H0.310714C0.139821 17.5 0 17.6406 0 17.8125V18.4375C0 18.6094 0.139821 18.75 0.310714 18.75H24.5464C24.7173 18.75 24.8571 18.6094 24.8571 18.4375V17.8125C24.8571 17.6406 24.7173 17.5 24.5464 17.5H24.2357V2.5H24.5464ZM22.9929 17.5H1.86429V2.5H22.9929V17.5ZM4.66071 15H5.28214C5.45304 15 5.59286 14.8594 5.59286 14.6875V5.3125C5.59286 5.14062 5.45304 5 5.28214 5H4.66071C4.48982 5 4.35 5.14062 4.35 5.3125V14.6875C4.35 14.8594 4.48982 15 4.66071 15ZM8.38929 15H9.01071C9.18161 15 9.32143 14.8594 9.32143 14.6875V5.3125C9.32143 5.14062 9.18161 5 9.01071 5H8.38929C8.21839 5 8.07857 5.14062 8.07857 5.3125V14.6875C8.07857 14.8594 8.21839 15 8.38929 15ZM12.1179 15H12.7393C12.9102 15 13.05 14.8594 13.05 14.6875V5.3125C13.05 5.14062 12.9102 5 12.7393 5H12.1179C11.947 5 11.8071 5.14062 11.8071 5.3125V14.6875C11.8071 14.8594 11.947 15 12.1179 15ZM15.8464 15H16.4679C16.6388 15 16.7786 14.8594 16.7786 14.6875V5.3125C16.7786 5.14062 16.6388 5 16.4679 5H15.8464C15.6755 5 15.5357 5.14062 15.5357 5.3125V14.6875C15.5357 14.8594 15.6755 15 15.8464 15ZM19.575 15H20.1964C20.3673 15 20.5071 14.8594 20.5071 14.6875V5.3125C20.5071 5.14062 20.3673 5 20.1964 5H19.575C19.4041 5 19.2643 5.14062 19.2643 5.3125V14.6875C19.2643 14.8594 19.4041 15 19.575 15Z" fill="#0088FF"/>
</g>
<defs>
<clipPath id="clip0">
<rect width="24.8571" height="20" fill="white"/>
</clipPath>
</defs>
</svg>
