<svg width="28" height="27" viewBox="0 0 28 27" fill="none" xmlns="http://www.w3.org/2000/svg">
<g clip-path="url(#clip0)">
<path d="M11.3861 20.6661C11.3861 21.0164 11.1022 21.3003 10.7519 21.3003H8.34785C7.99758 21.3003 7.71365 21.0164 7.71365 20.6661C7.71365 20.3159 7.99758 20.0319 8.34785 20.0319H10.7519C11.1022 20.0319 11.3861 20.3159 11.3861 20.6661ZM15.4509 8.67807H17.855C18.2052 8.67807 18.4891 8.39414 18.4891 8.04387C18.4891 7.69361 18.2052 7.40968 17.855 7.40968H15.4509C15.1006 7.40968 14.8167 7.69361 14.8167 8.04387C14.8167 8.39414 15.1007 8.67807 15.4509 8.67807ZM15.4509 11.3643H17.855C18.2052 11.3643 18.4891 11.0803 18.4891 10.7301C18.4891 10.3798 18.2052 10.0959 17.855 10.0959H15.4509C15.1006 10.0959 14.8167 10.3798 14.8167 10.7301C14.8167 11.0803 15.1007 11.3643 15.4509 11.3643ZM12.6967 12.7541H8.34785C7.99758 12.7541 7.71365 13.038 7.71365 13.3883C7.71365 13.7386 7.99758 14.0225 8.34785 14.0225H12.6967C13.0469 14.0225 13.3309 13.7386 13.3309 13.3883C13.3309 13.038 13.0469 12.7541 12.6967 12.7541ZM12.6554 17.359H8.34778C7.99752 17.359 7.71359 17.6429 7.71359 17.9932C7.71359 18.3435 7.99752 18.6274 8.34778 18.6274H12.6554C13.0057 18.6274 13.2896 18.3435 13.2896 17.9932C13.2896 17.6429 13.0057 17.359 12.6554 17.359ZM24.0921 18.3371V22.4746C24.0921 24.9699 22.062 26.9999 19.5667 26.9999C18.3858 26.9999 17.3092 26.5453 16.5025 25.8019H4.54191C4.19164 25.8019 3.90771 25.518 3.90771 25.1677V0.634246C3.90771 0.283979 4.19164 4.98931e-05 4.54191 4.98931e-05H17.307C17.4715 -0.00204295 17.6343 0.0617571 17.7565 0.18162C17.7565 0.181684 17.7566 0.181747 17.7567 0.18181C17.757 0.182191 17.7575 0.182571 17.7579 0.183015C17.7581 0.183269 17.7584 0.183586 17.7587 0.18384C17.7589 0.18403 17.7591 0.18422 17.7593 0.184411C17.7597 0.184855 17.7602 0.185362 17.7606 0.185806L22.1095 4.53461C22.1098 4.53506 22.1103 4.5355 22.1107 4.53595C22.1108 4.53601 22.1109 4.53614 22.111 4.53626C22.1114 4.53658 22.1117 4.53696 22.1121 4.53734C22.1122 4.5374 22.1122 4.53747 22.1123 4.53759C22.2012 4.62759 22.2591 4.73978 22.2828 4.85875V4.85881C22.2831 4.86008 22.2833 4.86135 22.2836 4.86256V4.86262C22.2837 4.86325 22.2839 4.86382 22.284 4.86446V4.86452C22.2917 4.90524 22.2955 4.94671 22.2951 4.98838V17.5213C22.7248 17.573 23.1506 17.637 23.571 17.7132C23.8728 17.7678 24.0921 18.0305 24.0921 18.3371ZM17.9464 4.34886H20.1299L17.9464 2.16532V4.34886ZM15.0412 22.4746V18.3371C15.0412 18.0305 15.2606 17.7677 15.5623 17.7131C16.8596 17.478 18.2069 17.3588 19.5666 17.3588C20.0556 17.3588 20.5429 17.3742 21.0268 17.4049V5.61725H17.3122C16.9619 5.61725 16.678 5.33332 16.678 4.98305V1.26844H5.17611V24.5337H15.5373C15.2202 23.9156 15.0412 23.2157 15.0412 22.4746ZM22.8238 18.8738C21.7626 18.71 20.6694 18.6272 19.5666 18.6272C18.4638 18.6272 17.3707 18.71 16.3095 18.8738V22.4746C16.3095 24.2705 17.7707 25.7315 19.5666 25.7315C21.3626 25.7315 22.8238 24.2704 22.8238 22.4746V18.8738ZM18.9324 20.4473V21.5452H17.8346C17.4843 21.5452 17.2004 21.8291 17.2004 22.1794C17.2004 22.5297 17.4843 22.8136 17.8346 22.8136H18.9324V23.9116C18.9324 24.2618 19.2163 24.5458 19.5666 24.5458C19.9168 24.5458 20.2008 24.2618 20.2008 23.9116V22.8136H21.2988C21.6491 22.8136 21.933 22.5297 21.933 22.1794C21.933 21.8291 21.6491 21.5452 21.2988 21.5452H20.2008V20.4473C20.2008 20.097 19.9168 19.8131 19.5666 19.8131C19.2163 19.8131 18.9324 20.097 18.9324 20.4473ZM17.855 14.0225C18.2052 14.0225 18.4891 13.7386 18.4891 13.3883C18.4891 13.038 18.2052 12.7541 17.855 12.7541H15.4509C15.1006 12.7541 14.8167 13.038 14.8167 13.3883C14.8167 13.7386 15.1006 14.0225 15.4509 14.0225H17.855ZM12.6967 10.0959H8.34785C7.99758 10.0959 7.71365 10.3798 7.71365 10.7301C7.71365 11.0803 7.99758 11.3643 8.34785 11.3643H12.6967C13.0469 11.3643 13.3309 11.0803 13.3309 10.7301C13.3309 10.3798 13.0469 10.0959 12.6967 10.0959ZM12.6967 7.40968H8.34785C7.99758 7.40968 7.71365 7.69361 7.71365 8.04387C7.71365 8.39414 7.99758 8.67807 8.34785 8.67807H12.6967C13.0469 8.67807 13.3309 8.39414 13.3309 8.04387C13.3309 7.69361 13.0469 7.40968 12.6967 7.40968Z" fill="#0088FF"/>
</g>
<defs>
<clipPath id="clip0">
<rect x="0.5" width="27" height="27" fill="white"/>
</clipPath>
</defs>
</svg>
