<svg width="29" height="29" viewBox="0 0 29 29" fill="none" xmlns="http://www.w3.org/2000/svg">
<path d="M7.81543 19.3358H9.6415C10.912 12.1285 17.1896 6.64847 24.7613 6.64847C25.0785 6.64847 25.3803 6.65118 25.6847 6.65389L22.3643 9.97346C22.0099 10.3278 22.0099 10.9005 22.3643 11.2549C22.541 11.4316 22.773 11.5204 23.005 11.5204C23.2369 11.5204 23.469 11.4316 23.6456 11.2549L28.9997 5.76033L23.6465 0.265764C23.2922 -0.088588 22.7195 -0.088588 22.3651 0.265764C22.0108 0.620116 22.0108 1.19285 22.3651 1.5472L25.6557 4.83776C25.3675 4.83686 25.0938 4.83505 24.7992 4.83505C16.2172 4.83596 9.12225 11.1207 7.81543 19.3358Z" fill="#0088FF"/>
<path d="M26.281 13.5937C25.7808 13.5937 25.3748 13.9997 25.3748 14.4999V27.1873H1.81251V9.06244H9.96871C10.469 9.06244 10.8749 8.65641 10.8749 8.15622C10.8749 7.65595 10.4689 7.25 9.96871 7.25H9.94152H1.81251C0.812057 7.25 0 8.06198 0 9.06251V27.1873C0 28.1878 0.811981 28.9999 1.81251 28.9999H25.3748C26.3753 28.9999 27.1873 28.1879 27.1873 27.1873V14.4999C27.1873 13.9996 26.7813 13.5937 26.281 13.5937Z" fill="#0088FF"/>
</svg>
