<svg width="32" height="31" viewBox="0 0 32 31" fill="none" xmlns="http://www.w3.org/2000/svg">
<path d="M31.3516 14.4697L25.7435 12.6311C25.5065 12.2377 25.2425 11.8279 24.9475 11.4055C25.016 11.2778 27.7105 6.07344 27.7105 6.07344C28.1555 5.21039 27.4085 4.17485 26.588 4.53496L20.6055 7.15679C20.119 6.86265 19.604 6.61148 19.0635 6.40389L16.844 0.650012C16.677 0.216671 16.3385 0 16 0C15.6615 0 15.323 0.216671 15.156 0.649407L12.9365 6.40329C12.3959 6.61088 11.8809 6.86205 11.3944 7.15619C4.9014 4.31102 5.31741 4.46172 5.0749 4.46172C4.4064 4.46172 3.9044 5.32841 4.2889 6.07344C4.2889 6.07344 6.98342 11.2784 7.05192 11.4055C6.75691 11.8279 6.49291 12.2377 6.25591 12.6311L0.648379 14.4697C-0.216126 14.753 -0.216126 16.234 0.648379 16.5178L6.25641 18.3565C6.49241 18.7487 6.75541 19.1566 7.04942 19.5778C6.98092 19.7068 4.2894 24.9141 4.2894 24.9141C3.8429 25.7802 4.5929 26.8115 5.41191 26.4532L11.3944 23.8314C11.8809 24.1255 12.3964 24.3767 12.9369 24.5843L15.1565 30.3381C15.323 30.7709 15.6615 30.9875 16 30.9875C16.3385 30.9875 16.677 30.7709 16.844 30.3381L19.0635 24.5843C19.604 24.3767 20.119 24.1255 20.606 23.8314L26.5885 26.4532C27.4095 26.8133 28.156 25.7778 27.711 24.9141C27.711 24.9141 25.0195 19.7068 24.951 19.5778C25.245 19.1566 25.5075 18.7487 25.744 18.3565L31.3521 16.5178C32.2161 16.234 32.2161 14.7536 31.3516 14.4697ZM24.782 16.6649C24.033 17.9086 24.1495 17.7246 22.966 19.4199L25.255 23.8084L20.505 21.727C19.2665 22.4763 19.2995 22.4611 17.9105 22.9949L16 27.9481L14.0895 22.9949C12.7014 22.4617 12.7354 22.4769 11.4949 21.727L6.74491 23.8084L9.03393 19.4199C7.84892 17.7228 7.96692 17.9092 7.21792 16.6649L3.6454 15.4938L7.21792 14.3227C7.96442 13.0832 7.84542 13.2702 9.04243 11.5556L6.74491 7.17858L11.4949 9.26056C12.7294 8.51431 12.6949 8.52823 14.089 7.992L16 3.03944L17.9105 7.99261C19.3015 8.52763 19.2645 8.51129 20.5045 9.26116L25.2545 7.17919L22.957 11.5562C24.149 13.2635 24.0305 13.0765 24.7815 14.3233L28.3545 15.4938L24.782 16.6649ZM16 12.9113C14.359 12.9113 12.865 12.3793 11.6774 11.5138C11.1239 12.5142 10.7999 13.7156 10.7999 15.0096C10.7999 18.486 13.128 21.3039 16 21.3039C18.872 21.3039 21.2 18.486 21.2 15.0096C21.2 13.7156 20.876 12.5142 20.3225 11.5144C19.135 12.3793 17.641 12.9113 16 12.9113ZM16 19.3672C14.015 19.3672 12.3999 17.4123 12.3999 15.0096C12.3999 14.7052 12.4259 14.4044 12.4769 14.1108C13.098 14.385 13.753 14.5635 14.4225 14.6858C14.4185 14.7427 14.4 14.7893 14.4 14.8486C14.4 16.5705 16 17.4311 16 17.4311C16 17.4311 17.6 16.5705 17.6 14.8486C17.6 14.7899 17.581 14.7427 17.5775 14.6858C18.247 14.5641 18.902 14.385 19.523 14.1108C19.574 14.4044 19.6 14.7052 19.6 15.0096C19.6 17.4123 17.985 19.3672 16 19.3672Z" fill="#0088FF"/>
</svg>
