<svg width="16" height="32" viewBox="0 0 16 32" fill="none" xmlns="http://www.w3.org/2000/svg">
<path d="M15.9179 0.249037C15.8185 0.0941712 15.6435 0 15.4551 0H5.83679C5.60182 0 5.39329 0.145793 5.31947 0.361705L0.0276239 15.8342C-0.0273784 15.995 0.000740394 16.1716 0.103188 16.3089C0.205637 16.4461 0.36999 16.5274 0.54495 16.5274H4.65156L0.894145 31.3319C0.823013 31.581 0.948785 31.8433 1.19125 31.9515C1.26478 31.9843 1.34237 32 1.4191 32C1.59552 32 1.76677 31.9169 1.87096 31.7677L15.0323 12.9098C15.1452 12.7481 15.3767 12 14.7864 12H11.2443L15.9437 0.760965C16.0271 0.59752 16.0173 0.403902 15.9179 0.249037ZM9.28878 12.087C9.20537 12.2505 9.19544 12.7698 9.37819 12.9098C9.82126 13.249 10.0672 13.248 10.2527 13.2473C10.261 13.2473 10.2691 13.2473 10.2771 13.2473H11.1663H12.6769L3.56972 26.8571L6.27042 16.7166C6.27681 16.6942 6.2864 16.6638 6.29816 16.6266C6.36969 16.4 6.52147 15.9193 6.52147 15.4286C6.52147 14.8571 6.10128 14.8571 5.93112 14.8571H1.79867L6.51979 1.4654H13.8397L9.28878 12.087Z" fill="#0088FF"/>
<path d="M15.9179 0.249037C15.8185 0.0941712 15.6435 0 15.4551 0H5.83679C5.60182 0 5.39329 0.145793 5.31947 0.361705L0.0276239 15.8342C-0.0273784 15.995 0.000740394 16.1716 0.103188 16.3089C0.205637 16.4461 0.36999 16.5274 0.54495 16.5274H4.65156L0.894145 31.3319C0.823013 31.581 0.948785 31.8433 1.19125 31.9515C1.26478 31.9843 1.34237 32 1.4191 32C1.59552 32 1.76677 31.9169 1.87096 31.7677L15.0323 12.9098C15.1452 12.7481 15.3767 12 14.7864 12H11.2443L15.9437 0.760965C16.0271 0.59752 16.0173 0.403902 15.9179 0.249037ZM9.28878 12.087C9.20537 12.2505 9.19544 12.7698 9.37819 12.9098C9.82126 13.249 10.0672 13.248 10.2527 13.2473C10.261 13.2473 10.2691 13.2473 10.2771 13.2473H11.1663H12.6769L3.56972 26.8571L6.27042 16.7166C6.27681 16.6942 6.2864 16.6638 6.29816 16.6266C6.36969 16.4 6.52147 15.9193 6.52147 15.4286C6.52147 14.8571 6.10128 14.8571 5.93112 14.8571H1.79867L6.51979 1.4654H13.8397L9.28878 12.087Z" stroke="#0088FF"/>
</svg>
