<svg width="60" height="60" viewBox="0 0 60 60" fill="none" xmlns="http://www.w3.org/2000/svg">
<circle cx="30" cy="30" r="30" fill="#E9F1F8"/>
<path d="M43 25.3594C43 29.9158 39.3063 33.6094 34.75 33.6094C34.2241 33.6094 33.7098 33.5596 33.2112 33.4655L32.0857 34.7318C31.9801 34.8505 31.8506 34.9456 31.7057 35.0107C31.5608 35.0757 31.4037 35.1094 31.2448 35.1094H29.5V36.9844C29.5 37.6057 28.9963 38.1094 28.375 38.1094H26.5V39.9844C26.5 40.6057 25.9963 41.1094 25.375 41.1094H20.125C19.5037 41.1094 19 40.6057 19 39.9844V36.3254C19 36.027 19.1185 35.7408 19.3295 35.5298L26.914 27.9454C26.6457 27.1319 26.5 26.2627 26.5 25.3594C26.5 20.803 30.1936 17.1094 34.75 17.1094C39.3197 17.1093 43 20.7896 43 25.3594ZM34.75 23.1094C34.75 24.352 35.7573 25.3594 37 25.3594C38.2427 25.3594 39.25 24.352 39.25 23.1094C39.25 21.8667 38.2427 20.8594 37 20.8594C35.7573 20.8594 34.75 21.8667 34.75 23.1094Z" fill="#0088FF"/>
</svg>
