<svg width="60" height="60" viewBox="0 0 60 60" fill="none" xmlns="http://www.w3.org/2000/svg">
<circle cx="30" cy="30.001" r="30" fill="#E9F1F8"/>
<path d="M38.374 16.1094H22.624C21.1748 16.1094 19.999 17.2432 19.999 18.6406V40.5781C19.999 41.9756 21.1748 43.1094 22.624 43.1094H38.374C39.8232 43.1094 40.999 41.9756 40.999 40.5781V18.6406C40.999 17.2432 39.8232 16.1094 38.374 16.1094ZM27.874 17.7969H33.124C33.6053 17.7969 33.999 18.1766 33.999 18.6406C33.999 19.1047 33.6053 19.4844 33.124 19.4844H27.874C27.3928 19.4844 26.999 19.1047 26.999 18.6406C26.999 18.1766 27.3928 17.7969 27.874 17.7969ZM30.499 24.5469C32.4295 24.5469 33.999 26.0604 33.999 27.9219C33.999 29.7834 32.4295 31.2969 30.499 31.2969C28.5686 31.2969 26.999 29.7834 26.999 27.9219C26.999 26.0604 28.5686 24.5469 30.499 24.5469ZM36.624 37.0344C36.624 37.5934 36.0771 38.0469 35.399 38.0469H25.599C24.9209 38.0469 24.374 37.5934 24.374 37.0344V36.0219C24.374 34.3449 26.0201 32.9844 28.049 32.9844H28.3225C28.9951 33.2533 29.7279 33.4062 30.499 33.4062C31.2701 33.4062 32.0084 33.2533 32.6756 32.9844H32.949C34.9779 32.9844 36.624 34.3449 36.624 36.0219V37.0344Z" fill="#0088FF"/>
</svg>
