<svg width="60" height="60" viewBox="0 0 60 60" fill="none" xmlns="http://www.w3.org/2000/svg">
<circle cx="30" cy="30.0001" r="30" fill="#E9F1F8"/>
<path d="M24.2903 34.719H24.0961C23.386 34.9564 22.6361 35.1122 21.8435 35.1122C21.0508 35.1122 20.301 34.9564 19.5909 34.719H19.3967C16.2434 34.719 13.6875 37.1836 13.6875 40.2242C13.6875 41.5273 14.783 42.5837 16.1343 42.5837H27.5527C28.904 42.5837 29.9995 41.5273 29.9995 40.2242C29.9995 37.1836 27.4436 34.719 24.2903 34.719ZM43.8646 17.4166H24.2903C22.941 17.4166 21.8435 18.5103 21.8435 19.8542V22.1354C23.0373 22.1354 24.1425 22.4687 25.1059 23.0104V20.5625H43.049V34.719H29.3755C30.3492 35.5393 31.0638 36.6227 31.3987 37.8648H43.8646C45.2139 37.8648 46.3114 36.7712 46.3114 35.4273V19.8542C46.3114 18.5103 45.2139 17.4166 43.8646 17.4166ZM21.8435 33.146C24.5462 33.146 26.7371 31.0334 26.7371 28.4272C26.7371 25.821 24.5462 23.7084 21.8435 23.7084C19.1408 23.7084 16.9499 25.821 16.9499 28.4272C16.9499 31.0334 19.1408 33.146 21.8435 33.146ZM30.4567 25.6269C29.9791 25.1663 29.2043 25.1663 28.7266 25.6269L27.9747 26.3519C28.2133 27.0052 28.3683 27.6963 28.3683 28.4267C28.3683 28.7624 28.3183 29.0859 28.2653 29.4073L29.5917 28.1293L32.3968 30.8343C32.8745 31.2949 33.6493 31.2949 34.1269 30.8343L37.7971 27.2952L39.0358 28.4896C39.6138 29.047 40.6022 28.6523 40.6022 27.8639V23.5118C40.6022 23.1859 40.3285 22.9219 39.9905 22.9219H35.4772C34.6596 22.9219 34.2503 23.875 34.8283 24.4324L36.067 25.6269L33.2619 28.3318L30.4567 25.6269Z" fill="#0088FF"/>
</svg>
