<svg width="60" height="60" viewBox="0 0 60 60" fill="none" xmlns="http://www.w3.org/2000/svg">
<circle cx="30" cy="30" r="30" fill="#E9F1F8"/>
<g clip-path="url(#clip0)">
<path d="M37.7333 16.1743L35.8333 18.6243L33.1417 16.1743C33.005 16.0599 32.8382 15.998 32.6667 15.998C32.4952 15.998 32.3284 16.0599 32.1917 16.1743L29.5 18.6243L26.8083 16.1743C26.6716 16.0599 26.5048 15.998 26.3333 15.998C26.1618 15.998 25.995 16.0599 25.8583 16.1743L23.1667 18.6243L21.2667 16.1743C20.7422 15.7423 20 16.1525 20 16.8743V43.1243C20 43.8462 20.7422 44.2564 21.2667 43.8243L23.1667 41.3743L25.8583 43.8243C25.995 43.9388 26.1618 44.0007 26.3333 44.0007C26.5048 44.0007 26.6716 43.9388 26.8083 43.8243L29.5 41.3743L32.1917 43.8243C32.3284 43.9388 32.4952 44.0007 32.6667 44.0007C32.8382 44.0007 33.005 43.9388 33.1417 43.8243L35.8333 41.3743L37.7333 43.8243C38.2529 44.2564 39 43.8462 39 43.1243V16.8743C39 16.1525 38.2578 15.7423 37.7333 16.1743ZM35.8333 35.6868C35.8333 35.9275 35.6552 36.1243 35.4375 36.1243H23.5625C23.3448 36.1243 23.1667 35.9275 23.1667 35.6868V34.8118C23.1667 34.5712 23.3448 34.3743 23.5625 34.3743H35.4375C35.6552 34.3743 35.8333 34.5712 35.8333 34.8118V35.6868ZM35.8333 30.4368C35.8333 30.6775 35.6552 30.8743 35.4375 30.8743H23.5625C23.3448 30.8743 23.1667 30.6775 23.1667 30.4368V29.5618C23.1667 29.3212 23.3448 29.1243 23.5625 29.1243H35.4375C35.6552 29.1243 35.8333 29.3212 35.8333 29.5618V30.4368ZM35.8333 25.1868C35.8333 25.4275 35.6552 25.6243 35.4375 25.6243H23.5625C23.3448 25.6243 23.1667 25.4275 23.1667 25.1868V24.3118C23.1667 24.0712 23.3448 23.8743 23.5625 23.8743H35.4375C35.6552 23.8743 35.8333 24.0712 35.8333 24.3118V25.1868Z" fill="#0088FF"/>
</g>
<defs>
<clipPath id="clip0">
<rect x="20" y="16" width="19" height="28" fill="white"/>
</clipPath>
</defs>
</svg>
