<svg width="60" height="60" viewBox="0 0 60 60" fill="none" xmlns="http://www.w3.org/2000/svg">
<circle cx="30" cy="30" r="30" fill="#E9F1F8"/>
<path d="M43.6068 33.8814L41.1939 32.488C41.4375 31.174 41.4375 29.8259 41.1939 28.5119L43.6068 27.1185C43.8843 26.9599 44.0089 26.6314 43.9183 26.3255C43.2896 24.3091 42.2191 22.4853 40.8201 20.9673C40.6048 20.7351 40.2537 20.6785 39.9818 20.8371L37.5689 22.2304C36.555 21.3581 35.3882 20.6841 34.1252 20.2423V17.4613C34.1252 17.1441 33.9043 16.8665 33.5927 16.7986C31.514 16.3341 29.3843 16.3568 27.4076 16.7986C27.0961 16.8665 26.8752 17.1441 26.8752 17.4613V20.248C25.6177 20.6955 24.4509 21.3695 23.4314 22.2361L21.0242 20.8427C20.7466 20.6841 20.4011 20.7351 20.1859 20.973C18.7869 22.4853 17.7164 24.3091 17.0877 26.3312C16.9914 26.6371 17.1216 26.9656 17.3992 27.1242L19.8121 28.5175C19.5685 29.8316 19.5685 31.1796 19.8121 32.4937L17.3992 33.8871C17.1216 34.0456 16.997 34.3742 17.0877 34.68C17.7164 36.6964 18.7869 38.5203 20.1859 40.0382C20.4011 40.2705 20.7523 40.3271 21.0242 40.1685L23.4371 38.7751C24.4509 39.6474 25.6177 40.3214 26.8808 40.7632V43.5499C26.8808 43.8671 27.1017 44.1447 27.4132 44.2126C29.4919 44.6771 31.6216 44.6544 33.5984 44.2126C33.9099 44.1447 34.1308 43.8671 34.1308 43.5499V40.7632C35.3882 40.3158 36.555 39.6417 37.5746 38.7751L39.9875 40.1685C40.265 40.3271 40.6105 40.2761 40.8257 40.0382C42.2248 38.5259 43.2953 36.7021 43.924 34.68C44.0089 34.3685 43.8843 34.04 43.6068 33.8814ZM30.5002 35.0312C28.0023 35.0312 25.9689 32.9978 25.9689 30.4999C25.9689 28.0021 28.0023 25.9687 30.5002 25.9687C32.998 25.9687 35.0314 28.0021 35.0314 30.4999C35.0314 32.9978 32.998 35.0312 30.5002 35.0312Z" fill="#0088FF"/>
</svg>
