<svg width="60" height="60" viewBox="0 0 60 60" fill="none" xmlns="http://www.w3.org/2000/svg">
<circle cx="30" cy="30" r="30" fill="#E9F1F8"/>
<path d="M44.4728 30.7246L38.9573 28.5657C38.761 28.4889 38.3541 28.3882 37.8944 28.5657L32.379 30.7246C31.8667 30.9261 31.5315 31.3963 31.5315 31.9192C31.5315 37.2734 34.8207 40.9772 37.8944 42.1814C38.3541 42.3589 38.7562 42.2581 38.9573 42.1814C41.4134 41.2218 45.3202 37.8923 45.3202 31.9192C45.3202 31.3963 44.9851 30.9261 44.4728 30.7246ZM38.4259 39.9025V30.8302L42.9982 32.6197C42.7301 36.7984 40.0824 39.1157 38.4259 39.9025ZM25.4032 30.0002C28.7882 30.0002 31.5315 27.2512 31.5315 23.8592C31.5315 20.4673 28.7882 17.7183 25.4032 17.7183C22.0183 17.7183 19.2749 20.4673 19.2749 23.8592C19.2749 27.2512 22.0183 30.0002 25.4032 30.0002ZM29.9995 31.9192C29.9995 31.7993 30.0378 31.689 30.0521 31.5738C29.9324 31.569 29.8175 31.5354 29.6931 31.5354H28.8935C27.8306 32.0248 26.6481 32.3031 25.4032 32.3031C24.1584 32.3031 22.9806 32.0248 21.913 31.5354H21.1134C17.5609 31.5354 14.6787 34.4236 14.6787 37.9834V39.9793C14.6787 41.2506 15.7081 42.2821 16.9768 42.2821H33.8297C34.1552 42.2821 34.4664 42.2102 34.7489 42.0902C32.1635 40.032 29.9995 36.4914 29.9995 31.9192Z" fill="#0088FF"/>
</svg>
