<svg width="61" height="60" viewBox="0 0 61 60" fill="none" xmlns="http://www.w3.org/2000/svg">
<circle cx="30.957" cy="30.0001" r="30" fill="#E9F1F8"/>
<path d="M42.5948 21.704C42.8766 21.8111 43.1797 21.8751 43.5 21.8751C44.8807 21.8751 46 20.7838 46 19.4376C46 18.0914 44.8807 17.0001 43.5 17.0001C42.1193 17.0001 41 18.0914 41 19.4376C41 19.561 41.0193 19.6793 41.037 19.7977L36.0714 23.6707C35.7901 23.5636 35.4865 23.4996 35.1661 23.4996C34.8458 23.4996 34.5427 23.5636 34.2609 23.6707L29.2964 19.7982C29.3146 19.6798 29.3333 19.561 29.3333 19.4376C29.3333 18.0914 28.2141 17.0001 26.8333 17.0001C25.4526 17.0001 24.3333 18.0914 24.3333 19.4376C24.3333 19.6545 24.3719 19.8611 24.426 20.0612L19.1396 25.2155C18.9344 25.1627 18.7224 25.1251 18.5 25.1251C17.1193 25.1251 16 26.2164 16 27.5626C16 28.9088 17.1193 30.0001 18.5 30.0001C19.8807 30.0001 21 28.9088 21 27.5626C21 27.3458 20.9615 27.1391 20.9073 26.939L26.1937 21.7847C26.399 21.8375 26.6109 21.8751 26.8333 21.8751C27.1536 21.8751 27.4568 21.8111 27.7385 21.704L32.7042 25.5771C32.6859 25.6954 32.6672 25.8142 32.6672 25.9376C32.6672 27.2838 33.7865 28.3751 35.1672 28.3751C36.5479 28.3751 37.6672 27.2838 37.6672 25.9376C37.6672 25.8142 37.6479 25.6959 37.6302 25.5776L42.5948 21.704ZM36.8333 33.2501H33.5C33.0396 33.2501 32.6667 33.6137 32.6667 34.0626V42.1876C32.6667 42.6365 33.0396 43.0001 33.5 43.0001H36.8333C37.2937 43.0001 37.6667 42.6365 37.6667 42.1876V34.0626C37.6667 33.6137 37.2937 33.2501 36.8333 33.2501ZM45.1667 26.7501H41.8333C41.3729 26.7501 41 27.1137 41 27.5626V42.1876C41 42.6365 41.3729 43.0001 41.8333 43.0001H45.1667C45.6271 43.0001 46 42.6365 46 42.1876V27.5626C46 27.1137 45.6271 26.7501 45.1667 26.7501ZM28.5 26.7501H25.1667C24.7063 26.7501 24.3333 27.1137 24.3333 27.5626V42.1876C24.3333 42.6365 24.7063 43.0001 25.1667 43.0001H28.5C28.9604 43.0001 29.3333 42.6365 29.3333 42.1876V27.5626C29.3333 27.1137 28.9604 26.7501 28.5 26.7501ZM20.1667 34.8751H16.8333C16.3729 34.8751 16 35.2387 16 35.6876V42.1876C16 42.6365 16.3729 43.0001 16.8333 43.0001H20.1667C20.6271 43.0001 21 42.6365 21 42.1876V35.6876C21 35.2387 20.6271 34.8751 20.1667 34.8751Z" fill="#0088FF"/>
</svg>
