<svg width="60" height="61" viewBox="0 0 60 61" fill="none" xmlns="http://www.w3.org/2000/svg">
<circle cx="30" cy="30.1094" r="30" fill="#E9F1F8"/>
<path d="M38.75 28.0469H37.625V24.5312C37.625 20.4395 34.4281 17.1094 30.5 17.1094C26.5719 17.1094 23.375 20.4395 23.375 24.5312V28.0469H22.25C21.0078 28.0469 20 29.0967 20 30.3906V39.7656C20 41.0596 21.0078 42.1094 22.25 42.1094H38.75C39.9922 42.1094 41 41.0596 41 39.7656V30.3906C41 29.0967 39.9922 28.0469 38.75 28.0469ZM32.375 36.25C32.375 37.3291 31.5359 38.2031 30.5 38.2031C29.4641 38.2031 28.625 37.3291 28.625 36.25V33.9062C28.625 32.8271 29.4641 31.9531 30.5 31.9531C31.5359 31.9531 32.375 32.8271 32.375 33.9062V36.25ZM33.875 28.0469H27.125V24.5312C27.125 22.5928 28.6391 21.0156 30.5 21.0156C32.3609 21.0156 33.875 22.5928 33.875 24.5312V28.0469Z" fill="#0088FF"/>
</svg>
