<svg width="60" height="60" viewBox="0 0 60 60" fill="none" xmlns="http://www.w3.org/2000/svg">
<circle cx="30" cy="30.0001" r="30" fill="#E9F1F8"/>
<path d="M43.8375 37.2797C42.7333 37.2797 41.7389 37.7399 40.9931 38.4727L36.4722 35.7657C36.7323 35.0269 36.9 34.2396 36.9 33.4039C36.9 29.6553 34.0036 26.6213 30.425 26.6213C29.9394 26.6213 29.4653 26.688 29.0144 26.797L27.1528 22.6184C28.02 21.819 28.575 20.6624 28.575 19.3603C28.575 16.9501 26.7134 15.0001 24.4125 15.0001C22.1116 15.0001 20.25 16.9501 20.25 19.3603C20.25 21.7706 22.1116 23.7206 24.4125 23.7206C24.4645 23.7206 24.5166 23.7085 24.5686 23.7024L26.5053 28.0445C24.9617 29.2799 23.95 31.2117 23.95 33.4039C23.95 37.1525 26.8464 40.1865 30.425 40.1865C32.1998 40.1865 33.8128 39.4356 34.9806 38.2183L39.7328 41.0646C39.7097 41.2523 39.675 41.4461 39.675 41.6399C39.675 44.0501 41.5366 46.0001 43.8375 46.0001C46.1384 46.0001 48 44.0501 48 41.6399C48 39.2297 46.1384 37.2797 43.8375 37.2797ZM24.4125 20.8077C23.6494 20.8077 23.025 20.1537 23.025 19.3543C23.025 18.5549 23.6494 17.9009 24.4125 17.9009C25.1756 17.9009 25.8 18.5549 25.8 19.3543C25.8 20.1537 25.1756 20.8077 24.4125 20.8077ZM30.425 37.2797C28.3842 37.2797 26.725 35.5416 26.725 33.4039C26.725 31.2662 28.3842 29.5282 30.425 29.5282C32.4658 29.5282 34.125 31.2662 34.125 33.4039C34.125 35.5416 32.4658 37.2797 30.425 37.2797ZM43.8375 43.0933C43.0744 43.0933 42.45 42.4393 42.45 41.6399C42.45 40.8405 43.0744 40.1865 43.8375 40.1865C44.6006 40.1865 45.225 40.8405 45.225 41.6399C45.225 42.4393 44.6006 43.0933 43.8375 43.0933ZM40.6925 27.2754L39.5825 25.7251L36.8075 27.9052L37.9175 29.4555L40.6925 27.2754ZM44.3 26.6213C46.3408 26.6213 48 24.8833 48 22.7456C48 20.6079 46.3408 18.8698 44.3 18.8698C42.2592 18.8698 40.6 20.6079 40.6 22.7456C40.6 24.8833 42.2592 26.6213 44.3 26.6213ZM19.7875 34.3729H22.5625V32.435H19.7875V34.3729ZM14.7 29.5282C12.6592 29.5282 11 31.2662 11 33.4039C11 35.5416 12.6592 37.2797 14.7 37.2797C16.7408 37.2797 18.4 35.5416 18.4 33.4039C18.4 31.2662 16.7408 29.5282 14.7 29.5282Z" fill="#0088FF"/>
</svg>
