<svg width="471" height="367" viewBox="0 0 471 367" fill="none" xmlns="http://www.w3.org/2000/svg">
<mask id="mask0" mask-type="alpha" maskUnits="userSpaceOnUse" x="0" y="0" width="471" height="367">
<rect width="471" height="367" fill="#C4C4C4"/>
</mask>
<g mask="url(#mask0)">
<path opacity="0.05" d="M60.0687 188.817C57.8885 257.047 -9.85154 228.815 2.11814 289.007C16.5542 361.497 68.7527 361.292 100.488 336.313C179.542 274.16 208.401 356.997 289.994 360.788C350.962 363.694 345.61 274.924 416.119 289.007C481.724 302.101 473.523 192.125 422.896 170.762C356.273 142.712 313.672 227.51 250.28 158.199C194.352 96.996 78.6129 56.6908 60.0687 188.817Z" fill="url(#paint0_linear)"/>
<path d="M318.564 340.841H313.271L284.537 235.735H293.459L318.564 340.841Z" fill="#B8C3DE"/>
<path d="M189.414 340.841H194.707L223.592 235.735H214.669L189.414 340.841Z" fill="#B8C3DE"/>
<path d="M307.375 304.696H215.577V310.14H307.375V304.696Z" fill="#B8C3DE"/>
<path d="M228.886 304.696H122.117V310.14H228.886V304.696Z" fill="#DCE5F8"/>
<path d="M240.832 340.841H235.539L206.805 235.735H215.727L240.832 340.841Z" fill="#DAE3F8"/>
<path d="M111.68 340.841H116.974L145.859 235.735H136.936L111.68 340.841Z" fill="#DAE3F8"/>
<path d="M153.42 302.732L157.352 316.192C157.352 316.192 165.821 318.914 172.626 313.923C172.626 313.923 170.66 301.976 169.904 297.439" fill="#FFC5B4"/>
<path d="M228.582 231.805C227.977 234.073 225.86 235.586 223.44 235.586H121.964C115.461 235.586 112.588 227.57 114.251 221.672C114.403 221.219 114.554 220.765 114.856 220.16V220.009C120.603 205.491 132.55 184.016 149.791 172.673C172.324 157.853 200.151 152.257 215.274 135.773C216.333 134.563 217.391 133.353 218.299 132.143C220.113 130.026 222.533 127.304 225.104 125.035C227.524 122.918 229.943 122.011 233.422 122.464C238.11 124.884 240.227 131.387 242.193 148.023C245.218 171.615 232.514 218.194 228.582 231.805Z" fill="#CCD4E7"/>
<path d="M219.812 84.9592L197.429 97.3602C197.429 97.3602 192.59 101.595 194.707 107.644C196.673 113.693 202.571 115.206 207.864 112.937C213.157 110.669 236.749 99.175 236.749 99.175L237.203 86.9252" fill="#F7D9C7"/>
<path d="M267.449 69.985L253.687 86.0156L249.15 102.651L247.941 104.315L229.188 109.759C223.895 84.0496 218.148 85.5619 218.148 85.5619L235.54 76.7904C235.54 76.7904 252.78 68.019 257.014 68.4727C260.644 68.6239 267.449 69.985 267.449 69.985Z" fill="white"/>
<path d="M318.413 121.103C313.12 139.402 293.006 172.976 291.947 177.059C290.889 181.142 288.015 197.929 284.991 199.441C281.966 200.953 247.637 210.027 226.464 207.607C211.643 178.42 192.588 194.299 196.671 184.62C197.881 181.747 208.165 167.985 218.449 148.325C229.489 127.152 240.831 99.7795 242.343 95.3937C244.914 92.8228 241.89 84.9587 244.763 82.8415C257.618 73.6164 265.633 69.9868 267.599 69.9868L273.648 72.8603C295.123 78.1534 317.203 84.9588 318.564 89.4957C322.496 102.502 318.413 121.103 318.413 121.103Z" fill="white"/>
<path d="M127.711 214.411H212.552C218.45 214.411 223.138 219.1 223.138 224.998C223.138 230.896 218.45 235.584 212.552 235.584H127.711C121.813 235.584 117.125 230.896 117.125 224.998C117.125 219.251 121.813 214.411 127.711 214.411Z" fill="#CCD3E6"/>
<path fill-rule="evenodd" clip-rule="evenodd" d="M156.443 174.638C189.411 176.604 213.609 190.971 213.609 190.971L242.342 195.205L229.034 221.52L163.725 220.447C168.382 235.825 170.583 253.036 169.602 268.855C168.846 282.163 172.021 299.253 172.021 299.253C164.006 303.033 153.117 304.092 153.117 304.092C144.897 284.336 130.283 230.405 126.805 217.408C121.945 202.196 125.247 172.778 156.443 174.638Z" fill="#5783B9"/>
<path d="M296.787 155.884C296.787 155.884 305.861 150.893 314.633 135.619C322.194 122.613 299.812 124.277 299.812 124.277L290.889 130.931" fill="#F6D9C6"/>
<path d="M313.121 85.4106C313.121 85.4106 322.8 89.0402 326.127 100.987C329.454 112.935 318.263 139.4 318.263 139.4C318.263 139.4 301.476 137.585 289.529 129.721C289.529 129.721 292.856 111.12 298.905 100.836" fill="white"/>
<path d="M265.936 21.8948C265.936 21.8948 264.726 25.0706 264.424 27.7928C264.273 29.6076 264.726 32.1785 265.331 34.1445C265.634 35.3544 266.995 38.379 268.053 38.9839C272.137 40.95 270.473 25.6756 270.473 25.6756" fill="#0E2259"/>
<path d="M295.426 78.6059C295.578 78.9083 295.729 78.9084 295.729 78.9084C295.729 78.9084 283.933 89.0409 271.532 87.2261C258.072 85.2601 267.146 69.9857 267.146 69.9857C270.02 70.5906 271.229 71.0443 271.986 70.1369C271.986 69.9857 272.137 69.9857 272.137 69.8345C272.59 69.0783 273.044 67.8685 273.498 66.8098L275.161 59.8532C275.313 59.5507 275.313 59.2482 275.313 58.9458C276.069 54.1064 275.918 50.6281 275.918 50.6281L303.895 51.9891C297.846 58.1896 293.007 73.7665 293.158 74.5226C293.612 76.0349 294.368 77.396 295.426 78.6059Z" fill="#F9E1D2"/>
<path d="M294.67 57.7381C288.621 62.4263 282.42 71.5002 272.288 69.6854C272.741 68.9292 273.195 67.7194 273.498 66.6608L275.161 59.7041C275.312 59.4016 275.312 59.0992 275.312 58.7967C284.689 56.8307 299.963 53.5036 294.67 57.7381Z" fill="#FBD9C4"/>
<path d="M268.658 24.9168C268.053 26.2779 267.75 27.7902 267.448 29.4537C266.389 36.7128 262.911 62.1197 269.263 64.6906C276.673 67.7153 288.318 62.5734 293.913 58.3389C304.651 50.3237 307.978 48.2064 307.373 34.7468C306.617 15.8429 276.219 6.3153 268.658 24.9168Z" fill="#F9E1D2"/>
<path d="M306.466 18.1123C307.071 15.0877 307.374 6.46749 294.216 5.25764C285.445 4.50148 262.307 11.6094 261.853 12.3655C261.55 12.9704 262.155 13.5754 264.121 14.1803C263.365 14.3315 262.609 14.634 261.853 14.7852C256.106 16.4488 258.526 21.4394 263.516 24.464C266.844 26.43 273.649 28.5473 281.211 26.8838C280.152 27.3374 278.942 27.7911 277.732 28.0936C277.732 28.0936 281.664 29.001 285.596 27.9424C285.143 29.9084 284.84 32.4793 285.596 34.899C287.109 39.436 289.226 41.8557 289.377 44.7291L291.494 43.9729C291.494 43.9729 292.855 37.1675 298.602 38.9823C304.349 40.6458 299.963 55.4665 301.173 55.6177C302.383 55.769 308.735 47.4512 311.154 37.0163C313.423 27.7911 313.423 20.6833 306.466 18.1123Z" fill="#0E2259"/>
<path d="M254.444 84.9592C254.444 84.9592 262.006 86.3203 265.635 90.5548C269.265 94.7893 273.651 104.317 276.978 109.61C280.305 114.903 297.545 129.573 301.78 139.1C306.014 148.628 299.209 157.248 289.681 158.609C280.153 159.97 276.221 143.94 270.777 131.085C265.484 118.23 264.728 107.946 258.074 101.746" fill="#F5D2BC"/>
<path d="M262.306 107.793C262.457 107.34 262.608 106.886 262.457 106.432L246.275 37.3194C246.124 36.4121 245.217 35.8071 244.309 35.8071H203.477C202.872 35.8071 202.267 36.1096 201.964 36.5633L201.057 37.9244H201.511C201.511 38.0756 201.511 38.0756 201.511 38.2268L217.693 107.34C217.844 108.247 218.751 108.852 219.659 108.852H260.491C260.642 108.852 260.794 108.852 260.945 108.852L261.247 109.306L262.003 108.096C262.003 108.096 262.003 107.945 262.155 107.945L262.306 107.793Z" fill="#D7DEF1"/>
<path d="M259.584 110.212H218.751C217.844 110.212 217.088 109.607 216.785 108.7L200.603 39.5873C200.301 38.3774 201.208 37.1676 202.569 37.1676H243.402C244.309 37.1676 245.065 37.7725 245.368 38.6799L261.55 107.793C261.852 109.003 260.945 110.212 259.584 110.212Z" fill="url(#paint1_linear)"/>
<path d="M236.597 73.6152C236.597 75.43 233.875 76.9423 230.397 76.9423C227.069 76.9423 224.196 75.43 224.196 73.6152C224.196 71.8004 226.918 70.2881 230.397 70.2881C233.875 70.2881 236.597 71.8004 236.597 73.6152Z" fill="#CDD7F2"/>
<path d="M194.405 106.432C194.405 106.432 192.137 99.173 194.859 92.9725C197.581 86.772 202.572 74.8247 202.572 74.8247C202.572 74.8247 206.504 73.4636 209.226 76.0346C210.889 83.4449 214.519 98.8705 214.519 98.8705" fill="#F7DAC7"/>
<path d="M202.267 68.6225C202.267 68.4719 202.116 68.3213 202.116 68.1707C202.116 68.1707 202.116 68.1707 202.116 68.3213C202.267 68.3213 202.267 68.4719 202.267 68.6225Z" fill="#FFC5B4"/>
<path d="M201.512 77.3955C201.512 77.3955 202.873 72.8585 202.722 71.6487C202.722 70.59 203.327 67.7166 203.327 66.9605C203.327 66.2043 206.2 63.3309 206.2 63.3309L206.805 66.2043L211.493 64.3896C211.493 64.3896 215.879 63.9359 217.24 63.3309C218.147 63.0285 219.66 63.4822 217.996 65.1457C217.391 65.7507 213.308 67.1117 213.308 67.1117L207.712 70.5901L208.922 76.0344" fill="#F7DAC7"/>
<path d="M207.259 70.1359L214.518 66.6576L220.719 64.6915C220.719 64.6915 221.778 64.8428 220.87 66.3551C220.114 67.7162 216.031 69.531 216.031 69.531L207.562 73.7654" fill="#F7DAC7"/>
<path d="M205.898 72.5574L213.157 69.0791C213.157 69.0791 217.542 68.1717 218.904 67.718C219.206 67.5667 220.416 67.2643 219.962 68.7766C219.509 69.9865 214.669 71.8012 214.669 71.8012L206.2 76.0357" fill="#F7DAC7"/>
<path d="M205.898 75.1264L213.157 71.6481L216.938 70.8919C216.938 70.8919 217.996 70.4382 217.996 71.7993C217.996 73.1604 214.669 74.5215 214.669 74.5215L206.2 78.756" fill="#F7DAC7"/>
<path d="M214.064 74.8259C214.064 74.8259 212.703 75.8845 212.25 77.0943C211.796 78.3042 211.04 79.514 209.679 82.2362C208.318 84.9584 206.957 82.5387 206.957 81.9338C206.957 81.3288 206.503 75.582 206.654 75.4308C206.805 75.2795 208.62 73.7672 208.62 73.7672" fill="#F7DAC7"/>
<path d="M127.106 223.788L121.813 235.735C115.31 235.735 112.437 227.72 114.1 221.822C114.251 221.368 114.403 220.915 114.705 220.31V220.159C117.427 214.26 122.418 213.656 122.418 213.656L127.106 223.788Z" fill="#CCD3E6"/>
<path d="M171.264 333.129C171.113 333.129 170.961 333.281 170.659 333.281C170.659 333.281 168.239 333.281 166.576 333.734C165.063 334.188 159.014 340.54 152.662 340.842C152.36 340.842 152.209 340.842 151.906 340.842H151.755C150.092 340.842 148.277 340.842 146.462 340.842H138.144C136.783 340.842 135.573 339.784 135.573 338.422C135.422 336.305 135.876 332.827 139.052 329.651C141.471 327.231 148.125 323.904 151.906 320.577C154.326 318.46 154.628 315.889 154.628 315.435C154.628 314.377 154.78 312.411 154.78 312.411C154.78 312.411 156.443 310.445 160.526 310.293C164.458 309.991 168.088 313.016 170.054 313.167C172.02 313.318 172.171 311.201 172.171 311.201C172.171 311.201 173.381 311.655 175.196 314.225C177.011 316.796 176.557 321.938 177.162 323.753C177.767 325.568 178.069 325.87 178.523 327.08C178.825 328.29 175.196 331.617 171.264 333.129Z" fill="#0E2259"/>
<path d="M185.553 197.126L177.841 203.78C177.841 203.78 176.782 209.376 178.899 214.669C181.016 219.962 188.427 216.937 188.427 216.937C188.427 216.937 195.535 209.678 198.106 207.863" fill="#F7D9C7"/>
<path d="M280.757 172.975C280.757 172.975 283.328 156.491 280.001 143.182C276.976 131.084 269.263 128.815 256.56 132.596C238.714 138.04 228.733 151.197 216.937 163.145C203.024 177.209 189.413 194.298 185.481 196.869C185.481 196.869 191.076 207.758 197.428 210.934L229.036 195.811" fill="url(#paint2_linear)"/>
<path d="M182.153 200.953C182.153 200.953 178.523 203.978 178.977 204.885C179.733 206.549 186.085 205.944 188.504 207.153C193.344 209.271 193.949 213.505 191.831 216.227C188.504 220.462 184.572 222.579 179.43 226.36C174.288 230.141 172.625 231.048 170.054 236.341C167.634 241.785 162.039 243.449 159.014 242.239C153.721 240.122 148.125 234.678 149.789 225.755C151.452 216.984 159.921 213.808 163.551 212.144C167.029 210.481 171.264 205.339 174.137 203.221C180.489 198.685 182.153 200.953 182.153 200.953Z" fill="#0E2259"/>
<path d="M211.342 235.735C207.864 235.735 205.293 232.408 206.2 229.081C209.527 216.529 222.836 187.038 244.159 172.974C272.44 154.372 309.038 150.289 318.565 121.102C318.565 121.102 333.537 120.648 336.864 148.323C339.738 171.764 327.034 218.343 323.102 231.954C322.497 234.223 320.38 235.735 317.96 235.735H211.342Z" fill="#C7CFE4"/>
<path opacity="0.35" d="M330.563 366.342H43.1306L179.426 -27.7191H209.411L330.563 366.342Z" fill="url(#paint3_linear)"/>
</g>
<defs>
<linearGradient id="paint0_linear" x1="132.929" y1="6.32736" x2="451.227" y2="203.735" gradientUnits="userSpaceOnUse">
<stop stop-color="#0071F7"/>
<stop offset="1" stop-color="#9DCFFF"/>
</linearGradient>
<linearGradient id="paint1_linear" x1="228.098" y1="66.1162" x2="261.616" y2="65.567" gradientUnits="userSpaceOnUse">
<stop stop-color="#DEE5F4"/>
<stop offset="1" stop-color="#F4F6FB"/>
</linearGradient>
<linearGradient id="paint2_linear" x1="185.481" y1="140.773" x2="246.401" y2="220.596" gradientUnits="userSpaceOnUse">
<stop stop-color="#055A9C"/>
<stop offset="1" stop-color="#7C83C0"/>
</linearGradient>
<linearGradient id="paint3_linear" x1="186.843" y1="-20.1333" x2="186.843" y2="342.778" gradientUnits="userSpaceOnUse">
<stop stop-color="white"/>
<stop offset="1" stop-color="white" stop-opacity="0"/>
</linearGradient>
</defs>
</svg>
