<?xml version="1.0" standalone="no"?>
<!DOCTYPE svg PUBLIC "-//W3C//DTD SVG 20010904//EN"
 "http://www.w3.org/TR/2001/REC-SVG-20010904/DTD/svg10.dtd">
<svg version="1.0" xmlns="http://www.w3.org/2000/svg"
 width="700.000000pt" height="700.000000pt" viewBox="0 0 700.000000 700.000000"
 preserveAspectRatio="xMidYMid meet">
<metadata>
Created by potrace 1.11, written by Peter Selinger 2001-2013
</metadata>
<g transform="translate(0.000000,700.000000) scale(0.100000,-0.100000)"
fill="#000000" stroke="none">
<path d="M3230 6989 c-703 -57 -1372 -321 -1915 -756 -141 -112 -371 -337
-490 -478 -214 -254 -391 -537 -523 -835 -423 -960 -399 -2046 68 -2981 180
-359 371 -622 669 -919 396 -394 843 -670 1361 -840 375 -124 694 -174 1100
-174 258 0 353 7 580 45 983 162 1855 747 2392 1604 89 141 214 389 277 547
483 1216 253 2595 -600 3583 -96 112 -306 318 -419 412 -687 572 -1610 864
-2500 792z m-1332 -1359 c105 -25 1937 -512 2052 -545 47 -13 222 -61 390
-105 339 -91 367 -98 630 -169 102 -27 228 -61 280 -74 704 -188 718 -192 800
-277 27 -28 64 -81 82 -118 32 -64 33 -72 33 -183 l0 -116 -40 -77 c-38 -72
-118 -154 -1529 -1571 -1424 -1430 -1492 -1497 -1560 -1531 -211 -104 -479
-12 -576 198 -28 60 -185 641 -839 3093 -144 539 -264 1003 -268 1030 -17 154
85 337 228 411 109 56 190 64 317 34z"/>
<path d="M3330 4784 c-437 -54 -790 -292 -977 -660 -86 -169 -130 -333 -140
-528 -11 -211 28 -390 127 -591 200 -403 567 -662 1003 -706 286 -28 608 64
862 246 76 55 220 202 272 280 92 137 171 327 209 500 24 110 24 350 0 460
-81 366 -277 639 -603 837 -172 104 -363 158 -578 163 -77 2 -156 1 -175 -1z
m308 -360 c361 -74 639 -357 707 -719 22 -117 16 -297 -15 -405 -46 -165 -138
-312 -270 -432 -164 -150 -371 -228 -604 -228 -236 0 -442 82 -614 245 -123
116 -191 224 -248 395 -27 80 -28 95 -28 260 0 165 1 180 28 260 83 249 242
438 461 547 172 86 396 116 583 77z"/>
</g>
</svg>
