<svg width="253" height="269" viewBox="0 0 253 269" fill="none" xmlns="http://www.w3.org/2000/svg">
<g opacity="0.54" filter="url(#filter0_f)">
<ellipse cx="126.5" cy="222.5" rx="107.5" ry="12.5" fill="#0378D9"/>
</g>
<path d="M31.1701 49.1115C31.0131 48.1521 30.856 47.1475 30.1755 46.38C24.2318 34.6204 18.9765 37.2019 27.6892 47.8508C25.7786 49.4987 24.1233 46.7455 23.0827 45.023C18.0332 36.6649 10.2533 34.998 8.09806 42.1806C7.26691 43.7478 11.8766 50.4783 15.9636 51.3125C18.437 52.3057 21.1982 53.1861 23.0827 54.9808C24.3259 56.1546 27.2442 66.1421 27.2442 67.5191C27.4143 67.7674 28.3303 63.1414 28.6182 63.2768C32.92 68.734 36.0978 72.0436 32.3642 67.5191C38.8813 63.9298 32.06 54.3826 31.1701 49.1115Z" fill="#FFE1DF"/>
<path d="M48.5965 84.0691C47.6755 72.918 46.7458 71.9465 42.1294 66.0433C39.9171 63.2103 38.2836 62.0273 31.0765 61.1775C21.1938 60.0122 12.5929 70.8009 12.7622 71.512C12.7622 83.0628 26.1877 99.3464 38.5663 112.677C47.7106 121.41 50.9282 121.841 59.2581 121.74C68.1636 121.627 68.2531 120.378 81.7356 117.097C86.6229 117.04 98.5537 106.771 101.669 103.001C105.258 98.6444 110.065 92.1411 109.421 86.6781C111.903 79.5881 108.757 80.1007 98.7011 82.5485C81.7356 86.6781 65.286 109.431 57.7743 102.799C56.6539 101.435 54.7827 101.258 53.5851 97.5385C52.8243 95.1761 51.952 96.4375 50.6319 91.9593C49.999 89.8122 48.8206 86.7824 48.5965 84.0691Z" fill="white"/>
<path d="M32.2301 102.786C27.9751 95.9302 21.6003 89.4378 18.2902 80.1948C14.2313 66.1353 26.6283 63.3765 22.6891 63.0266C13.4662 61.6788 12.7035 70.8009 12.8728 71.512C12.8728 83.0628 26.0571 99.6915 38.4357 113.022C47.5799 121.756 51.0388 121.841 59.3687 121.74C68.2742 121.627 79.7346 119.47 85.2388 116.396C89.1835 114.608 91.4769 112.635 91.4769 112.222C90.6513 111.901 88.4873 114.686 88.1744 112.222C87.8636 109.776 86.9849 112.127 84.5508 114.378C81.2189 117.46 78.8172 117.097 70.515 118.782C60.0054 120.089 58.5084 120.354 51.8443 118.105C50.0266 117.492 46.7453 120.5 44.1341 116.396C42.9324 114.508 36.2207 109.215 32.2301 102.786Z" fill="#E1F2FF"/>
<path d="M106.651 239.838C101.978 242.107 98.7829 244.141 93.2457 246.287C89.3104 248.315 83.7462 249.641 81.0035 249.675C73.2001 250.449 68.1183 243.902 75.1709 237.743C77.6653 235.564 83.9301 231.971 86.9663 230.65C91.4473 228.709 88.9641 232.456 90.5218 235.447C92.3051 238.89 93.558 238.743 96.7861 237.084C100.94 234.951 103.592 232.535 108.491 232.569C109.845 232.581 117.742 228.637 118.329 229.856C118.781 230.782 121.423 235.447 117.808 237.743C117.142 238.522 112.749 236.516 108.898 238.441C108.13 238.825 107.419 239.466 106.651 239.838Z" fill="url(#paint0_linear)"/>
<path d="M70.6355 209.159C71.5836 200.942 75.7034 194.419 83.311 190.852C89.485 187.951 96.4153 187.274 103.176 186.405C118.233 184.475 132.602 182.544 147.806 183.143C159.962 183.617 167.457 193.99 173.145 204.227C176.735 210.672 175.73 213.697 171.226 219.092C167.061 224.07 162.016 228.302 156.373 231.508C145.198 237.851 128.042 236.282 115.728 234.917C104.113 233.619 92.747 230.154 82.3854 224.747C75.726 221.271 69.71 217.162 70.6355 209.159Z" fill="#4E6989"/>
<path d="M175.057 216.289C181.568 214.34 194.945 209.354 204.891 204.306C233.667 189.703 219.83 176.093 213.532 170.653C198.115 165.631 179.852 183.186 169.883 187.707C158.156 195.349 141.073 207.998 129.737 213.924C125.527 216.125 112.385 216.289 112.385 216.289C111.944 217.903 119.123 235.545 121.177 235.534C143.526 235.398 158.696 221.186 175.057 216.289Z" fill="#C7CFE4"/>
<path d="M146.034 234.138C148.054 238.856 149.815 243.687 151.316 248.608C152.107 251.204 153.856 252.566 153.856 256.009C156.846 266.399 149.614 275.475 140.808 261.69C138.788 259.116 138.411 256.459 137.26 253.388C135.567 248.862 137.896 251.272 140.921 249.883C144.409 248.281 144.318 247.039 142.84 243.777C140.932 239.567 138.675 236.835 138.946 231.993C139.025 230.661 139.397 229.104 140.628 228.585C141.564 228.189 142.682 228.573 143.427 229.262C144.172 229.95 144.612 230.898 145.03 231.824C145.368 232.58 145.707 233.359 146.034 234.138Z" fill="url(#paint1_linear)"/>
<path d="M123.836 76.6506C118.113 75.8831 111.785 78.8409 106.988 80.9403C102.925 82.7123 102.993 87.8367 102.09 91.7195C86.0511 111.121 97.3378 124.933 95.5657 137.992C94.7192 144.234 88.5423 162.953 88.5762 169.262C88.61 174.319 82.3937 168.173 81.9986 173.331C81.7051 177.293 85.6218 174.86 81.9986 176.474C80.1701 177.287 84.1657 175.673 82.3259 176.474C80.4974 177.276 78.9285 179.432 79.8541 181.204C80.2943 182.05 81.1634 182.558 81.9986 183.021C86.5247 185.538 91.0509 188.066 95.5657 190.583C99.0196 192.514 100.358 192.547 104.082 193.891C109.354 195.787 117.722 198.412 123.321 198.694C137.78 199.428 141.076 200.977 155.038 197.128C163.826 191.87 165.879 191.52 164.051 183.021C162.177 174.274 161.259 175.723 157.353 167.72C149.992 158.665 150.148 156.874 147.731 151.501C141.655 137.992 155.964 126.734 150.049 94.1236C148.356 89.5185 149.376 86.1778 141.816 82.2103C136.353 79.3433 129.773 77.4407 123.836 76.6506Z" fill="white"/>
<path d="M97.1959 239.123C95.8175 239.22 94.4271 239.318 93.0486 239.431C91.5504 239.544 89.8723 239.577 88.7456 238.217C87.3792 236.549 87.535 233.425 88.6377 231.433C89.7404 229.458 91.5264 228.39 93.2764 227.629C97.5075 225.8 101.966 225.233 106.401 225.006C106.845 224.99 107.3 224.974 107.72 225.184C108.439 225.573 108.846 226.593 109.086 227.597C111.603 237.909 102.566 238.735 97.1959 239.123Z" fill="#FFE1DF"/>
<path d="M148.064 249.045C148.131 249.62 148.199 250.241 147.951 250.772C147.77 251.155 147.443 251.449 147.082 251.675C144.395 253.39 138.848 253.198 136.782 250.772C134.728 248.334 135.264 243.593 132.645 241.787C126.641 237.645 132.138 230.071 138.413 231.809C145.738 233.841 147.285 242.645 148.064 249.045Z" fill="#FFE1DF"/>
<path d="M68.4873 211.074C63.2953 207.259 47.7836 197.981 41.4914 190.431C24.7299 170.319 35.3544 164.465 46.873 161.847C54.859 160.032 79.0876 177.326 84.9118 182.563C96.831 193.275 109.78 204.982 122.478 214.78C126.767 218.087 141.709 228.062 141.709 228.062C142.115 229.777 134.708 244.25 132.586 243.686C116.501 231.686 92.8361 221.131 68.4873 211.074Z" fill="#C7CFE4"/>
<path d="M43.9658 193.55C37.9376 187.729 34.0048 179.518 32.7919 176.14C31.3101 172.012 33.6258 168.053 36.0638 166.078C37.898 164.593 41.3001 162.509 42.0126 164.014C38.3259 166.065 37.0718 168.915 38.8204 176.14C42.0138 189.334 68.7258 210.317 72.1039 211.616C75.482 212.915 112.817 228.024 117.234 231.143C120.768 233.637 129.921 241.242 135.298 241.242L134.108 243.096L132.674 243.726C128.862 241.301 119.063 235.802 115.945 233.307C112.047 230.189 83.7227 218.236 80.3446 217.976C76.9665 217.716 65.0133 211.48 62.4147 208.621C59.8162 205.763 51.5009 200.826 43.9658 193.55Z" fill="#DCE2F2"/>
<path d="M72.7992 190.243L68.6289 159.939L159.423 162.508L161.43 193.618L72.7992 190.243Z" fill="#A1C4FF"/>
<g opacity="0.33">
<path d="M115.175 167.974L108.351 168.162C108.292 168.164 108.234 168.225 108.236 168.284L108.424 175.108C108.427 175.227 108.488 175.285 108.547 175.283L110.209 175.237C110.268 175.236 110.326 175.175 110.324 175.115L110.254 172.564C110.251 172.445 110.368 172.382 110.429 172.44L116.044 175.789C116.164 175.845 116.279 175.723 116.217 175.606L112.623 170.182C112.562 170.125 112.618 170.004 112.737 170.001L115.229 169.932C115.348 169.929 115.406 169.868 115.402 169.749L115.357 168.088C115.355 168.029 115.294 167.971 115.175 167.974Z" fill="#FAFCFF"/>
</g>
<g opacity="0.33">
<path d="M124.919 174.751L124.827 167.925C124.826 167.866 124.766 167.807 124.707 167.808L117.821 167.901C117.762 167.902 117.703 167.962 117.704 168.021L117.727 169.683C117.727 169.742 117.788 169.801 117.847 169.8L120.34 169.767C120.459 169.765 120.52 169.883 120.461 169.943L117.093 175.569C117.036 175.689 117.156 175.806 117.274 175.745L122.747 172.168C122.806 172.108 122.925 172.166 122.927 172.285L122.96 174.778C122.961 174.837 123.021 174.896 123.081 174.895L124.743 174.873C124.862 174.93 124.921 174.87 124.919 174.751Z" fill="#FAFCFF"/>
</g>
<g opacity="0.33">
<path d="M118.118 184.745L124.944 184.675C125.003 184.674 125.062 184.614 125.062 184.555L124.991 177.669C124.99 177.61 124.93 177.551 124.871 177.552L123.209 177.569C123.149 177.569 123.091 177.629 123.091 177.689L123.117 180.182C123.118 180.3 123 180.361 122.94 180.302L117.325 176.917C117.206 176.859 117.088 176.979 117.149 177.097L120.708 182.581C120.768 182.64 120.709 182.759 120.591 182.76L118.098 182.786C118.038 182.787 117.979 182.847 117.98 182.906L117.998 184.627C117.998 184.687 118.058 184.745 118.118 184.745Z" fill="#FAFCFF"/>
</g>
<g opacity="0.33">
<path d="M108.761 177.997L108.961 184.88C108.962 184.94 109.023 184.997 109.083 184.996L115.907 184.798C115.966 184.796 116.024 184.735 116.022 184.676L115.974 183.014C115.972 182.955 115.911 182.897 115.852 182.899L113.359 182.971C113.241 182.975 113.178 182.858 113.236 182.797L116.576 177.177C116.632 177.056 116.51 176.941 116.393 177.004L110.976 180.665C110.919 180.726 110.798 180.67 110.795 180.551L110.723 178.059C110.721 178 110.66 177.942 110.601 177.944L108.88 177.994C108.817 177.877 108.759 177.938 108.761 177.997Z" fill="#FAFCFF"/>
</g>
<path d="M154.157 179.389C153.651 179.696 151.902 181.534 150.918 181.971C150.859 182.363 147.751 183.47 147.932 183.821C147.635 184.592 147.41 186.244 151.9 185.525C154.833 185.055 156.607 183.425 157.047 182.356C158.002 184.078 155.985 188.487 154.503 189.763C153.021 191.038 152.481 191.507 150.613 192.93C149.429 193.832 148.083 194.681 148.775 197.552C151.44 200.796 160.101 200.309 163.372 193.784C164.433 192.188 166.176 188.611 166.821 186.797C167.989 183.511 166.261 180.175 167.44 176.89C165.049 174.987 166.821 169.461 159.991 173.988C157.624 174.755 156.485 177.974 154.157 179.389Z" fill="#FFE1DF"/>
<path d="M180.457 131.458C184.148 138.602 188.767 147.594 189.004 155.63C189.241 163.678 196.15 172.155 180.457 178.553C170.715 185.4 154.349 173.865 156.382 170.32C150.202 159.046 166.466 149.794 170.305 140.655C167.884 136.746 150.039 123.355 147.127 112.342C145.117 109.486 142.662 103.703 141.071 100.599C140.145 98.7929 142.767 97.806 142.338 96.1468C140.03 94.5713 143.402 92.5623 143.774 91.4448C144.373 89.6389 134.226 82.5535 142.338 82.5533C144.291 81.8987 155.211 90.0565 156.734 91.4448C162.164 96.4225 168.071 104.48 170.305 112.342C175.582 123.72 176.293 123.399 180.457 131.458Z" fill="white"/>
<path d="M155.336 126.352C150.213 120.644 143.957 106.971 141.213 100.873C143.835 101.848 149.19 105.446 149.629 112.033C150.178 120.266 156.476 123.568 162.331 130.521C168.186 137.473 173.048 141.306 173.231 143.867C173.414 146.428 171.864 147.899 166.558 150.643C161.252 153.388 158.247 158.172 156.689 162.947C155.187 167.552 159.109 175.668 156.182 173.107C153.84 171.058 153.665 165.509 154.641 162.947C154.641 158.606 162.313 148.125 166.558 145.344C171.864 141.868 168.657 140.391 168.108 139.476C167.559 138.561 161.74 133.488 155.336 126.352Z" fill="#E1F2FF"/>
<path d="M131.63 78.8225C131.427 79.0596 131.19 79.2853 130.919 79.4772C129.779 80.3011 128.346 80.5946 126.968 80.8768C125.174 81.238 123.3 81.5879 121.539 81.0799C115.828 79.4207 120.919 75.1375 121.539 71.0854C117.837 69.7197 111.054 62.1514 110.489 57.8172C110.309 56.4514 110.546 55.0518 110.794 53.6748C111.787 47.9974 112.769 42.3199 113.763 36.6425C114.101 34.6786 114.462 32.6582 115.456 30.9538C117.194 27.974 120.467 26.597 123.56 25.9197C131.449 24.1928 139.983 25.8633 145.965 31.4392C147.556 32.9178 148.99 34.7237 149.656 36.9247C150.694 40.3334 149.791 44.1372 148.888 47.6813C148.053 50.9546 147.229 54.2279 146.394 57.5124C145.434 61.2823 146.472 64.3754 143.199 65.8653C141.46 66.6554 137.605 69.4596 136.025 70.6109C132.729 73.0151 133.808 76.2039 131.63 78.8225Z" fill="#FFE1DF"/>
<path d="M122.248 30.6406C122.011 30.9115 121.796 31.2049 121.605 31.521C120.645 33.1576 120.656 35.2118 119.708 36.8598C118.207 39.4558 114.618 40.4829 113.534 43.2822C112.654 45.5734 113.816 48.1582 113.478 50.5849C113.094 53.2374 110.916 55.3819 110.656 58.0344C110.43 60.3257 111.22 63.7796 112.202 65.8564C111.898 65.213 108.094 64.6487 107.236 63.8586C105.927 62.6396 105.87 62.0301 105.735 60.3821C105.599 58.7455 106.254 57.2895 105.882 55.5625C105.43 53.4406 103.974 51.6685 103.794 49.4675C103.534 46.4651 105.645 43.7788 106.119 40.8103C106.841 36.3067 103.827 31.3178 106.085 27.356C107.405 25.0309 110.148 23.9247 111.965 21.9608C113.342 20.4709 112.967 18.416 114.05 16.7004C115.145 14.9847 117.914 13.4954 119.934 13.3261C121.605 14.1382 123.481 10.3226 124.61 10.3339C127.405 8.39298 130.898 8.95178 132.84 8.70346C139.827 9.24685 137.357 15.8252 138.43 18.331C139.491 20.8142 136.82 22.2768 134.89 23.8909C131.695 26.5659 125.092 27.4124 122.248 30.6406Z" fill="#1A3151"/>
<path d="M161.795 24.4126C163.116 25.8686 164.866 27.0764 166.017 28.6904C168.263 31.8395 167.947 36.1061 167.281 39.9098C166.694 43.3073 167.563 46.6031 166.491 50.0457C165.769 52.3595 164.279 54.5492 162.078 55.5538C159.335 56.8067 155.52 56.3326 153.894 58.8835C152.134 61.6488 154.47 66.0508 152.066 68.2631C150.734 69.4934 148.657 69.2902 146.975 69.9562C145.102 70.7011 143.86 72.4506 142.506 73.9405C141.151 75.4304 139.289 76.83 137.302 76.4688C137.833 73.4439 138.217 71.0397 140.056 68.5566C141.129 67.1005 143.928 64.5948 142.585 62.518C141.806 60.8587 142.201 59.2819 142.506 57.476C146.637 55.5915 142.472 54.4398 143.081 53.8303C145.429 51.4713 144.604 52.3173 143.995 49.044C143.385 45.7707 143.594 46.5262 140.614 44.0028C137.51 41.6438 139.937 42.5318 135.493 39.9098C127.286 36.7182 127.18 26.0605 124.675 24.4126C122.429 22.9227 124.203 24.2546 123.763 21.7714C123.435 19.9655 127.347 17.3694 128.69 15.6877C129.751 14.3558 131.343 13.5657 132.878 12.8207C136.083 11.2631 139.65 9.66033 143.081 10.6197C144.989 11.1502 146.626 12.4257 148.544 12.9223C149.82 13.2609 151.163 13.2271 152.461 13.4415C154.685 13.814 156.874 14.954 158.387 16.6245C159.922 18.3063 159.594 19.6833 160.215 21.7714C160.497 22.7873 161.084 23.6338 161.795 24.4126Z" fill="#1A3151"/>
<path d="M152.52 11.2832C152.599 9.11606 153.367 6.42973 155.511 6.12498C156.685 5.95567 157.825 6.63289 159.01 6.63289C161.539 6.63289 162.961 3.85626 164.665 1.9826C164.925 1.70042 165.207 1.42952 165.58 1.33923C166.11 1.22636 166.629 1.51983 167.137 1.70042C169.496 2.47924 171.81 0.470121 174.259 0.0637846C177.296 -0.432849 180.479 2.03903 180.749 5.09784C180.862 6.362 180.535 7.62616 180.625 8.87903C180.975 13.9808 187.646 17.4685 186.811 22.5252C186.246 25.9339 184.136 30.0806 184.802 33.478C185.22 35.6451 186.694 38.5216 185.972 40.6097C185.498 41.9529 184.66 49.6899 175.475 47.6736C174.086 47.3689 171.293 44.2963 171.898 40.6097C170.521 38.815 174.62 33.2164 173.345 31.354C172.07 29.4916 171.347 27.9769 169.101 27.8075C166.923 27.6495 164.665 28.9137 162.622 28.1349C160.986 27.5141 160.038 25.7533 158.457 24.9858C156.979 24.2747 155.241 24.5569 153.626 24.3311C152.001 24.1054 150.206 22.8751 150.489 21.261C150.556 20.866 150.748 20.4935 150.703 20.0984C150.568 18.9923 148.796 18.6988 148.66 17.5927C149.755 16.4753 150.839 17.1751 151.775 15.6062C152.52 14.3984 152.464 12.6376 152.52 11.2832Z" fill="#1A3151"/>
<path d="M131.671 77.7406C131.468 77.9776 131.231 78.2033 130.96 78.3952C129.82 79.2192 128.386 79.5127 127.009 79.7948C125.215 80.156 123.341 80.5059 121.58 79.998C115.869 78.3388 118.623 76.4876 119.244 72.4355C113.1 68.8335 108.649 63.4968 108.649 55.2732C108.469 53.9075 110.023 46.7251 110.776 45.327C111.53 43.9289 108.671 38.9108 113.1 33.2376C116.775 28.5287 124.536 30.5798 125.529 28.8754C124.639 30.402 121.887 36.7866 124.98 36.1094C132.87 34.3825 126.716 34.9716 132.698 40.5475C134.29 42.0261 124.863 42.2829 125.529 44.4839C126.567 47.8926 134.343 44.1013 133.44 47.6455C132.605 50.9188 126.813 48.1204 125.978 51.405C125.019 55.1749 124.853 58.3212 121.58 59.8111C119.842 60.6012 137.089 66.6002 135.508 67.7514C132.213 70.1556 133.849 75.122 131.671 77.7406Z" fill="#FFE1DF"/>
<path d="M222.25 183.05C221.403 178.682 215.567 171.506 214.435 171.506C217.455 176.905 217.554 181.531 215.493 186.923C212.917 193.662 206.803 198.993 202.613 201.461C195.339 205.744 179.913 213.321 173.154 214.341C157.842 216.652 154.025 223.651 141.469 227.905L144.379 230.33C154.077 226.37 168.238 217.611 173.154 217.294C179.299 216.898 190.401 210.158 194.762 208.969C199.123 207.779 214.528 199.134 217.761 196.225C220.595 193.674 223.146 187.671 222.25 183.05Z" fill="#DCE2F2"/>
<path d="M100.277 93.9921C104.193 89.7966 103.816 84.7238 110.056 85.6369C103.207 88.757 105.888 93.2734 101.99 97.9777C97.1181 103.858 94.4107 115.709 97.2669 120.246C100.123 124.782 108.76 129.001 105.514 128.896C95.0972 128.56 100.321 133.894 101.329 136.583C102.337 139.271 98.8615 143.173 97.2669 145.397C94.0607 149.87 90.4255 160.724 90.5935 157.532C90.7615 154.34 96.4254 137.789 95.6089 133.665C94.4472 127.798 93.007 122.016 92.335 113.783C91.6629 105.551 97.4578 97.0133 100.277 93.9921Z" fill="#E1F2FF"/>
<path d="M148.205 49.783C146.017 48.8806 142.724 52.0431 141.942 53.2965L139.766 59.8999C139.766 59.8999 139.31 61.4314 139.766 61.8075C139.766 61.8075 145.86 59.9362 148.205 58.0559C150.551 56.1757 150.94 50.911 148.205 49.783Z" fill="#FFE1DF"/>
<path d="M110.004 39.8188C109.773 37.7384 112.659 33.5344 113.943 31.9933L116.682 30.5645C116.168 31.2709 115.142 31.9933 113.568 34.0172C112.221 35.7509 112.027 40.3966 111.93 41.745C111.853 42.8238 112.916 44.4763 113.237 46.0816C112.563 47.3337 111.643 50.3113 111.643 55.0886C111.643 61.0602 113.548 65.6198 119.822 71.6974C120.113 71.9789 120.15 74.0953 120.031 74.4439C119.634 75.5978 120.231 78.3624 118.882 78.5551C117.804 78.7092 118.004 76.6927 118.165 75.9864L118.768 73.1502C118.418 71.4146 117.143 71.4484 114.694 69.4316C111.543 66.8369 109.17 61.9949 108.645 58.2447C108.166 54.8254 109.19 50.2474 109.479 48.8989C109.71 47.8202 110.088 46.3984 110.569 45.1462C110.408 44.0868 110.235 41.8992 110.004 39.8188Z" fill="#FFD3D0"/>
<defs>
<filter id="filter0_f" x="0" y="191" width="253" height="63" filterUnits="userSpaceOnUse" color-interpolation-filters="sRGB">
<feFlood flood-opacity="0" result="BackgroundImageFix"/>
<feBlend mode="normal" in="SourceGraphic" in2="BackgroundImageFix" result="shape"/>
<feGaussianBlur stdDeviation="9.5" result="effect1_foregroundBlur"/>
</filter>
<linearGradient id="paint0_linear" x1="71.8145" y1="232.098" x2="82.4772" y2="259.744" gradientUnits="userSpaceOnUse">
<stop stop-color="#055A9C"/>
<stop offset="1" stop-color="#7C83C0"/>
</linearGradient>
<linearGradient id="paint1_linear" x1="136.689" y1="233.382" x2="161.588" y2="245.408" gradientUnits="userSpaceOnUse">
<stop stop-color="#055A9C"/>
<stop offset="1" stop-color="#7C83C0"/>
</linearGradient>
</defs>
</svg>
