<svg width="524" height="407" viewBox="0 0 524 407" fill="none" xmlns="http://www.w3.org/2000/svg">
<g filter="url(#filter0_f)">
<ellipse cx="262" cy="376" rx="242" ry="11" fill="#0378D9"/>
</g>
<path fill-rule="evenodd" clip-rule="evenodd" d="M466.653 260.989C466.69 260.12 465.706 259.615 465.043 260.162L355.793 350.189H15.1699C13.5131 350.189 12.1699 351.532 12.1699 353.189V361.536C12.1699 363.192 13.5131 364.536 15.1699 364.536H359.505C360.223 364.536 360.883 364.283 361.399 363.863L361.417 363.877L463.519 270.975C465.318 269.339 466.392 267.031 466.498 264.577L466.653 260.989Z" fill="url(#paint0_linear)"/>
<path d="M142.339 260.438C142.989 259.997 143.755 259.757 144.54 259.748L461.351 256.099C465.065 256.056 466.827 260.657 464.035 263.106L359.542 354.764C358.812 355.405 357.874 355.757 356.903 355.757L15.0106 355.713C11.0706 355.713 9.50462 350.617 12.7644 348.404L142.339 260.438Z" fill="url(#paint1_linear)"/>
<path d="M156.222 316.919L299.234 316.919L261.334 345.646H117.596L156.222 316.919Z" fill="url(#paint2_linear)"/>
<path d="M183.855 41.5184C184.217 39.634 185.865 38.2715 187.784 38.2715H510.039C512.563 38.2715 514.456 40.5797 513.962 43.0545L471.681 254.867C471.028 258.14 468.154 260.497 464.817 260.497H147.927C144.788 260.497 142.425 257.638 143.016 254.555L183.855 41.5184Z" fill="#1A3151"/>
<path d="M193.246 48.9501C193.43 48.0117 194.253 47.3349 195.209 47.3349H501.941C503.217 47.3349 504.167 48.5137 503.895 49.7605L460.562 248.714C460.362 249.633 459.548 250.289 458.608 250.289H156.204C154.945 250.289 153.999 249.139 154.241 247.904L193.246 48.9501Z" fill="white"/>
<path d="M196.649 301.772H300.278L290.462 309.067H187.34L196.649 301.772Z" fill="#2D3363"/>
<path d="M177.651 301.772H194.26L184.934 309.067H167.02L177.651 301.772Z" fill="#2D3363"/>
<path d="M301.935 301.772H319.555L310.229 309.067H292.314L301.935 301.772Z" fill="#2D3363"/>
<path d="M321.964 301.772H339.584L330.258 309.067H312.344L321.964 301.772Z" fill="#2D3363"/>
<path d="M341.913 301.735H358.715L350.207 309.03H332.293L341.913 301.735Z" fill="#2D3363"/>
<path d="M360.796 301.735H378.559L370.147 309.03H352.561L360.796 301.735Z" fill="#2D3363"/>
<path d="M384.243 282.702L400.953 282.702L394.965 287.893H377.795L384.243 282.702Z" fill="#2D3363"/>
<path d="M386.976 276.946H408.071L402.415 281.825H381.381L386.976 276.946Z" fill="#2D3363"/>
<path d="M397.642 272.308L413.946 272.308L409.583 276.068H393.303L397.642 272.308Z" fill="#2D3363"/>
<path d="M348.963 294.85H386.735L379.622 300.769H342.025L348.963 294.85Z" fill="#2D3363"/>
<path d="M370.304 288.77H394.733L389.011 293.743H363.715L370.304 288.77Z" fill="#2D3363"/>
<path d="M158.226 301.772H175.038L164.805 309.067H146.891L158.226 301.772Z" fill="#2D3363"/>
<path d="M170.212 294.85H185.039L176.345 300.773H160.963L170.212 294.85Z" fill="#2D3363"/>
<path d="M188.482 294.85H202.992L195.185 300.773H179.803L188.482 294.85Z" fill="#2D3363"/>
<path d="M204.998 294.85H219.717L211.91 300.773H196.66L204.998 294.85Z" fill="#2D3363"/>
<path d="M223.393 294.85H238.112L230.305 300.773H215.055L223.393 294.85Z" fill="#2D3363"/>
<path d="M240.222 294.85H255.336L247.529 300.773H232.279L240.222 294.85Z" fill="#2D3363"/>
<path d="M257.895 294.85H273.233L265.426 300.773H250.176L257.895 294.85Z" fill="#2D3363"/>
<path d="M293.633 294.932H308.352L300.545 300.856H285.295L293.633 294.932Z" fill="#2D3363"/>
<path d="M311.862 294.932H326.58L318.773 300.856H303.523L311.862 294.932Z" fill="#2D3363"/>
<path d="M330.338 294.932H345.502L338.26 300.856H323.01L330.338 294.932Z" fill="#2D3363"/>
<path d="M276.239 294.932H290.957L283.15 300.856H267.9L276.239 294.932Z" fill="#2D3363"/>
<path d="M169.908 288.605H185.492L177.629 293.629H162.246L169.908 288.605Z" fill="#2D3363"/>
<path d="M188.308 282.397H204.209L196.235 287.523L180.963 287.421L188.308 282.397Z" fill="#2D3363"/>
<path d="M192.509 276.776L208.414 276.776L200.571 281.635H185.285L192.509 276.776Z" fill="#2D3363"/>
<path d="M193.129 272.525H210.053L204.162 276.317H187.773L193.129 272.525Z" fill="#2D3363"/>
<path d="M174.577 276.737H189.58L183.02 281.63H167.441L174.577 276.737Z" fill="#2D3363"/>
<path d="M205.752 282.487H221.336L213.472 287.511H198.09L205.752 282.487Z" fill="#2D3363"/>
<path d="M210.824 276.784L226.149 276.784L218.531 281.635H203.148L210.824 276.784Z" fill="#2D3363"/>
<path d="M222.879 282.487H238.463L230.599 287.511H215.217L222.879 282.487Z" fill="#2D3363"/>
<path d="M228.399 276.767L243.999 276.767L236.185 281.635H220.803L228.399 276.767Z" fill="#2D3363"/>
<path d="M228.921 272.594L243.84 272.594L236.722 276.381H221.34L228.921 272.594Z" fill="#2D3363"/>
<path d="M212.607 272.595L226.712 272.595L219.595 276.382H206.516L212.607 272.595Z" fill="#2D3363"/>
<path d="M240.516 282.487H256.1L248.236 287.511H232.854L240.516 282.487Z" fill="#2D3363"/>
<path d="M246.027 276.758L261.616 276.758L253.843 281.635H238.461L246.027 276.758Z" fill="#2D3363"/>
<path d="M246.199 272.525L260.973 272.525L254.025 276.353H238.643L246.199 272.525Z" fill="#2D3363"/>
<path d="M257.838 282.487H273.422L265.558 287.511H250.176L257.838 282.487Z" fill="#2D3363"/>
<path d="M263.689 276.723L279.259 276.723L271.482 281.635H256.1L263.689 276.723Z" fill="#2D3363"/>
<path d="M262.926 272.58L277.243 272.58L271.156 276.381H255.773L262.926 272.58Z" fill="#2D3363"/>
<path d="M279.678 272.644L295.025 272.525L288.15 276.38H272.768L279.678 272.644Z" fill="#2D3363"/>
<path d="M275.563 282.487H291.146L283.283 287.511H267.9L275.563 282.487Z" fill="#2D3363"/>
<path d="M282.019 276.761L297.55 276.761L289.797 281.635H274.414L282.019 276.761Z" fill="#2D3363"/>
<path d="M293.049 282.487H308.633L300.769 287.511H285.387L293.049 282.487Z" fill="#2D3363"/>
<path d="M299.373 276.811L313.726 276.811L307.214 281.64L291.791 281.64L299.373 276.811Z" fill="#2D3363"/>
<path d="M297.026 272.672L312.227 272.672L305.255 276.381L289.832 276.381L297.026 272.672Z" fill="#2D3363"/>
<path d="M314.595 272.627L328.645 272.627L322.572 276.381L307.148 276.381L314.595 272.627Z" fill="#2D3363"/>
<path d="M311.186 282.487H326.77L318.906 287.511H303.523L311.186 282.487Z" fill="#2D3363"/>
<path d="M316.134 276.811H332.292L324.887 281.648H309.51L316.134 276.811Z" fill="#2D3363"/>
<path d="M331.108 282.487H346.323L339.567 287.511H323.445L331.108 282.487Z" fill="#2D3363"/>
<path d="M335.365 276.768L349.264 276.768L343.067 281.63H327.695L335.365 276.768Z" fill="#2D3363"/>
<path d="M330.693 272.632L344.712 272.632L339.662 276.381H324.291L330.693 272.632Z" fill="#2D3363"/>
<path d="M348.954 282.389H364.383L358.105 287.511H342.303L348.954 282.389Z" fill="#2D3363"/>
<path d="M351.513 276.766L366.862 276.766L360.904 281.635H345.102L351.513 276.766Z" fill="#2D3363"/>
<path d="M346.442 272.644L362.198 272.537L356.767 276.381L341.287 276.381L346.442 272.644Z" fill="#2D3363"/>
<path d="M364.418 272.593L379.833 272.594L374.515 276.381H358.713L364.418 272.593Z" fill="#2D3363"/>
<path d="M366.916 282.39H381.38L375.218 287.511L361.076 287.511L366.916 282.39Z" fill="#2D3363"/>
<path d="M369.386 276.768H383.809L378.052 281.647H363.475L369.386 276.768Z" fill="#2D3363"/>
<path d="M381.342 272.579L394.732 272.579L390.312 276.381H375.734L381.342 272.579Z" fill="#2D3363"/>
<path d="M187.887 288.605L203.344 288.605L195.185 293.629H179.803L187.887 288.605Z" fill="#2D3363"/>
<path d="M205.881 288.605L221.338 288.605L213.179 293.629H197.797L205.881 288.605Z" fill="#2D3363"/>
<path d="M223.089 288.605H237.78L231.281 293.629H215.898L223.089 288.605Z" fill="#2D3363"/>
<path d="M240.292 288.605H256.1L249.49 293.629H233.348L240.292 288.605Z" fill="#2D3363"/>
<path d="M258.248 288.672H274.049L267.3 293.695H251.977L258.248 288.672Z" fill="#2D3363"/>
<path d="M276.774 288.671H291.769L285.424 293.696H270.041L276.774 288.671Z" fill="#2D3363"/>
<path d="M293.547 288.671H309.132L302.802 293.696H287.168L293.547 288.671Z" fill="#2D3363"/>
<path d="M310.96 288.671H327.697L321.394 293.695H304.447L310.96 288.671Z" fill="#2D3363"/>
<path d="M330.546 288.671H347.283L340.98 293.695H324.033L330.546 288.671Z" fill="#2D3363"/>
<path d="M349.731 288.671H366.468L360.166 293.695H343.219L349.731 288.671Z" fill="#2D3363"/>
<path d="M138.584 301.772H155.658L145.162 309.067H127.248L138.584 301.772Z" fill="#2D3363"/>
<path d="M114.423 301.772H136.256L125.527 309.067H104.086L114.423 301.772Z" fill="#2D3363"/>
<path d="M124.53 294.627L167.74 294.879L159.329 300.77L115.887 300.77L124.53 294.627Z" fill="#2D3363"/>
<path d="M142.966 282.397H185.633L178.287 287.511H135.408L142.966 282.397Z" fill="#2D3363"/>
<path d="M151.784 276.753H171.639L164.302 281.633H144.377L151.784 276.753Z" fill="#2D3363"/>
<path d="M158.505 272.398H190.016L184.429 276.382H152.35L158.505 272.398Z" fill="#2D3363"/>
<path d="M134.046 288.581H167.795L160.281 293.557H126.438L134.046 288.581Z" fill="#2D3363"/>
<path d="M194.998 209.959L399.476 99.2409L438.447 118.035L233.969 230.899L194.998 209.959Z" fill="#DCE6FC"/>
<path d="M399.006 97.0235L399.005 55.4861L438.346 76.7846L438.346 118.321L399.006 97.0235Z" fill="#CCD7EF"/>
<path d="M194.629 165.932L399.021 55.3438L399.022 99.9163L194.63 210.505L194.629 165.932Z" fill="#DCE6FC"/>
<path d="M388.765 104.855L388.765 94.1974L398.366 99.3951L398.366 110.052L388.765 104.855Z" fill="#FFBC00" stroke="white"/>
<path d="M398.365 99.3955L408.643 93.8311L408.643 104.488L398.365 110.053L398.365 99.3955Z" fill="#FFBC00" stroke="white"/>
<path d="M388.764 94.1974L398.984 88.6645L408.585 93.8623L398.365 99.3952L388.764 94.1974Z" fill="#FFBC00" stroke="white"/>
<path d="M378.601 110.366L378.601 99.709L388.202 104.907L388.202 115.564L378.601 110.366Z" fill="#FFBC00" stroke="white"/>
<path d="M388.201 104.907L398.479 99.3427L398.479 110L388.2 115.564L388.201 104.907Z" fill="#FFBC00" stroke="white"/>
<path d="M378.6 99.7094L388.82 94.1764L398.421 99.3742L388.2 104.907L378.6 99.7094Z" fill="#FFBC00" stroke="white"/>
<path d="M368.429 115.879L368.429 105.222L378.03 110.42L378.03 121.077L368.429 115.879Z" fill="#FFBC00" stroke="white"/>
<path d="M378.029 110.42L388.307 104.855L388.307 115.512L378.029 121.077L378.029 110.42Z" fill="#FFBC00" stroke="white"/>
<path d="M368.428 105.223L378.648 99.6897L388.249 104.887L378.029 110.42L368.428 105.223Z" fill="#FFBC00" stroke="white"/>
<path d="M358.259 121.39L358.259 110.733L367.86 115.931L367.86 126.588L358.259 121.39Z" fill="#FFBC00" stroke="white"/>
<path d="M367.859 115.931L378.137 110.367L378.137 121.024L367.859 126.588L367.859 115.931Z" fill="#FFBC00" stroke="white"/>
<path d="M358.258 110.734L368.478 105.201L378.079 110.398L367.859 115.931L358.258 110.734Z" fill="#FFBC00" stroke="white"/>
<path d="M348.089 126.903L348.089 116.246L357.69 121.443L357.69 132.101L348.089 126.903Z" fill="#FFBC00" stroke="white"/>
<path d="M357.689 121.443L367.967 115.879L367.967 126.536L357.689 132.1L357.689 121.443Z" fill="#FFBC00" stroke="white"/>
<path d="M348.088 116.246L358.308 110.713L367.909 115.911L357.689 121.444L348.088 116.246Z" fill="#FFBC00" stroke="white"/>
<path d="M337.921 132.415L337.921 121.758L347.522 126.956L347.522 137.613L337.921 132.415Z" fill="#FFBC00" stroke="white"/>
<path d="M347.521 126.957L357.799 121.392L357.799 132.049L347.521 137.614L347.521 126.957Z" fill="#FFBC00" stroke="white"/>
<path d="M337.92 121.759L348.14 116.226L357.741 121.423L347.521 126.956L337.92 121.759Z" fill="#FFBC00" stroke="white"/>
<path d="M327.75 137.927L327.749 127.27L337.35 132.467L337.35 143.125L327.75 137.927Z" fill="#FFBC00" stroke="white"/>
<path d="M337.349 132.468L347.627 126.903L347.627 137.56L337.349 143.125L337.349 132.468Z" fill="#FFBC00" stroke="white"/>
<path d="M327.748 127.27L337.968 121.737L347.569 126.935L337.349 132.467L327.748 127.27Z" fill="#FFBC00" stroke="white"/>
<path d="M317.584 143.439L317.583 132.782L327.184 137.98L327.184 148.637L317.584 143.439Z" fill="#FFBC00" stroke="white"/>
<path d="M327.183 137.98L337.461 132.416L337.461 143.073L327.183 148.637L327.183 137.98Z" fill="#FFBC00" stroke="white"/>
<path d="M317.582 132.782L327.802 127.249L337.403 132.447L327.183 137.98L317.582 132.782Z" fill="#FFBC00" stroke="white"/>
<path d="M307.414 148.951L307.413 138.293L317.014 143.491L317.015 154.148L307.414 148.951Z" fill="#FFBC00" stroke="white"/>
<path d="M317.013 143.492L327.291 137.927L327.291 148.584L317.013 154.149L317.013 143.492Z" fill="#FFBC00" stroke="white"/>
<path d="M307.412 138.294L317.632 132.761L327.233 137.959L317.013 143.492L307.412 138.294Z" fill="#FFBC00" stroke="white"/>
<path d="M297.242 154.462L297.242 143.805L306.842 149.003L306.843 159.66L297.242 154.462Z" fill="#FFBC00" stroke="white"/>
<path d="M306.841 149.003L317.12 143.439L317.12 154.096L306.841 159.66L306.841 149.003Z" fill="#FFBC00" stroke="white"/>
<path d="M297.24 143.805L307.461 138.273L317.061 143.47L306.841 149.003L297.24 143.805Z" fill="#FFBC00" stroke="white"/>
<path d="M287.074 159.975L287.074 149.318L296.674 154.516L296.675 165.173L287.074 159.975Z" fill="#FFBC00" stroke="white"/>
<path d="M296.673 154.516L306.952 148.952L306.952 159.609L296.673 165.173L296.673 154.516Z" fill="#FFBC00" stroke="white"/>
<path d="M287.07 149.318L297.291 143.786L306.892 148.983L296.671 154.516L287.07 149.318Z" fill="#FFBC00" stroke="white"/>
<path d="M276.91 165.487L276.91 154.83L286.51 160.028L286.511 170.685L276.91 165.487Z" fill="#FFBC00" stroke="white"/>
<path d="M286.509 160.028L296.788 154.464L296.788 165.121L286.509 170.685L286.509 160.028Z" fill="#FFBC00" stroke="white"/>
<path d="M276.906 154.831L287.127 149.298L296.727 154.496L286.507 160.029L276.906 154.831Z" fill="#FFBC00" stroke="white"/>
<path d="M266.734 170.999L266.734 160.341L276.335 165.539L276.335 176.196L266.734 170.999Z" fill="#FFBC00" stroke="white"/>
<path d="M276.333 165.54L286.612 159.975L286.612 170.632L276.333 176.197L276.333 165.54Z" fill="#FFBC00" stroke="white"/>
<path d="M266.73 160.342L276.951 154.809L286.552 160.007L276.331 165.54L266.73 160.342Z" fill="#FFBC00" stroke="white"/>
<path d="M256.566 176.511L256.566 165.854L266.167 171.052L266.167 181.709L256.566 176.511Z" fill="#FFBC00" stroke="white"/>
<path d="M266.165 171.052L276.444 165.488L276.444 176.145L266.165 181.709L266.165 171.052Z" fill="#FFBC00" stroke="white"/>
<path d="M256.562 165.854L266.783 160.321L276.384 165.519L266.163 171.052L256.562 165.854Z" fill="#FFBC00" stroke="white"/>
<path d="M246.396 182.023L246.396 171.366L255.997 176.563L255.997 187.221L246.396 182.023Z" fill="#FFBC00" stroke="white"/>
<path d="M255.995 176.564L266.274 171L266.274 181.657L255.995 187.221L255.995 176.564Z" fill="#FFBC00" stroke="white"/>
<path d="M246.393 171.366L256.613 165.833L266.214 171.031L255.993 176.564L246.393 171.366Z" fill="#FFBC00" stroke="white"/>
<path d="M236.228 187.535L236.228 176.878L245.829 182.076L245.829 192.733L236.228 187.535Z" fill="#FFBC00" stroke="white"/>
<path d="M245.827 182.076L256.106 176.512L256.106 187.169L245.827 192.733L245.827 182.076Z" fill="#FFBC00" stroke="white"/>
<path d="M236.225 176.878L246.445 171.345L256.046 176.543L245.825 182.076L236.225 176.878Z" fill="#FFBC00" stroke="white"/>
<path d="M226.06 193.047L226.06 182.389L235.661 187.587L235.661 198.244L226.06 193.047Z" fill="#FFBC00" stroke="white"/>
<path d="M235.665 187.588L245.944 182.023L245.944 192.68L235.665 198.245L235.665 187.588Z" fill="#FFBC00" stroke="white"/>
<path d="M226.059 182.389L236.279 176.857L245.88 182.054L235.659 187.587L226.059 182.389Z" fill="#FFBC00" stroke="white"/>
<path d="M215.888 198.559L215.888 187.902L225.489 193.099L225.489 203.757L215.888 198.559Z" fill="#FFBC00" stroke="white"/>
<path d="M225.488 193.1L235.766 187.536L235.766 198.193L225.488 203.757L225.488 193.1Z" fill="#FFBC00" stroke="white"/>
<path d="M215.887 187.902L226.107 182.369L235.708 187.567L225.488 193.1L215.887 187.902Z" fill="#FFBC00" stroke="white"/>
<path d="M205.722 204.072L205.722 193.415L215.323 198.612L215.323 209.269L205.722 204.072Z" fill="#FFBC00" stroke="white"/>
<path d="M215.322 198.612L225.6 193.048L225.6 203.705L215.322 209.269L215.322 198.612Z" fill="#FFBC00" stroke="white"/>
<path d="M205.721 193.415L215.941 187.882L225.542 193.079L215.322 198.612L205.721 193.415Z" fill="#FFBC00" stroke="white"/>
<path d="M195.552 209.583L195.552 198.926L205.153 204.123L205.153 214.781L195.552 209.583Z" fill="#FFBC00" stroke="white"/>
<path d="M205.152 204.124L215.43 198.559L215.43 209.216L205.152 214.781L205.152 204.124Z" fill="#FFBC00" stroke="white"/>
<path d="M195.551 198.926L205.771 193.393L215.372 198.591L205.152 204.124L195.551 198.926Z" fill="#FFBC00" stroke="white"/>
<path d="M388.765 94.1815L388.765 83.5243L398.366 88.7221L398.366 99.3793L388.765 94.1815Z" fill="#CFD7DF" stroke="white"/>
<path d="M398.365 88.722L408.643 83.1575L408.643 93.8146L398.365 99.379L398.365 88.722Z" fill="#CFD7DF" stroke="white"/>
<path d="M388.764 83.5247L398.984 77.9918L408.585 83.1896L398.365 88.7225L388.764 83.5247Z" fill="#CFD7DF" stroke="white"/>
<path d="M378.601 99.6941L378.601 89.0368L388.202 94.2346L388.202 104.892L378.601 99.6941Z" fill="#CFD7DF" stroke="white"/>
<path d="M388.201 94.235L398.479 88.6706L398.479 99.3276L388.2 104.892L388.201 94.235Z" fill="#CFD7DF" stroke="white"/>
<path d="M378.6 89.0369L388.82 83.504L398.421 88.7018L388.2 94.2347L378.6 89.0369Z" fill="#CFD7DF" stroke="white"/>
<path d="M368.429 105.206L368.429 94.549L378.03 99.7468L378.03 110.404L368.429 105.206Z" fill="#CFD7DF" stroke="white"/>
<path d="M378.029 99.7469L388.307 94.1825L388.307 104.84L378.029 110.404L378.029 99.7469Z" fill="#CFD7DF" stroke="white"/>
<path d="M368.428 94.5488L378.648 89.0159L388.249 94.2137L378.029 99.7466L368.428 94.5488Z" fill="#CFD7DF" stroke="white"/>
<path d="M358.259 110.718L358.259 100.061L367.86 105.259L367.86 115.916L358.259 110.718Z" fill="#CFD7DF" stroke="white"/>
<path d="M367.859 105.259L378.137 99.6949L378.137 110.352L367.859 115.916L367.859 105.259Z" fill="#CFD7DF" stroke="white"/>
<path d="M358.258 100.061L368.478 94.5283L378.079 99.7261L367.859 105.259L358.258 100.061Z" fill="#CFD7DF" stroke="white"/>
<path d="M348.089 116.23L348.089 105.573L357.69 110.77L357.69 121.428L348.089 116.23Z" fill="#CFD7DF" stroke="white"/>
<path d="M357.689 110.771L367.967 105.206L367.967 115.863L357.689 121.428L357.689 110.771Z" fill="#CFD7DF" stroke="white"/>
<path d="M348.088 105.573L358.308 100.04L367.909 105.238L357.689 110.771L348.088 105.573Z" fill="#CFD7DF" stroke="white"/>
<path d="M337.921 121.742L337.921 111.085L347.522 116.283L347.522 126.94L337.921 121.742Z" fill="#CFD7DF" stroke="white"/>
<path d="M347.521 116.284L357.799 110.719L357.799 121.376L347.521 126.941L347.521 116.284Z" fill="#CFD7DF" stroke="white"/>
<path d="M337.92 111.086L348.14 105.553L357.741 110.75L347.521 116.283L337.92 111.086Z" fill="#CFD7DF" stroke="white"/>
<path d="M327.75 127.254L327.749 116.597L337.35 121.795L337.35 132.452L327.75 127.254Z" fill="#CFD7DF" stroke="white"/>
<path d="M337.349 121.795L347.627 116.231L347.627 126.888L337.349 132.452L337.349 121.795Z" fill="#CFD7DF" stroke="white"/>
<path d="M327.748 116.598L337.968 111.065L347.569 116.262L337.349 121.795L327.748 116.598Z" fill="#CFD7DF" stroke="white"/>
<path d="M317.584 132.766L317.583 122.109L327.184 127.307L327.184 137.964L317.584 132.766Z" fill="#CFD7DF" stroke="white"/>
<path d="M327.183 127.307L337.461 121.743L337.461 132.4L327.183 137.964L327.183 127.307Z" fill="#CFD7DF" stroke="white"/>
<path d="M317.582 122.109L327.802 116.576L337.403 121.774L327.183 127.307L317.582 122.109Z" fill="#CFD7DF" stroke="white"/>
<path d="M307.414 138.278L307.413 127.621L317.014 132.819L317.015 143.476L307.414 138.278Z" fill="#CFD7DF" stroke="white"/>
<path d="M317.013 132.819L327.291 127.254L327.291 137.911L317.013 143.476L317.013 132.819Z" fill="#CFD7DF" stroke="white"/>
<path d="M307.412 127.621L317.632 122.088L327.233 127.286L317.013 132.819L307.412 127.621Z" fill="#CFD7DF" stroke="white"/>
<path d="M297.242 143.79L297.242 133.133L306.842 138.331L306.843 148.988L297.242 143.79Z" fill="#CFD7DF" stroke="white"/>
<path d="M306.841 138.331L317.12 132.767L317.12 143.424L306.841 148.988L306.841 138.331Z" fill="#CFD7DF" stroke="white"/>
<path d="M297.24 133.133L307.461 127.6L317.061 132.798L306.841 138.331L297.24 133.133Z" fill="#CFD7DF" stroke="white"/>
<path d="M287.074 149.302L287.074 138.645L296.674 143.843L296.675 154.5L287.074 149.302Z" fill="#CFD7DF" stroke="white"/>
<path d="M296.673 143.843L306.952 138.279L306.952 148.936L296.673 154.5L296.673 143.843Z" fill="#CFD7DF" stroke="white"/>
<path d="M287.07 138.645L297.291 133.112L306.892 138.31L296.671 143.843L287.07 138.645Z" fill="#CFD7DF" stroke="white"/>
<path d="M276.91 154.814L276.91 144.157L286.51 149.355L286.511 160.012L276.91 154.814Z" fill="#CFD7DF" stroke="white"/>
<path d="M286.509 149.355L296.788 143.791L296.788 154.448L286.509 160.012L286.509 149.355Z" fill="#CFD7DF" stroke="white"/>
<path d="M276.906 144.157L287.127 138.624L296.727 143.822L286.507 149.355L276.906 144.157Z" fill="#CFD7DF" stroke="white"/>
<path d="M266.734 160.326L266.734 149.669L276.335 154.867L276.335 165.524L266.734 160.326Z" fill="#CFD7DF" stroke="white"/>
<path d="M276.333 154.867L286.612 149.303L286.612 159.96L276.333 165.524L276.333 154.867Z" fill="#CFD7DF" stroke="white"/>
<path d="M266.73 149.669L276.951 144.136L286.552 149.334L276.331 154.867L266.73 149.669Z" fill="#CFD7DF" stroke="white"/>
<path d="M256.566 165.838L256.566 155.181L266.167 160.379L266.167 171.036L256.566 165.838Z" fill="#CFD7DF" stroke="white"/>
<path d="M266.165 160.379L276.444 154.814L276.444 165.472L266.165 171.036L266.165 160.379Z" fill="#CFD7DF" stroke="white"/>
<path d="M256.562 155.181L266.783 149.648L276.384 154.846L266.163 160.379L256.562 155.181Z" fill="#CFD7DF" stroke="white"/>
<path d="M246.396 171.35L246.396 160.693L255.997 165.89L255.997 176.548L246.396 171.35Z" fill="#CFD7DF" stroke="white"/>
<path d="M255.995 165.891L266.274 160.327L266.274 170.984L255.995 176.548L255.995 165.891Z" fill="#CFD7DF" stroke="white"/>
<path d="M246.393 160.693L256.613 155.16L266.214 160.358L255.993 165.891L246.393 160.693Z" fill="#CFD7DF" stroke="white"/>
<path d="M236.228 176.862L236.228 166.205L245.829 171.403L245.829 182.06L236.228 176.862Z" fill="#CFD7DF" stroke="white"/>
<path d="M245.827 171.403L256.106 165.839L256.106 176.496L245.827 182.06L245.827 171.403Z" fill="#CFD7DF" stroke="white"/>
<path d="M236.225 166.206L246.445 160.673L256.046 165.87L245.825 171.403L236.225 166.206Z" fill="#CFD7DF" stroke="white"/>
<path d="M226.06 182.374L226.06 171.717L235.661 176.915L235.661 187.572L226.06 182.374Z" fill="#CFD7DF" stroke="white"/>
<path d="M235.665 176.915L245.944 171.351L245.944 182.008L235.665 187.572L235.665 176.915Z" fill="#CFD7DF" stroke="white"/>
<path d="M226.059 171.717L236.279 166.184L245.88 171.382L235.659 176.915L226.059 171.717Z" fill="#CFD7DF" stroke="white"/>
<path d="M215.888 187.886L215.888 177.229L225.489 182.427L225.489 193.084L215.888 187.886Z" fill="#CFD7DF" stroke="white"/>
<path d="M225.488 182.428L235.766 176.863L235.766 187.52L225.488 193.085L225.488 182.428Z" fill="#CFD7DF" stroke="white"/>
<path d="M215.887 177.23L226.107 171.697L235.708 176.894L225.488 182.427L215.887 177.23Z" fill="#CFD7DF" stroke="white"/>
<path d="M205.722 193.399L205.722 182.741L215.323 187.939L215.323 198.596L205.722 193.399Z" fill="#CFD7DF" stroke="white"/>
<path d="M215.322 187.94L225.6 182.375L225.6 193.032L215.322 198.597L215.322 187.94Z" fill="#CFD7DF" stroke="white"/>
<path d="M205.721 182.742L215.941 177.209L225.542 182.406L215.322 187.939L205.721 182.742Z" fill="#CFD7DF" stroke="white"/>
<path d="M195.552 198.91L195.552 188.253L205.153 193.451L205.153 204.108L195.552 198.91Z" fill="#CFD7DF" stroke="white"/>
<path d="M205.152 193.452L215.43 187.887L215.43 198.544L205.152 204.109L205.152 193.452Z" fill="#CFD7DF" stroke="white"/>
<path d="M195.551 188.253L205.771 182.72L215.372 187.918L205.152 193.451L195.551 188.253Z" fill="#CFD7DF" stroke="white"/>
<path d="M388.765 83.5099L388.765 72.8527L398.366 78.0505L398.366 88.7077L388.765 83.5099Z" fill="#CFD7DF" stroke="white"/>
<path d="M398.365 78.05L408.643 72.4856L408.643 83.1426L398.365 88.7071L398.365 78.05Z" fill="#CFD7DF" stroke="white"/>
<path d="M388.764 72.8519L398.984 67.319L408.585 72.5168L398.365 78.0497L388.764 72.8519Z" fill="#CFD7DF" stroke="white"/>
<path d="M378.601 89.0207L378.601 78.3635L388.202 83.5613L388.202 94.2185L378.601 89.0207Z" fill="#CFD7DF" stroke="white"/>
<path d="M388.201 83.5617L398.479 77.9972L398.479 88.6543L388.2 94.2187L388.201 83.5617Z" fill="#CFD7DF" stroke="white"/>
<path d="M378.6 78.3639L388.82 72.831L398.421 78.0287L388.2 83.5616L378.6 78.3639Z" fill="#CFD7DF" stroke="white"/>
<path d="M368.429 94.5329L368.429 83.8757L378.03 89.0734L378.03 99.7307L368.429 94.5329Z" fill="#CFD7DF" stroke="white"/>
<path d="M378.029 89.0738L388.307 83.5094L388.307 94.1664L378.029 99.7309L378.029 89.0738Z" fill="#CFD7DF" stroke="white"/>
<path d="M368.428 83.8757L378.648 78.3428L388.249 83.5406L378.029 89.0735L368.428 83.8757Z" fill="#CFD7DF" stroke="white"/>
<path d="M358.259 100.045L358.259 89.3879L367.86 94.5856L367.86 105.243L358.259 100.045Z" fill="#CFD7DF" stroke="white"/>
<path d="M367.859 94.5864L378.137 89.0219L378.137 99.6789L367.859 105.243L367.859 94.5864Z" fill="#CFD7DF" stroke="white"/>
<path d="M358.258 89.3882L368.478 83.8553L378.079 89.0531L367.859 94.586L358.258 89.3882Z" fill="#CFD7DF" stroke="white"/>
<path d="M348.089 105.558L348.089 94.9006L357.69 100.098L357.69 110.756L348.089 105.558Z" fill="#CFD7DF" stroke="white"/>
<path d="M357.689 100.098L367.967 94.5337L367.967 105.191L357.689 110.755L357.689 100.098Z" fill="#CFD7DF" stroke="white"/>
<path d="M348.088 94.9007L358.308 89.3678L367.909 94.5655L357.689 100.098L348.088 94.9007Z" fill="#CFD7DF" stroke="white"/>
<path d="M337.921 111.069L337.921 100.412L347.522 105.61L347.522 116.267L337.921 111.069Z" fill="#CFD7DF" stroke="white"/>
<path d="M347.521 105.61L357.799 100.046L357.799 110.703L347.521 116.267L347.521 105.61Z" fill="#CFD7DF" stroke="white"/>
<path d="M337.92 100.413L348.14 94.8797L357.741 100.077L347.521 105.61L337.92 100.413Z" fill="#CFD7DF" stroke="white"/>
<path d="M327.75 116.581L327.749 105.924L337.35 111.122L337.35 121.779L327.75 116.581Z" fill="#CFD7DF" stroke="white"/>
<path d="M337.349 111.122L347.627 105.558L347.627 116.215L337.349 121.779L337.349 111.122Z" fill="#CFD7DF" stroke="white"/>
<path d="M327.748 105.924L337.968 100.391L347.569 105.589L337.349 111.122L327.748 105.924Z" fill="#CFD7DF" stroke="white"/>
<path d="M317.584 122.094L317.583 111.436L327.184 116.634L327.184 127.291L317.584 122.094Z" fill="#CFD7DF" stroke="white"/>
<path d="M327.183 116.635L337.461 111.07L337.461 121.727L327.183 127.292L327.183 116.635Z" fill="#CFD7DF" stroke="white"/>
<path d="M317.582 111.436L327.802 105.904L337.403 111.101L327.183 116.634L317.582 111.436Z" fill="#CFD7DF" stroke="white"/>
<path d="M307.414 127.605L307.413 116.947L317.014 122.145L317.015 132.802L307.414 127.605Z" fill="#CFD7DF" stroke="white"/>
<path d="M317.013 122.146L327.291 116.581L327.291 127.238L317.013 132.803L317.013 122.146Z" fill="#CFD7DF" stroke="white"/>
<path d="M307.412 116.948L317.632 111.415L327.233 116.613L317.013 122.146L307.412 116.948Z" fill="#CFD7DF" stroke="white"/>
<path d="M297.242 133.117L297.242 122.46L306.842 127.658L306.843 138.315L297.242 133.117Z" fill="#CFD7DF" stroke="white"/>
<path d="M306.841 127.658L317.12 122.094L317.12 132.751L306.841 138.315L306.841 127.658Z" fill="#CFD7DF" stroke="white"/>
<path d="M297.24 122.46L307.461 116.927L317.061 122.125L306.841 127.658L297.24 122.46Z" fill="#CFD7DF" stroke="white"/>
<path d="M287.074 138.629L287.074 127.972L296.674 133.17L296.675 143.827L287.074 138.629Z" fill="#CFD7DF" stroke="white"/>
<path d="M296.673 133.17L306.952 127.606L306.952 138.263L296.673 143.827L296.673 133.17Z" fill="#CFD7DF" stroke="white"/>
<path d="M287.07 127.972L297.291 122.439L306.892 127.637L296.671 133.17L287.07 127.972Z" fill="#CFD7DF" stroke="white"/>
<path d="M276.91 144.141L276.91 133.484L286.51 138.682L286.511 149.339L276.91 144.141Z" fill="#CFD7DF" stroke="white"/>
<path d="M286.509 138.682L296.788 133.118L296.788 143.775L286.509 149.339L286.509 138.682Z" fill="#CFD7DF" stroke="white"/>
<path d="M276.906 133.485L287.127 127.952L296.727 133.15L286.507 138.683L276.906 133.485Z" fill="#CFD7DF" stroke="white"/>
<path d="M266.734 149.653L266.734 138.996L276.335 144.194L276.335 154.851L266.734 149.653Z" fill="#CFD7DF" stroke="white"/>
<path d="M276.333 144.194L286.612 138.63L286.612 149.287L276.333 154.851L276.333 144.194Z" fill="#CFD7DF" stroke="white"/>
<path d="M266.73 138.997L276.951 133.464L286.552 138.661L276.331 144.194L266.73 138.997Z" fill="#CFD7DF" stroke="white"/>
<path d="M256.566 155.166L256.566 144.509L266.167 149.706L266.167 160.364L256.566 155.166Z" fill="#CFD7DF" stroke="white"/>
<path d="M266.165 149.706L276.444 144.142L276.444 154.799L266.165 160.363L266.165 149.706Z" fill="#CFD7DF" stroke="white"/>
<path d="M256.562 144.509L266.783 138.976L276.384 144.174L266.163 149.707L256.562 144.509Z" fill="#CFD7DF" stroke="white"/>
<path d="M246.396 160.677L246.396 150.02L255.997 155.218L255.997 165.875L246.396 160.677Z" fill="#CFD7DF" stroke="white"/>
<path d="M255.995 155.218L266.274 149.654L266.274 160.311L255.995 165.875L255.995 155.218Z" fill="#CFD7DF" stroke="white"/>
<path d="M246.393 150.021L256.613 144.488L266.214 149.685L255.993 155.218L246.393 150.021Z" fill="#CFD7DF" stroke="white"/>
<path d="M236.228 166.19L236.228 155.532L245.829 160.73L245.829 171.387L236.228 166.19Z" fill="#CFD7DF" stroke="white"/>
<path d="M245.827 160.731L256.106 155.166L256.106 165.823L245.827 171.388L245.827 160.731Z" fill="#CFD7DF" stroke="white"/>
<path d="M236.225 155.533L246.445 150L256.046 155.198L245.825 160.73L236.225 155.533Z" fill="#CFD7DF" stroke="white"/>
<path d="M226.06 171.702L226.06 161.045L235.661 166.242L235.661 176.9L226.06 171.702Z" fill="#CFD7DF" stroke="white"/>
<path d="M235.665 166.243L245.944 160.678L245.944 171.335L235.665 176.9L235.665 166.243Z" fill="#CFD7DF" stroke="white"/>
<path d="M226.059 161.045L236.279 155.512L245.88 160.71L235.659 166.242L226.059 161.045Z" fill="#CFD7DF" stroke="white"/>
<path d="M215.888 177.213L215.888 166.556L225.489 171.754L225.489 182.411L215.888 177.213Z" fill="#CFD7DF" stroke="white"/>
<path d="M225.488 171.754L235.766 166.19L235.766 176.847L225.488 182.411L225.488 171.754Z" fill="#CFD7DF" stroke="white"/>
<path d="M215.887 166.556L226.107 161.023L235.708 166.221L225.488 171.754L215.887 166.556Z" fill="#CFD7DF" stroke="white"/>
<path d="M205.722 182.725L205.722 172.068L215.323 177.266L215.323 187.923L205.722 182.725Z" fill="#CFD7DF" stroke="white"/>
<path d="M215.322 177.266L225.6 171.702L225.6 182.359L215.322 187.923L215.322 177.266Z" fill="#CFD7DF" stroke="white"/>
<path d="M205.721 172.068L215.941 166.535L225.542 171.733L215.322 177.266L205.721 172.068Z" fill="#CFD7DF" stroke="white"/>
<path d="M195.552 188.237L195.552 177.58L205.153 182.778L205.153 193.435L195.552 188.237Z" fill="#CFD7DF" stroke="white"/>
<path d="M205.152 182.778L215.43 177.214L215.43 187.871L205.152 193.435L205.152 182.778Z" fill="#CFD7DF" stroke="white"/>
<path d="M195.551 177.58L205.771 172.047L215.372 177.245L205.152 182.778L195.551 177.58Z" fill="#CFD7DF" stroke="white"/>
<path d="M388.771 27.4631L388.771 16.8059L398.372 22.0037L398.372 32.6609L388.771 27.4631Z" fill="#263889" stroke="white"/>
<path d="M398.37 22.0043L408.649 16.4399L408.649 27.0969L398.37 32.6613L398.37 22.0043Z" fill="#263889" stroke="white"/>
<path d="M388.77 16.8063L398.99 11.2734L408.591 16.4711L398.37 22.004L388.77 16.8063Z" fill="#263889" stroke="white"/>
<path d="M378.597 52.4721L378.597 41.8149L388.198 47.0127L388.198 57.6699L378.597 52.4721Z" fill="#263889" stroke="white"/>
<path d="M388.197 47.0133L398.475 41.4489L398.475 52.1059L388.197 57.6703L388.197 47.0133Z" fill="#263889" stroke="white"/>
<path d="M378.596 41.8156L388.816 36.2827L398.417 41.4804L388.197 47.0133L378.596 41.8156Z" fill="#263889" stroke="white"/>
<path d="M368.429 40.9325L368.429 30.2753L378.03 35.4731L378.03 46.1303L368.429 40.9325Z" fill="#263889" stroke="white"/>
<path d="M378.029 35.4729L388.307 29.9084L388.307 40.5655L378.029 46.1299L378.029 35.4729Z" fill="#263889" stroke="white"/>
<path d="M368.428 30.2757L378.648 24.7428L388.249 29.9405L378.029 35.4734L368.428 30.2757Z" fill="#263889" stroke="white"/>
<path d="M358.259 89.3776L358.259 78.7203L367.86 83.9181L367.86 94.5753L358.259 89.3776Z" fill="#263889" stroke="white"/>
<path d="M367.859 83.9185L378.137 78.3541L378.137 89.0111L367.859 94.5755L367.859 83.9185Z" fill="#263889" stroke="white"/>
<path d="M358.258 78.7207L368.478 73.1878L378.079 78.3856L367.859 83.9185L358.258 78.7207Z" fill="#263889" stroke="white"/>
<path d="M348.089 94.8895L348.089 84.2323L357.69 89.4301L357.69 100.087L348.089 94.8895Z" fill="#263889" stroke="white"/>
<path d="M357.689 89.4299L367.967 83.8654L367.967 94.5225L357.689 100.087L357.689 89.4299Z" fill="#263889" stroke="white"/>
<path d="M348.088 84.2321L358.308 78.6992L367.909 83.8969L357.689 89.4298L348.088 84.2321Z" fill="#263889" stroke="white"/>
<path d="M337.923 100.402L337.923 89.7447L347.524 94.9424L347.524 105.6L337.923 100.402Z" fill="#263889" stroke="white"/>
<path d="M347.523 94.9425L357.801 89.3781L357.801 100.035L347.523 105.6L347.523 94.9425Z" fill="#263889" stroke="white"/>
<path d="M337.922 89.7447L348.142 84.2118L357.743 89.4096L347.523 94.9425L337.922 89.7447Z" fill="#263889" stroke="white"/>
<path d="M327.752 105.913L327.751 95.2558L337.352 100.454L337.352 111.111L327.752 105.913Z" fill="#263889" stroke="white"/>
<path d="M337.351 100.454L347.629 94.8898L347.629 105.547L337.351 111.111L337.351 100.454Z" fill="#263889" stroke="white"/>
<path d="M327.75 95.2562L337.97 89.7233L347.571 94.921L337.351 100.454L327.75 95.2562Z" fill="#263889" stroke="white"/>
<path d="M317.586 111.426L317.585 100.768L327.186 105.966L327.186 116.623L317.586 111.426Z" fill="#263889" stroke="white"/>
<path d="M327.185 105.967L337.463 100.402L337.463 111.059L327.185 116.624L327.185 105.967Z" fill="#263889" stroke="white"/>
<path d="M317.584 100.769L327.804 95.2358L337.405 100.434L327.185 105.967L317.584 100.769Z" fill="#263889" stroke="white"/>
<path d="M307.414 116.937L307.413 106.28L317.014 111.478L317.015 122.135L307.414 116.937Z" fill="#263889" stroke="white"/>
<path d="M317.013 111.478L327.291 105.914L327.291 116.571L317.013 122.135L317.013 111.478Z" fill="#263889" stroke="white"/>
<path d="M307.412 106.28L317.632 100.748L327.233 105.945L317.013 111.478L307.412 106.28Z" fill="#263889" stroke="white"/>
<path d="M297.242 122.45L297.242 111.793L306.842 116.991L306.843 127.648L297.242 122.45Z" fill="#263889" stroke="white"/>
<path d="M306.841 116.99L317.12 111.426L317.12 122.083L306.841 127.647L306.841 116.99Z" fill="#263889" stroke="white"/>
<path d="M297.24 111.793L307.461 106.26L317.061 111.458L306.841 116.991L297.24 111.793Z" fill="#263889" stroke="white"/>
<path d="M287.074 127.961L287.074 117.304L296.674 122.502L296.675 133.159L287.074 127.961Z" fill="#263889" stroke="white"/>
<path d="M296.673 122.503L306.952 116.938L306.952 127.595L296.673 133.16L296.673 122.503Z" fill="#263889" stroke="white"/>
<path d="M287.07 117.305L297.291 111.772L306.892 116.969L296.671 122.502L287.07 117.305Z" fill="#263889" stroke="white"/>
<path d="M276.908 133.473L276.908 122.816L286.508 128.014L286.509 138.671L276.908 133.473Z" fill="#263889" stroke="white"/>
<path d="M286.507 128.014L296.786 122.45L296.786 133.107L286.507 138.671L286.507 128.014Z" fill="#263889" stroke="white"/>
<path d="M276.904 122.816L287.125 117.283L296.726 122.481L286.505 128.014L276.904 122.816Z" fill="#263889" stroke="white"/>
<path d="M266.736 138.985L266.736 128.328L276.337 133.526L276.337 144.183L266.736 138.985Z" fill="#263889" stroke="white"/>
<path d="M276.335 133.526L286.614 127.962L286.614 138.619L276.335 144.183L276.335 133.526Z" fill="#263889" stroke="white"/>
<path d="M266.732 128.328L276.953 122.796L286.554 127.993L276.333 133.526L266.732 128.328Z" fill="#263889" stroke="white"/>
<path d="M256.568 144.498L256.568 133.841L266.169 139.038L266.169 149.695L256.568 144.498Z" fill="#263889" stroke="white"/>
<path d="M266.167 139.039L276.446 133.474L276.446 144.131L266.167 149.696L266.167 139.039Z" fill="#263889" stroke="white"/>
<path d="M256.564 133.841L266.785 128.308L276.386 133.505L266.165 139.038L256.564 133.841Z" fill="#263889" stroke="white"/>
<path d="M246.396 150.009L246.396 139.352L255.997 144.55L255.997 155.207L246.396 150.009Z" fill="#263889" stroke="white"/>
<path d="M255.995 144.551L266.274 138.986L266.274 149.643L255.995 155.208L255.995 144.551Z" fill="#263889" stroke="white"/>
<path d="M246.393 139.352L256.613 133.82L266.214 139.017L255.993 144.55L246.393 139.352Z" fill="#263889" stroke="white"/>
<path d="M236.226 155.521L236.226 144.864L245.827 150.062L245.827 160.719L236.226 155.521Z" fill="#263889" stroke="white"/>
<path d="M245.826 150.062L256.104 144.498L256.104 155.155L245.825 160.719L245.826 150.062Z" fill="#263889" stroke="white"/>
<path d="M236.223 144.864L246.443 139.331L256.044 144.529L245.824 150.062L236.223 144.864Z" fill="#263889" stroke="white"/>
<path d="M226.06 161.034L226.06 150.376L235.661 155.574L235.661 166.231L226.06 161.034Z" fill="#263889" stroke="white"/>
<path d="M235.659 155.575L245.938 150.01L245.938 160.667L235.659 166.232L235.659 155.575Z" fill="#263889" stroke="white"/>
<path d="M226.059 150.377L236.279 144.844L245.88 150.042L235.659 155.575L226.059 150.377Z" fill="#263889" stroke="white"/>
<path d="M215.888 119.019L215.888 108.361L225.489 113.559L225.489 124.216L215.888 119.019Z" fill="#263889" stroke="white"/>
<path d="M225.488 113.559L235.766 107.995L235.766 118.652L225.488 124.216L225.488 113.559Z" fill="#263889" stroke="white"/>
<path d="M215.887 108.361L226.107 102.829L235.708 108.026L225.488 113.559L215.887 108.361Z" fill="#263889" stroke="white"/>
<path d="M205.72 138.847L205.72 128.189L215.321 133.387L215.321 144.044L205.72 138.847Z" fill="#263889" stroke="white"/>
<path d="M215.32 133.388L225.598 127.823L225.598 138.48L215.32 144.045L215.32 133.388Z" fill="#263889" stroke="white"/>
<path d="M205.719 128.189L215.939 122.657L225.54 127.854L215.32 133.387L205.719 128.189Z" fill="#263889" stroke="white"/>
<path d="M195.55 177.571L195.55 166.913L205.151 172.111L205.151 182.768L195.55 177.571Z" fill="#263889" stroke="white"/>
<path d="M205.15 172.111L215.428 166.547L215.428 177.204L205.15 182.768L205.15 172.111Z" fill="#263889" stroke="white"/>
<path d="M195.549 166.913L205.769 161.38L215.37 166.578L205.15 172.111L195.549 166.913Z" fill="#263889" stroke="white"/>
<path d="M398.445 107.652L398.445 96.7367L408.046 102.06L408.046 112.975L398.445 107.652Z" fill="#D7B1EE" stroke="white"/>
<path d="M408.044 102.061L418.323 96.3622L418.323 107.277L408.044 112.976L408.044 102.061Z" fill="#D7B1EE" stroke="white"/>
<path d="M398.443 96.7372L408.664 91.0704L418.265 96.394L408.044 102.061L398.443 96.7372Z" fill="#D7B1EE" stroke="white"/>
<path d="M388.279 113.297L388.279 102.382L397.88 107.706L397.88 118.621L388.279 113.297Z" fill="#D7B1EE" stroke="white"/>
<path d="M397.878 107.707L408.157 102.008L408.157 112.923L397.878 118.622L397.878 107.707Z" fill="#D7B1EE" stroke="white"/>
<path d="M388.277 102.383L398.498 96.716L408.099 102.04L397.878 107.706L388.277 102.383Z" fill="#D7B1EE" stroke="white"/>
<path d="M378.105 118.943L378.105 108.028L387.706 113.352L387.706 124.267L378.105 118.943Z" fill="#D7B1EE" stroke="white"/>
<path d="M387.704 113.352L397.983 107.653L397.983 118.568L387.704 124.267L387.704 113.352Z" fill="#D7B1EE" stroke="white"/>
<path d="M378.104 108.029L388.324 102.362L397.925 107.685L387.704 113.352L378.104 108.029Z" fill="#D7B1EE" stroke="white"/>
<path d="M367.939 124.588L367.939 113.673L377.54 118.996L377.54 129.912L367.939 124.588Z" fill="#D7B1EE" stroke="white"/>
<path d="M377.538 118.997L387.817 113.298L387.817 124.213L377.538 129.912L377.538 118.997Z" fill="#D7B1EE" stroke="white"/>
<path d="M367.938 113.673L378.158 108.007L387.759 113.33L377.538 118.997L367.938 113.673Z" fill="#D7B1EE" stroke="white"/>
<path d="M357.773 130.233L357.773 119.318L367.374 124.642L367.374 135.557L357.773 130.233Z" fill="#D7B1EE" stroke="white"/>
<path d="M367.372 124.643L377.651 118.943L377.651 129.858L367.372 135.557L367.372 124.643Z" fill="#D7B1EE" stroke="white"/>
<path d="M357.771 119.319L367.992 113.652L377.593 118.976L367.372 124.642L357.771 119.319Z" fill="#D7B1EE" stroke="white"/>
<path d="M347.597 135.879L347.597 124.964L357.198 130.288L357.198 141.203L347.597 135.879Z" fill="#D7B1EE" stroke="white"/>
<path d="M357.197 130.289L367.475 124.589L367.475 135.504L357.197 141.203L357.197 130.289Z" fill="#D7B1EE" stroke="white"/>
<path d="M347.596 124.965L357.816 119.298L367.417 124.622L357.197 130.288L347.596 124.965Z" fill="#D7B1EE" stroke="white"/>
<path d="M337.429 141.525L337.429 130.61L347.03 135.933L347.03 146.848L337.429 141.525Z" fill="#D7B1EE" stroke="white"/>
<path d="M347.029 135.934L357.307 130.235L357.307 141.15L347.029 146.849L347.029 135.934Z" fill="#D7B1EE" stroke="white"/>
<path d="M337.428 130.61L347.648 124.943L357.249 130.267L347.029 135.934L337.428 130.61Z" fill="#D7B1EE" stroke="white"/>
<path d="M327.261 147.17L327.261 136.255L336.862 141.578L336.862 152.494L327.261 147.17Z" fill="#D7B1EE" stroke="white"/>
<path d="M336.861 141.58L347.139 135.88L347.139 146.795L336.861 152.494L336.861 141.58Z" fill="#D7B1EE" stroke="white"/>
<path d="M327.26 136.255L337.48 130.589L347.081 135.912L336.861 141.579L327.26 136.255Z" fill="#D7B1EE" stroke="white"/>
<path d="M317.089 152.816L317.089 141.901L326.69 147.225L326.69 158.14L317.089 152.816Z" fill="#D7B1EE" stroke="white"/>
<path d="M326.689 147.225L336.967 141.526L336.967 152.441L326.689 158.14L326.689 147.225Z" fill="#D7B1EE" stroke="white"/>
<path d="M317.088 141.901L327.308 136.234L336.909 141.558L326.689 147.224L317.088 141.901Z" fill="#D7B1EE" stroke="white"/>
<path d="M306.923 158.461L306.923 147.546L316.524 152.87L316.524 163.785L306.923 158.461Z" fill="#D7B1EE" stroke="white"/>
<path d="M316.523 152.87L326.801 147.171L326.801 158.086L316.523 163.785L316.523 152.87Z" fill="#D7B1EE" stroke="white"/>
<path d="M306.922 147.546L317.142 141.879L326.743 147.203L316.523 152.87L306.922 147.546Z" fill="#D7B1EE" stroke="white"/>
<path d="M296.753 164.106L296.753 153.191L306.354 158.514L306.354 169.429L296.753 164.106Z" fill="#D7B1EE" stroke="white"/>
<path d="M306.353 158.515L316.631 152.816L316.631 163.731L306.353 169.43L306.353 158.515Z" fill="#D7B1EE" stroke="white"/>
<path d="M296.75 153.191L306.97 147.525L316.571 152.848L306.351 158.515L296.75 153.191Z" fill="#D7B1EE" stroke="white"/>
<path d="M286.586 169.752L286.585 158.837L296.186 164.161L296.186 175.076L286.586 169.752Z" fill="#D7B1EE" stroke="white"/>
<path d="M296.185 164.161L306.463 158.462L306.463 169.377L296.185 175.076L296.185 164.161Z" fill="#D7B1EE" stroke="white"/>
<path d="M286.582 158.838L296.802 153.171L306.403 158.494L296.183 164.161L286.582 158.838Z" fill="#D7B1EE" stroke="white"/>
<path d="M408.048 112.938L408.048 102.023L417.649 107.347L417.649 118.262L408.048 112.938Z" fill="#D7B1EE" stroke="white"/>
<path d="M417.648 107.348L427.926 101.649L427.926 112.564L417.648 118.263L417.648 107.348Z" fill="#D7B1EE" stroke="white"/>
<path d="M408.047 102.024L418.267 96.357L427.868 101.681L417.648 107.347L408.047 102.024Z" fill="#D7B1EE" stroke="white"/>
<path d="M397.878 118.584L397.878 107.669L407.479 112.992L407.479 123.907L397.878 118.584Z" fill="#D7B1EE" stroke="white"/>
<path d="M407.478 112.992L417.756 107.293L417.756 118.208L407.478 123.907L407.478 112.992Z" fill="#D7B1EE" stroke="white"/>
<path d="M397.877 107.669L408.097 102.002L417.698 107.325L407.478 112.992L397.877 107.669Z" fill="#D7B1EE" stroke="white"/>
<path d="M387.711 124.229L387.71 113.314L397.311 118.637L397.311 129.552L387.711 124.229Z" fill="#D7B1EE" stroke="white"/>
<path d="M397.31 118.638L407.588 112.939L407.588 123.854L397.31 129.553L397.31 118.638Z" fill="#D7B1EE" stroke="white"/>
<path d="M387.709 113.314L397.929 107.647L407.53 112.97L397.31 118.637L387.709 113.314Z" fill="#D7B1EE" stroke="white"/>
<path d="M377.539 129.874L377.538 118.959L387.139 124.282L387.14 135.198L377.539 129.874Z" fill="#D7B1EE" stroke="white"/>
<path d="M387.138 124.283L397.416 118.584L397.416 129.499L387.138 135.198L387.138 124.283Z" fill="#D7B1EE" stroke="white"/>
<path d="M377.537 118.959L387.757 113.293L397.358 118.616L387.138 124.283L377.537 118.959Z" fill="#D7B1EE" stroke="white"/>
<path d="M367.371 135.519L367.37 124.604L376.971 129.928L376.972 140.843L367.371 135.519Z" fill="#D7B1EE" stroke="white"/>
<path d="M376.97 129.929L387.249 124.23L387.248 135.145L376.97 140.844L376.97 129.929Z" fill="#D7B1EE" stroke="white"/>
<path d="M367.369 124.605L377.589 118.938L387.19 124.261L376.97 129.928L367.369 124.605Z" fill="#D7B1EE" stroke="white"/>
<path d="M357.203 141.166L357.202 130.25L366.803 135.574L366.804 146.489L357.203 141.166Z" fill="#D7B1EE" stroke="white"/>
<path d="M366.802 135.574L377.081 129.875L377.081 140.79L366.802 146.489L366.802 135.574Z" fill="#D7B1EE" stroke="white"/>
<path d="M357.201 130.25L367.422 124.584L377.022 129.907L366.802 135.574L357.201 130.25Z" fill="#D7B1EE" stroke="white"/>
<path d="M347.029 146.811L347.029 135.896L356.63 141.22L356.63 152.135L347.029 146.811Z" fill="#D7B1EE" stroke="white"/>
<path d="M356.628 141.22L366.907 135.521L366.907 146.436L356.628 152.135L356.628 141.22Z" fill="#D7B1EE" stroke="white"/>
<path d="M347.027 135.897L357.248 130.23L366.849 135.553L356.628 141.22L347.027 135.897Z" fill="#D7B1EE" stroke="white"/>
<path d="M336.861 152.455L336.861 141.54L346.462 146.864L346.462 157.779L336.861 152.455Z" fill="#D7B1EE" stroke="white"/>
<path d="M346.46 146.865L356.739 141.166L356.739 152.081L346.46 157.78L346.46 146.865Z" fill="#D7B1EE" stroke="white"/>
<path d="M336.859 141.541L347.08 135.874L356.681 141.197L346.46 146.864L336.859 141.541Z" fill="#D7B1EE" stroke="white"/>
<path d="M326.695 158.101L326.695 147.186L336.296 152.509L336.296 163.425L326.695 158.101Z" fill="#D7B1EE" stroke="white"/>
<path d="M336.294 152.51L346.573 146.811L346.573 157.726L336.294 163.425L336.294 152.51Z" fill="#D7B1EE" stroke="white"/>
<path d="M326.693 147.186L336.914 141.519L346.515 146.843L336.294 152.509L326.693 147.186Z" fill="#D7B1EE" stroke="white"/>
<path d="M316.523 163.747L316.523 152.832L326.124 158.155L326.124 169.07L316.523 163.747Z" fill="#D7B1EE" stroke="white"/>
<path d="M326.122 158.156L336.401 152.456L336.401 163.371L326.122 169.07L326.122 158.156Z" fill="#D7B1EE" stroke="white"/>
<path d="M316.521 152.832L326.742 147.165L336.343 152.489L326.122 158.155L316.521 152.832Z" fill="#D7B1EE" stroke="white"/>
<path d="M306.353 169.392L306.353 158.477L315.954 163.8L315.954 174.715L306.353 169.392Z" fill="#D7B1EE" stroke="white"/>
<path d="M315.952 163.801L326.231 158.102L326.231 169.017L315.952 174.716L315.952 163.801Z" fill="#D7B1EE" stroke="white"/>
<path d="M306.35 158.477L316.57 152.81L326.171 158.134L315.95 163.801L306.35 158.477Z" fill="#D7B1EE" stroke="white"/>
<path d="M417.654 118.224L417.654 107.309L427.255 112.633L427.255 123.548L417.654 118.224Z" fill="#D7B1EE" stroke="white"/>
<path d="M427.253 112.633L437.532 106.934L437.532 117.849L427.253 123.548L427.253 112.633Z" fill="#D7B1EE" stroke="white"/>
<path d="M417.652 107.309L427.873 101.643L437.474 106.966L427.253 112.633L417.652 107.309Z" fill="#D7B1EE" stroke="white"/>
<path d="M407.781 123.869L407.781 112.954L417.381 118.277L417.382 129.192L407.781 123.869Z" fill="#D7B1EE" stroke="white"/>
<path d="M417.38 118.278L427.659 112.579L427.659 123.494L417.38 129.193L417.38 118.278Z" fill="#D7B1EE" stroke="white"/>
<path d="M407.5 112.954L417.72 107.287L427.321 112.611L417.101 118.278L407.5 112.954Z" fill="#D7B1EE" stroke="white"/>
<path d="M397.31 129.515L397.31 118.6L406.911 123.923L406.911 134.838L397.31 129.515Z" fill="#D7B1EE" stroke="white"/>
<path d="M406.909 123.924L417.188 118.225L417.188 129.14L406.909 134.839L406.909 123.924Z" fill="#D7B1EE" stroke="white"/>
<path d="M397.309 118.6L407.529 112.933L417.13 118.257L406.909 123.924L397.309 118.6Z" fill="#D7B1EE" stroke="white"/>
<path d="M387.142 135.16L387.142 124.245L396.743 129.568L396.743 140.483L387.142 135.16Z" fill="#D7B1EE" stroke="white"/>
<path d="M396.742 129.569L407.02 123.87L407.02 134.785L396.741 140.484L396.742 129.569Z" fill="#D7B1EE" stroke="white"/>
<path d="M387.141 124.245L397.361 118.578L406.962 123.902L396.742 129.569L387.141 124.245Z" fill="#D7B1EE" stroke="white"/>
<path d="M376.97 140.805L376.97 129.89L386.571 135.213L386.571 146.129L376.97 140.805Z" fill="#D7B1EE" stroke="white"/>
<path d="M386.57 135.214L396.848 129.515L396.848 140.43L386.57 146.129L386.57 135.214Z" fill="#D7B1EE" stroke="white"/>
<path d="M376.969 129.89L387.189 124.224L396.79 129.547L386.57 135.214L376.969 129.89Z" fill="#D7B1EE" stroke="white"/>
<path d="M366.802 146.451L366.802 135.536L376.403 140.86L376.403 151.775L366.802 146.451Z" fill="#D7B1EE" stroke="white"/>
<path d="M376.402 140.86L386.68 135.161L386.68 146.076L376.402 151.775L376.402 140.86Z" fill="#D7B1EE" stroke="white"/>
<path d="M366.801 135.536L377.021 129.869L386.622 135.193L376.402 140.86L366.801 135.536Z" fill="#D7B1EE" stroke="white"/>
<path d="M356.636 152.096L356.636 141.181L366.237 146.505L366.237 157.42L356.636 152.096Z" fill="#D7B1EE" stroke="white"/>
<path d="M366.236 146.505L376.514 140.806L376.514 151.721L366.236 157.42L366.236 146.505Z" fill="#D7B1EE" stroke="white"/>
<path d="M356.635 141.182L366.855 135.515L376.456 140.838L366.236 146.505L356.635 141.182Z" fill="#D7B1EE" stroke="white"/>
<path d="M346.462 157.741L346.462 146.826L356.063 152.15L356.063 163.065L346.462 157.741Z" fill="#D7B1EE" stroke="white"/>
<path d="M356.062 152.151L366.34 146.452L366.34 157.367L356.062 163.066L356.062 152.151Z" fill="#D7B1EE" stroke="white"/>
<path d="M346.461 146.827L356.681 141.16L366.282 146.483L356.062 152.15L346.461 146.827Z" fill="#D7B1EE" stroke="white"/>
<path d="M336.294 163.387L336.294 152.472L345.895 157.795L345.895 168.71L336.294 163.387Z" fill="#D7B1EE" stroke="white"/>
<path d="M345.894 157.795L356.172 152.096L356.172 163.011L345.894 168.71L345.894 157.795Z" fill="#D7B1EE" stroke="white"/>
<path d="M336.293 152.472L346.513 146.805L356.114 152.128L345.894 157.795L336.293 152.472Z" fill="#D7B1EE" stroke="white"/>
<path d="M326.127 169.033L326.126 158.118L335.727 163.441L335.727 174.356L326.127 169.033Z" fill="#D7B1EE" stroke="white"/>
<path d="M335.726 163.442L346.004 157.743L346.004 168.658L335.726 174.357L335.726 163.442Z" fill="#D7B1EE" stroke="white"/>
<path d="M326.125 158.118L336.345 152.451L345.946 157.775L335.726 163.442L326.125 158.118Z" fill="#D7B1EE" stroke="white"/>
<path d="M398.642 96.6172L398.643 78.5141L408.244 83.8377L408.243 101.941L398.642 96.6172Z" fill="#001DF5" stroke="white"/>
<path d="M408.242 83.8371L418.521 78.138L418.52 96.2409L408.241 101.94L408.242 83.8371Z" fill="#001DF5" stroke="white"/>
<path d="M398.641 78.5135L408.861 72.8467L418.462 78.1702L408.242 83.837L398.641 78.5135Z" fill="#001DF5" stroke="white"/>
<path d="M408.247 101.943L408.248 83.8395L417.849 89.163L417.848 107.266L408.247 101.943Z" fill="#001DF5" stroke="white"/>
<path d="M417.844 89.1633L428.122 83.4642L428.121 101.567L417.843 107.266L417.844 89.1633Z" fill="#001DF5" stroke="white"/>
<path d="M408.242 83.8394L418.463 78.1726L428.063 83.4962L417.843 89.163L408.242 83.8394Z" fill="#001DF5" stroke="white"/>
<path d="M389.251 101.804L389.252 83.7009L398.853 89.0245L398.852 107.128L389.251 101.804Z" fill="#001DF5" stroke="white"/>
<path d="M398.85 89.0555L409.128 83.3564L409.127 101.459L398.849 107.158L398.85 89.0555Z" fill="#001DF5" stroke="white"/>
<path d="M389.244 83.7319L399.464 78.0651L409.065 83.3886L398.845 89.0554L389.244 83.7319Z" fill="#001DF5" stroke="white"/>
<path d="M398.851 107.161L398.852 89.0579L408.453 94.3814L408.452 112.485L398.851 107.161Z" fill="#001DF5" stroke="white"/>
<path d="M408.453 94.3817L418.732 88.6826L418.731 106.785L408.452 112.485L408.453 94.3817Z" fill="#001DF5" stroke="white"/>
<path d="M398.85 89.0578L409.07 83.391L418.671 88.7146L408.45 94.3813L398.85 89.0578Z" fill="#001DF5" stroke="white"/>
<path d="M378.974 107.537L378.975 89.4344L388.576 94.7579L388.575 112.861L378.974 107.537Z" fill="#001DF5" stroke="white"/>
<path d="M388.574 94.758L398.853 89.0589L398.852 107.162L388.573 112.861L388.574 94.758Z" fill="#001DF5" stroke="white"/>
<path d="M378.973 89.4344L389.193 83.7676L398.794 89.0911L388.574 94.7579L378.973 89.4344Z" fill="#001DF5" stroke="white"/>
<path d="M388.579 112.863L388.58 94.7601L398.181 100.084L398.18 118.187L388.579 112.863Z" fill="#001DF5" stroke="white"/>
<path d="M398.176 100.084L408.454 94.3851L408.453 112.488L398.175 118.187L398.176 100.084Z" fill="#001DF5" stroke="white"/>
<path d="M388.574 94.7603L398.795 89.0935L408.395 94.417L398.175 100.084L388.574 94.7603Z" fill="#001DF5" stroke="white"/>
<path d="M369.583 112.724L369.584 94.6209L379.185 99.9444L379.184 118.048L369.583 112.724Z" fill="#001DF5" stroke="white"/>
<path d="M379.182 99.9755L389.46 94.2764L389.459 112.379L379.181 118.078L379.182 99.9755Z" fill="#001DF5" stroke="white"/>
<path d="M369.576 94.6519L379.797 88.9851L389.397 94.3086L379.177 99.9754L369.576 94.6519Z" fill="#001DF5" stroke="white"/>
<path d="M379.183 118.081L379.184 99.9775L388.785 105.301L388.784 123.404L379.183 118.081Z" fill="#001DF5" stroke="white"/>
<path d="M388.785 105.302L399.064 99.6026L399.063 117.705L388.784 123.405L388.785 105.302Z" fill="#001DF5" stroke="white"/>
<path d="M379.182 99.9783L389.402 94.3115L399.003 99.6351L388.783 105.302L379.182 99.9783Z" fill="#001DF5" stroke="white"/>
<path d="M359.401 118.408L359.403 100.305L369.004 105.628L369.002 123.731L359.401 118.408Z" fill="#001DF5" stroke="white"/>
<path d="M369.002 105.629L379.281 99.9298L379.279 118.033L369.001 123.732L369.002 105.629Z" fill="#001DF5" stroke="white"/>
<path d="M359.4 100.305L369.621 94.6379L379.222 99.9615L369.001 105.628L359.4 100.305Z" fill="#001DF5" stroke="white"/>
<path d="M369.007 123.734L369.008 105.631L378.609 110.954L378.608 129.057L369.007 123.734Z" fill="#001DF5" stroke="white"/>
<path d="M378.604 110.955L388.882 105.255L388.881 123.358L378.603 129.057L378.604 110.955Z" fill="#001DF5" stroke="white"/>
<path d="M369.002 105.631L379.222 99.9639L388.823 105.287L378.603 110.954L369.002 105.631Z" fill="#001DF5" stroke="white"/>
<path d="M350.011 87.5395L350.012 69.4364L359.613 74.76L359.612 92.863L350.011 87.5395Z" fill="#001DF5" stroke="white"/>
<path d="M359.61 74.7913L369.888 69.0922L369.887 87.1951L359.608 92.8942L359.61 74.7913Z" fill="#001DF5" stroke="white"/>
<path d="M350.004 69.4677L360.224 63.8009L369.825 69.1244L359.605 74.7912L350.004 69.4677Z" fill="#001DF5" stroke="white"/>
<path d="M359.614 106.589L359.616 88.4859L369.216 93.8094L369.215 111.913L359.614 106.589Z" fill="#001DF5" stroke="white"/>
<path d="M369.215 93.8092L379.494 88.1101L379.492 106.213L369.214 111.912L369.215 93.8092Z" fill="#001DF5" stroke="white"/>
<path d="M359.613 88.4858L369.834 82.819L379.435 88.1426L369.214 93.8094L359.613 88.4858Z" fill="#001DF5" stroke="white"/>
<path d="M339.704 129.338L339.705 111.235L349.306 116.559L349.305 134.662L339.704 129.338Z" fill="#001DF5" stroke="white"/>
<path d="M349.305 116.558L359.583 110.859L359.582 128.962L349.304 134.661L349.305 116.558Z" fill="#001DF5" stroke="white"/>
<path d="M339.703 111.234L349.923 105.568L359.524 110.891L349.304 116.558L339.703 111.234Z" fill="#001DF5" stroke="white"/>
<path d="M349.31 134.664L349.311 116.56L358.912 121.884L358.911 139.987L349.31 134.664Z" fill="#001DF5" stroke="white"/>
<path d="M358.906 121.885L369.185 116.185L369.184 134.288L358.905 139.987L358.906 121.885Z" fill="#001DF5" stroke="white"/>
<path d="M349.305 116.561L359.525 110.894L369.126 116.218L358.906 121.884L349.305 116.561Z" fill="#001DF5" stroke="white"/>
<path d="M330.314 134.525L330.315 116.422L339.916 121.745L339.914 139.848L330.314 134.525Z" fill="#001DF5" stroke="white"/>
<path d="M339.912 121.776L350.191 116.077L350.19 134.18L339.911 139.879L339.912 121.776Z" fill="#001DF5" stroke="white"/>
<path d="M330.307 116.453L340.527 110.786L350.128 116.11L339.908 121.776L330.307 116.453Z" fill="#001DF5" stroke="white"/>
<path d="M339.913 139.882L339.914 121.779L349.515 127.102L349.514 145.205L339.913 139.882Z" fill="#001DF5" stroke="white"/>
<path d="M349.516 127.102L359.794 121.403L359.793 139.506L349.515 145.205L349.516 127.102Z" fill="#001DF5" stroke="white"/>
<path d="M339.912 121.779L350.132 116.112L359.733 121.436L349.513 127.102L339.912 121.779Z" fill="#001DF5" stroke="white"/>
<defs>
<filter id="filter0_f" x="0" y="345" width="524" height="62" filterUnits="userSpaceOnUse" color-interpolation-filters="sRGB">
<feFlood flood-opacity="0" result="BackgroundImageFix"/>
<feBlend mode="normal" in="SourceGraphic" in2="BackgroundImageFix" result="shape"/>
<feGaussianBlur stdDeviation="10" result="effect1_foregroundBlur"/>
</filter>
<linearGradient id="paint0_linear" x1="507.171" y1="288.572" x2="-2.22557" y2="352.459" gradientUnits="userSpaceOnUse">
<stop stop-color="white"/>
<stop offset="1" stop-color="#ADD1FC"/>
</linearGradient>
<linearGradient id="paint1_linear" x1="-3.64838" y1="310.452" x2="435.395" y2="316.485" gradientUnits="userSpaceOnUse">
<stop stop-color="#ECF3FF"/>
<stop offset="1" stop-color="#D1E3FE"/>
</linearGradient>
<linearGradient id="paint2_linear" x1="228.693" y1="330.356" x2="134.677" y2="340.782" gradientUnits="userSpaceOnUse">
<stop stop-color="#CBE3FF"/>
<stop offset="1" stop-color="#E9F2FF"/>
</linearGradient>
</defs>
</svg>
