<svg width="100" height="100" viewBox="0 0 100 100" fill="none" xmlns="http://www.w3.org/2000/svg">
<circle cx="50" cy="50" r="50" fill="url(#paint0_linear)"/>
<path fill-rule="evenodd" clip-rule="evenodd" d="M99.7109 47.4005C96.5033 46.9042 93.3093 46.4121 90.0838 46.1826C89.8328 46.1609 89.495 46.1134 89.1026 46.0583C87.1774 45.7877 83.936 45.3322 83.1665 46.8241C83.043 47.0806 83.043 47.4014 83.2283 47.5938C83.7223 48.2352 84.2782 48.6201 84.9576 48.8125C84.9576 49.3011 84.4836 49.6975 84.0691 50.0441C83.8851 50.198 83.7128 50.3422 83.5988 50.4802C83.3518 50.8009 83.3518 51.1217 83.5988 51.4424C84.4532 52.5269 87.0585 52.2854 88.8916 52.1155C89.4438 52.0643 89.9259 52.0197 90.269 52.0197C93.362 52.0631 96.5398 52.459 99.6494 53.0683C99.5983 53.8325 99.5301 54.5921 99.445 55.3466C92.7344 53.5636 79.9511 54.1496 78.2256 54.3288C77.8523 54.3676 77.4664 54.4012 77.0741 54.4353C75.5192 54.5705 73.8626 54.7146 72.4817 55.2268C71.699 55.4835 71.3834 56.9103 71.1501 57.9652L71.1501 57.9653C71.0336 58.4919 70.9376 58.9259 70.8142 59.0754C68.7761 61.5129 65.3174 63.1165 62.4764 64.0786C62.0391 64.23 61.6293 64.3528 61.2389 64.4698C59.9753 64.8485 58.915 65.1662 57.7825 66.1953C57.3502 66.516 57.5355 67.0933 57.9061 67.3499C58.5854 67.8631 59.6971 67.6706 60.6853 67.3499C61.0559 67.4782 61.3029 67.7348 61.3029 68.3762C61.3647 69.2101 62.2911 69.2742 62.9087 69.2101C64.0049 69.0678 65.1391 68.6097 66.2692 68.1533C67.1765 67.7869 68.0812 67.4216 68.9613 67.2216C71.617 66.5802 74.2727 66.1312 76.9284 65.6822L76.9286 65.6822C80.5888 65.0624 84.3003 64.7354 87.997 64.4097L87.9971 64.4097L87.9973 64.4097C90.0392 64.2298 92.0765 64.0503 94.0983 63.822C95.2828 63.6853 96.6231 63.5082 97.92 63.1785C97.7558 63.7659 97.5811 64.3488 97.3961 64.9272C93.0098 64.7964 88.6081 65.03 84.2782 65.618C76.0639 66.7726 67.5408 68.6969 60.0059 72.4172C55.2436 74.7481 50.918 77.9355 46.6419 81.0863C46.0934 81.4906 45.5456 81.8942 44.9979 82.2953C44.7606 82.5212 44.5296 82.7472 44.3029 82.9689C43.8217 83.4396 43.3599 83.8913 42.898 84.2837C38.3326 88.2547 33.4113 91.7328 28.2741 94.8445C27.2712 94.3665 26.2867 93.856 25.322 93.3144C27.7335 92.0528 29.9777 90.3235 31.9045 88.8379C32.1145 88.6844 32.3274 88.534 32.5403 88.3836L32.5405 88.3834C34.0174 87.3402 35.4871 86.3019 35.919 84.2837C36.3513 82.2953 33.3868 82.167 32.275 82.2311C29.0786 82.5223 25.6785 84.0298 22.6757 85.3611L22.6746 85.3616C22.3706 85.4964 22.0708 85.6293 21.7756 85.759C21.4554 85.904 21.133 86.0444 20.8113 86.1846L20.8111 86.1846C19.6524 86.6893 18.5031 87.1899 17.4987 87.8837C17.2303 87.6567 16.9642 87.427 16.7007 87.1945C16.9724 87.0819 17.2435 86.967 17.514 86.8495L17.5646 86.8278C22.4928 84.7165 28.0266 82.3459 31.8427 78.3826C32.7074 77.4204 37.0307 72.0324 33.7573 71.2626C32.1566 70.8873 30.5559 71.6776 29.0996 72.3966L29.0995 72.3967C28.8139 72.5376 28.5339 72.6759 28.2606 72.8021C25.3578 74.1491 22.455 75.5602 19.5522 77.0355C16.7003 78.4432 13.8226 79.824 10.925 81.178C10.6886 80.8869 10.4555 80.5931 10.2256 80.2966C11.5662 79.5786 12.8809 78.8172 14.1172 77.9977C14.4594 77.7715 14.9655 77.4928 15.5518 77.1699C18.4571 75.5699 23.3352 72.8834 20.0463 70.1081C18.837 69.1376 17.0408 69.0816 15.5717 69.0359L15.5716 69.0359C15.39 69.0302 15.2134 69.0247 15.0436 69.0176C12.2026 68.9535 9.05273 69.4025 6.2117 69.9156C5.93345 69.9734 5.55178 70.0052 5.12175 70.041L5.12171 70.041C4.80753 70.0671 4.46753 70.0954 4.1232 70.1376C3.77595 69.3639 3.44779 68.5798 3.13932 67.7859C4.63811 67.8298 6.13419 67.8936 7.62938 67.9574H7.62943H7.62946C11.3937 68.118 15.1523 68.2783 18.9346 68.1196C19.3024 68.1115 19.6713 68.1044 20.0409 68.0973H20.0409C22.5878 68.0483 25.1698 67.9986 27.7047 67.6065L27.7226 67.6036C29.3256 67.3475 31.3523 67.0237 32.3368 65.5539C34.2258 62.6687 26.7683 62.2752 24.937 62.1786C24.7326 62.1678 24.5983 62.1607 24.5549 62.1543C20.5361 61.6761 16.489 61.8167 12.4519 61.9569C10.5329 62.0236 8.61613 62.0902 6.70579 62.0902C4.91553 62.0902 3.1097 62.0632 1.29733 62.0281C1.19312 61.6177 1.09399 61.2052 1 60.7908C1.08015 60.5437 1.16184 60.2973 1.24506 60.0517C8.70243 59.9135 16.1509 59.519 23.5667 58.8189C23.9285 58.7872 24.2904 58.7558 24.6522 58.7244C29.416 58.3114 34.1722 57.899 38.8217 56.7663C38.9452 56.7342 39.0533 56.7021 39.1614 56.6701L39.1615 56.67C39.2695 56.638 39.3776 56.6059 39.5011 56.5738C47.2831 53.6232 55.3121 51.0575 63.2793 48.8125C73.3464 45.9902 84.1547 44.3866 94.5923 45.2205C96.2677 45.3448 97.9412 45.5148 99.6083 45.7342C99.6515 46.2871 99.6858 46.8427 99.7109 47.4005ZM48.5183 54.7137C48.5801 54.5213 48.7036 54.393 48.8271 54.3288C49.5081 53.2679 50.9554 52.963 52.3844 52.6619C52.7697 52.5808 53.1537 52.4999 53.521 52.4045C57.5972 51.1858 61.797 50.1595 65.9968 49.1974C66.7154 49.0241 67.4552 48.826 68.2087 48.6242C71.0819 47.8547 74.1524 47.0323 76.9903 47.3372C77.3744 47.3758 77.8181 47.386 78.2881 47.3968C80.1609 47.4399 82.4505 47.4926 83.043 49.3898C84.1194 52.7435 70.2354 54.2463 65.2162 54.7896L65.2161 54.7896C64.4754 54.8697 63.9278 54.929 63.6499 54.9703C62.0042 55.2427 60.3309 55.6682 58.6513 56.0953C55.9815 56.7743 53.2958 57.4572 50.68 57.536C48.7654 57.6001 47.9007 56.638 48.5183 54.7137ZM32.4603 60.23C32.5838 60.1017 32.7691 60.0376 32.9544 60.0376C33.2476 59.733 33.6569 59.6293 34.1515 59.5039C34.282 59.4709 34.4184 59.4363 34.5602 59.3961C35.1488 59.2215 35.8009 59.1657 36.4647 59.109C37.2637 59.0406 38.0796 58.9709 38.8217 58.6906C40.057 58.2416 41.2922 57.8567 42.5274 57.536C42.6032 57.5153 42.6833 57.493 42.7673 57.4696C43.9831 57.1311 45.9921 56.5718 46.9743 57.4718C47.9625 58.3057 48.8889 59.9734 48.333 61.3846C46.5494 65.856 41.2745 65.0476 37.51 64.4707L37.463 64.4635C37.3659 64.4405 37.2461 64.414 37.1082 64.3835C35.3153 63.9866 30.4531 62.9102 32.4603 60.23ZM22.8256 71.5834C22.8256 70.7495 23.4431 69.9798 23.999 69.4025C24.4931 68.8893 25.4813 68.7611 26.1606 68.8252C26.3459 68.8252 26.4695 68.9535 26.593 69.0818C26.7474 69.0497 26.9172 69.0337 27.087 69.0176L27.0871 69.0176C27.2569 69.0016 27.4268 68.9856 27.5812 68.9535C28.3841 68.8893 29.3105 69.0818 29.6193 69.9156C30.1752 71.3268 28.1988 72.2889 27.2723 72.6738C26.4694 73.0587 25.5431 73.1869 24.6784 73.1228C23.8755 73.0587 22.8256 72.5455 22.8256 71.5834ZM34.8073 70.3646C33.9426 70.7495 32.1515 71.0702 31.4722 70.1722C31.0398 69.5308 31.3486 68.6969 31.8427 68.2479C32.2133 67.8631 32.7691 67.7348 33.2632 67.6706C34.0044 67.3499 34.869 67.2858 35.4867 67.6706C35.9807 67.9913 36.2895 68.5686 36.0425 69.2101C35.919 69.7874 35.3631 70.1081 34.8073 70.3646ZM42.0951 81.0124C39.9334 82.1029 36.6601 82.616 35.3631 79.9861C33.8808 77.0355 36.5366 73.3794 39.3158 72.9304H39.4394C41.9098 71.7116 45.5538 70.4288 46.789 72.8021C48.7036 76.5224 44.9361 79.5371 42.0951 81.0124ZM46.6655 69.7232C44.7509 71.7758 39.8717 72.0965 37.8336 70.2364C36.7219 69.2742 37.1542 67.0292 38.3277 66.3878C38.5129 66.1312 38.76 65.9388 39.007 65.8105C39.2897 65.7371 39.5926 65.7477 39.8926 65.7581H39.8926C40.117 65.766 40.3397 65.7738 40.5511 65.7463C41.601 65.618 42.5892 65.4898 43.5774 65.3615L43.6576 65.3531C44.8787 65.2256 46.3713 65.0698 47.036 66.3878C47.5301 67.4782 47.4066 68.9535 46.6655 69.7232ZM49.0742 62.2826C49.4047 61.8601 49.5468 61.2312 49.6901 60.597C49.8949 59.6906 50.1021 58.7737 50.8652 58.434H50.927C51.6263 57.7481 52.7654 57.6713 53.8679 57.597C54.5182 57.5531 55.1556 57.5101 55.6826 57.3436C57.582 56.7338 59.5586 56.4249 61.5477 56.1141C63.1159 55.869 64.6919 55.6227 66.2439 55.2268C67.2938 54.9703 70.0731 55.4193 69.9495 57.087C69.7643 59.3961 67.5408 60.6149 65.688 61.4487C64.3209 62.064 62.9621 62.7055 61.6025 63.3474C59.2768 64.4453 56.9485 65.5446 54.5709 66.516C54.2114 66.6613 53.8567 66.8232 53.5069 66.983C51.6932 67.8113 50.0098 68.5801 48.4566 66.6443C47.0978 64.9766 48.0242 63.6937 49.0742 62.2826ZM59.6971 70.0439C59.0452 71.3981 57.5381 72.2447 56.201 72.996C55.8913 73.17 55.5908 73.3388 55.3121 73.5077C55.0979 73.6391 54.8637 73.7913 54.6147 73.9532C53.284 74.8179 51.5288 75.9587 50.1241 75.6885C47.5301 75.1754 47.1596 72.0324 48.8271 70.3646C49.4353 68.8908 51.4992 68.756 53.1415 68.6487L53.1416 68.6487C53.5006 68.6253 53.8395 68.6031 54.1386 68.5686C54.3814 68.5395 54.6526 68.4972 54.9415 68.4521C56.5628 68.1991 58.7442 67.8587 59.6354 69.2742C59.8207 69.4666 59.8206 69.7874 59.6971 70.0439Z" fill="url(#paint1_linear)" fill-opacity="0.12"/>
<circle cx="24" cy="27" r="2.85" stroke="white" stroke-width="0.3"/>
<circle cx="32.5" cy="16.5" r="3.35" stroke="white" stroke-width="0.3"/>
<circle cx="82" cy="18" r="1.85" stroke="white" stroke-width="0.3"/>
<circle cx="82" cy="25" r="0.85" stroke="white" stroke-width="0.3"/>
<circle cx="15" cy="22" r="0.85" stroke="white" stroke-width="0.3"/>
<path d="M56.9509 39.7006C55.6484 38.7547 54.3901 37.6769 53.8603 36.1371C53.3084 34.5314 53.485 32.8376 54.0369 31.2319C54.5667 29.7581 55.7809 28.4823 57.282 27.9544C58.143 27.6684 58.7832 27.5584 59.6 27.5584C60.1077 27.5584 60.0415 27.5584 60.4389 27.6464C60.6155 27.6904 60.7921 27.7344 60.9687 27.7784C61.0349 27.8004 61.653 28.0424 61.3661 27.9104C63.7944 29.0102 64.6333 31.4738 64.4125 34.1134C64.3684 34.6853 64.4787 33.7175 64.3904 34.2894C64.3684 34.4654 64.3242 34.6193 64.2801 34.7953C64.2359 34.9493 63.9489 35.7852 64.0814 35.4772C63.7061 36.3131 63.5074 36.577 62.9997 37.061C62.6906 37.3689 61.9842 37.8308 61.653 37.9628C60.6596 38.3808 59.3351 38.2928 58.5404 39.1066C57.5028 40.1405 57.9664 41.8342 59.3572 42.2082C60.3947 42.4941 61.7193 42.0762 62.6906 41.7023C64.4567 41.0204 65.8695 39.8985 66.9292 38.3148C68.8056 35.4772 68.6069 31.7598 67.172 28.8122C65.6708 25.7327 62.4257 23.797 59.004 24.017C54.6109 24.2809 51.1891 27.3385 50.2619 31.5838C49.401 35.6092 51.5644 42.0982 56.7522 41.1083C57.5028 40.9984 57.4366 40.0745 56.9509 39.7006Z" fill="#F37422"/>
<path d="M38.606 44.2758C36.1997 43.352 33.9038 42.6701 33.2636 40.0305C32.6234 37.3469 34.7869 35.4772 37.0607 34.8173C38.1203 34.5093 39.2903 34.5093 40.0851 34.8833C41.1226 35.3672 41.807 36.489 41.8953 37.8088C42.0056 39.3486 41.4096 40.8003 40.5928 42.0761C40.1954 42.7141 39.6656 43.242 39.0916 43.7039C38.9813 43.7919 38.5839 44.0558 38.3631 44.2538C38.1865 44.4078 38.1645 44.4078 38.319 44.2978C38.0982 44.4738 37.9216 44.6278 37.7229 44.7817C38.915 45.2657 40.1071 45.7716 41.2771 46.2555V46.2335C41.1888 46.5855 41.0785 46.9374 40.9902 47.2893C41.0122 47.2454 41.0343 47.2014 41.0785 47.1574C42.0719 45.4856 39.9968 43.132 38.2748 44.3638C37.9437 44.6058 37.5684 44.8257 37.3918 45.2217C36.7075 46.8274 37.8112 48.8071 39.7539 48.2792C40.8577 47.9932 41.3875 47.2893 42.0939 46.7394C42.9549 46.0575 43.6393 45.1337 44.2574 44.2318C45.5819 42.2521 46.3325 39.6345 46.0676 37.2589C45.7806 34.7733 44.4781 32.4856 42.2043 31.2978C40.2837 30.286 38.0099 30.264 35.9348 30.8139C31.4755 31.9797 28.4511 36.0271 29.1134 40.6244C29.7094 44.7157 34.3674 48.6091 38.606 47.1134C40.0188 46.5635 39.9526 44.8037 38.606 44.2758Z" fill="#F37422"/>
<path d="M56.9289 40.5145C57.5249 39.3487 56.2004 37.8309 55.7147 36.7751C55.1849 35.6532 54.7213 34.4654 54.633 33.2556C54.5668 32.1778 54.7655 31.1219 55.4498 30.3301C56.4432 29.1422 58.1651 28.5483 59.6663 28.3944C63.0439 28.0864 64.545 30.924 63.9711 33.9595C63.6841 35.4773 62.9335 36.3351 61.7193 36.973C60.2182 37.7429 57.6132 37.347 56.5757 39.0627C56.1562 39.7446 56.3108 40.6685 56.8627 41.2184C58.5404 42.9341 62.2712 41.4164 64.0594 40.4485C66.2007 39.2607 67.5474 37.105 67.9447 34.7514C68.3642 32.2218 67.9889 29.6702 66.3773 27.6025C64.9203 25.7328 62.6024 24.8529 60.2844 24.8529C55.8251 24.8309 51.5645 27.8224 51.4099 32.4417C51.3437 34.3554 52.0281 36.2691 52.9111 37.9409C53.3305 38.7108 53.9707 39.5466 54.633 40.1406C55.0745 40.5585 56.4212 41.5043 56.9289 40.5145Z" fill="#F37422"/>
<path d="M73.9274 50.9189C73.3092 50.9409 73.1989 50.9849 73.5741 51.0069C73.6404 51.0069 73.7066 50.9849 73.7728 50.9849C73.9053 50.9409 74.0157 50.8749 74.1481 50.8309C74.5013 50.7209 74.9208 50.6989 75.2961 50.6329C76.0025 50.5009 76.7089 50.4129 77.4153 50.369C78.1438 50.325 78.8944 50.281 79.645 50.347C80.1307 50.391 80.6384 50.5009 80.8592 50.9849C80.9475 51.1828 80.9695 51.3808 80.9916 51.5788C80.9916 51.7107 80.9695 51.8867 80.9916 52.0187C80.9916 52.0847 80.9916 52.1287 80.9695 52.1947C81.0578 52.1287 81.1461 52.0627 81.2124 51.9967C81.2124 51.9747 80.3735 51.9307 80.3293 51.9307C79.954 51.8867 79.5788 51.8207 79.2035 51.7327C78.497 51.5788 77.7906 51.4028 77.0842 51.2268C76.7531 51.1388 76.4219 51.0508 76.0908 50.9629C75.9363 50.9189 75.6051 50.8309 75.4947 50.6769C75.3844 51.1388 75.2519 51.6008 75.1415 52.0627C76.7531 51.2708 78.7178 51.3148 80.2852 52.1727C80.3735 51.5568 80.4397 50.9409 80.528 50.325C79.645 50.5449 78.762 50.5009 77.901 50.215C76.9959 49.929 76.0466 49.6651 75.1636 50.215C74.3689 50.7209 74.6117 52.1507 75.6713 52.0847C76.5323 52.0187 77.3712 51.9527 78.0776 51.4028C78.4087 51.1388 78.2763 50.5889 77.9452 50.4129C77.2608 50.017 76.444 50.039 75.6713 50.083C75.8479 50.6989 76.0025 51.3368 76.1791 51.9527C76.4219 51.7987 76.731 51.9527 76.9738 52.0407C77.3712 52.1727 77.7685 52.3047 78.188 52.3706C79.1593 52.5246 80.1086 52.5026 81.0578 52.2607C81.8967 52.0627 82.0512 50.8309 81.3007 50.4129C79.071 49.2031 76.3998 49.1591 74.126 50.303C73.6845 50.5229 73.4638 51.2708 73.7728 51.6888C74.6779 52.9206 76.3998 53.1405 77.7906 53.4705C78.5853 53.6684 79.3801 53.8004 80.1969 53.9104C80.9475 53.9984 81.8305 54.1084 82.4265 53.5365C83.442 52.5466 83.0226 50.4789 82.2279 49.5111C81.2565 48.3233 79.4684 48.3673 78.0776 48.4333C77.1725 48.4772 76.2674 48.6092 75.3844 48.8292C74.6559 49.0052 73.5962 49.1811 73.1106 49.797C72.8898 50.083 72.8236 50.4349 73.0443 50.7429C73.1989 50.9849 73.6404 51.1388 73.9274 50.9189Z" fill="#E34F25"/>
<path d="M39.9748 67.4823C39.3126 68.1422 38.8931 69.044 38.5178 69.8799C38.1205 70.7598 37.8335 71.6836 37.6127 72.6075C37.414 73.4874 37.414 74.4112 38.0101 75.1371C38.562 75.819 39.4229 76.1269 40.306 75.973C42.2928 75.621 42.6019 73.1794 42.8226 71.5517C42.9551 70.5838 42.9992 69.528 42.6902 68.5821C42.3811 67.6363 41.3435 66.8224 40.3501 67.3943C39.8424 67.7022 39.732 68.4941 39.5995 69.022C39.445 69.55 39.3346 70.0999 39.2243 70.6498C39.0035 71.7936 38.8269 72.9594 38.6724 74.1253C38.6061 74.6092 38.7386 75.0711 39.2243 75.2691C39.6437 75.4451 40.2177 75.3131 40.4384 74.8731C41.2552 73.2234 41.7188 71.4857 41.9175 69.6599C42.0279 68.5821 40.1956 68.3402 40.019 69.396C39.8203 70.6498 39.6216 71.9256 39.4229 73.1794C39.3346 73.8173 39.2022 74.6092 39.9528 74.9171C40.5709 75.1591 41.3215 74.7412 41.2994 74.0373C41.2552 73.1574 40.2177 72.9374 39.7099 73.6193C39.7099 73.6413 39.6878 73.6413 39.6878 73.6633C39.9307 73.5094 40.1956 73.3774 40.4384 73.2234C40.4163 73.2234 40.3943 73.2234 40.3722 73.2234C40.593 73.3114 40.7916 73.3994 41.0124 73.4874C40.9903 73.4654 40.9903 73.4654 40.9682 73.4434C41.0565 73.6633 41.1449 73.8613 41.2332 74.0813C41.2332 74.3012 41.2773 73.8393 41.2773 73.7733C41.2994 73.5973 41.3435 73.3994 41.3656 73.2234C41.4318 72.8495 41.476 72.4755 41.5422 72.1236C41.6526 71.3757 41.763 70.6498 41.8954 69.9019C41.2552 69.8139 40.6371 69.7259 39.9969 69.6379C39.8424 71.1117 39.445 72.5415 38.7827 73.8613C39.3788 74.1033 39.9528 74.3452 40.5488 74.6092C40.8358 72.5415 41.1449 70.4518 41.785 68.4501C41.5643 68.6701 41.3435 68.8901 41.1007 69.132C40.9462 69.198 40.8799 68.9781 40.8579 69.088C40.8358 69.176 40.902 69.286 40.9241 69.374C40.9903 69.6599 41.0124 69.9679 41.0124 70.2759C41.0124 70.9138 40.9462 71.5517 40.8358 72.1676C40.7254 72.7835 40.6813 74.6972 39.5775 74.3232C38.5178 73.9713 39.2684 72.1676 39.4671 71.4637C39.6437 70.8918 39.8203 70.2978 40.0411 69.7259C40.2618 69.11 40.5709 68.5161 40.7254 67.8782C40.8358 67.4823 40.306 67.1743 39.9748 67.4823Z" fill="#E34F25"/>
<path d="M34.9194 64.6447C32.9767 66.1625 30.0848 67.9002 30.0627 70.6938C30.0627 72.0576 30.9458 73.1574 32.3365 73.2674C33.6611 73.3994 34.7649 72.5855 35.4934 71.5297C36.2881 70.3638 36.7296 68.9121 37.2594 67.6143C37.4581 67.1083 37.6789 66.6024 37.6347 66.0525C37.5685 65.2606 36.9504 64.6667 36.1336 64.7107C35.4492 64.7547 34.809 65.2826 34.3454 65.7665C33.8377 66.2725 33.3962 66.8664 32.9988 67.4603C32.6015 68.0322 32.2482 68.6481 31.895 69.242C31.5418 69.8799 30.9458 70.6718 30.9016 71.4197C30.8354 72.3435 31.6522 73.0254 32.5573 72.8715C33.3962 72.7175 33.8156 71.9476 34.2351 71.2877C34.6766 70.6058 35.0739 69.8799 35.4492 69.154C35.6258 68.7801 35.8024 68.4061 35.957 68.0322C36.1336 67.6143 36.3543 67.1963 36.3543 66.7344C36.1998 66.9984 36.0674 67.2403 35.9128 67.5043C35.957 67.4823 36.0232 67.4603 36.0674 67.4163C36.6413 67.1303 36.5089 66.4044 36.0674 66.0745C36.0232 66.0305 35.957 66.0085 35.9128 65.9645C35.6038 65.7445 35.096 65.8325 34.8311 66.0965C34.4558 66.4924 34.3013 67.0424 34.0805 67.5263C33.8598 68.0102 33.6169 68.4721 33.3741 68.9341C33.1534 69.352 32.9105 69.7479 32.6677 70.1439C32.5352 70.3638 32.3807 70.5838 32.2262 70.8038C32.2041 70.8478 32.1158 70.9358 32.0937 70.9797C32.0275 71.0457 32.0275 71.0457 32.1158 71.0017C32.4249 71.6836 32.6456 71.8376 32.8001 71.5077C33.0871 71.1557 33.2858 70.6058 33.5066 70.1879C33.7715 69.7259 34.0364 69.286 34.3234 68.8241C34.809 68.0762 35.2947 67.2843 36.0232 66.7344C36.0453 66.7124 36.3102 66.5584 36.3102 66.5584C36.3102 66.5364 35.5155 66.2945 35.7141 66.1405C35.6921 66.1625 35.67 66.4044 35.6479 66.4704C35.4934 66.9764 35.2506 67.4603 35.0519 67.9442C34.6987 68.8241 34.4117 69.7919 33.9039 70.6058C33.5728 71.1337 32.9547 71.6396 32.2924 71.5077C31.608 71.3757 31.6522 70.5398 31.7847 70.0119C32.0496 69.066 32.7781 68.2962 33.4845 67.6583C33.8819 67.3063 34.2792 66.9544 34.6766 66.6244C35.1402 66.2285 35.4713 65.7885 35.8024 65.3046C36.2219 64.7327 35.383 64.2708 34.9194 64.6447Z" fill="#E34F25"/>
<path d="M71.3224 61.2353C71.6315 61.8292 72.1392 62.2911 72.5807 62.7751C73.0002 63.237 73.3975 63.7209 73.7728 64.2268C74.3247 64.9747 75.2298 66.1186 74.8325 67.0644C74.7442 67.2404 74.6779 67.3284 74.5234 67.4164C74.5013 67.4384 74.4793 67.4384 74.4572 67.4384C74.5676 67.3944 74.5896 67.6363 74.4572 67.3724C74.1702 66.7565 73.7508 66.1625 73.4417 65.5466C72.7794 64.2488 72.2496 62.9071 71.786 61.5213C71.4549 61.9612 71.1237 62.3791 70.7926 62.8191C71.4107 62.8191 72.0288 64.0949 72.36 64.5788C72.6911 65.0627 73.0002 65.5246 73.3313 66.0086C73.4859 66.2505 73.6625 66.4705 73.7949 66.7125C73.817 66.7785 73.8391 66.8224 73.8832 66.8884C73.9715 67.0424 73.8832 67.1084 73.9494 66.9324C74.3468 66.7785 74.7221 66.6245 75.1195 66.4485C74.9649 66.4045 75.0091 66.3605 74.8987 66.2505C74.6779 65.9866 74.4793 65.8546 74.1481 65.7226C73.9053 65.6346 73.53 65.7226 73.3534 65.9206C72.4483 66.9544 73.5079 68.1202 74.5676 68.4282C75.1636 68.6042 75.6272 68.2082 75.848 67.7023C76.157 66.9764 75.8921 66.1625 75.4947 65.5246C75.0753 64.7988 74.5455 64.1389 74.0819 63.435C73.2872 62.2691 72.4262 60.7294 70.7926 60.7514C70.1524 60.7514 69.6005 61.4113 69.7992 62.0492C70.3952 63.8749 71.1458 65.6566 72.073 67.3284C72.5145 68.1202 72.956 69.1101 73.9053 69.3741C74.8545 69.638 75.8259 69.1321 76.3778 68.3622C77.4595 66.8664 76.8193 64.9747 75.8038 63.6329C75.274 62.929 74.7 62.2032 74.0377 61.6092C73.3975 61.0153 72.669 60.4434 71.7639 60.3774C71.3445 60.3994 71.1458 60.9054 71.3224 61.2353Z" fill="#E34F25"/>
<path d="M73.552 57.7597C74.1481 58.5296 74.8987 59.1015 75.6934 59.6514C76.5102 60.2013 77.4153 60.7512 78.2983 61.1472C79.2034 61.5431 80.2631 61.3452 80.7708 60.4433C81.1903 59.6734 81.0578 58.7276 80.6384 57.9797C80.2189 57.2318 79.5346 56.6819 78.8502 56.176C78.0776 55.604 77.2828 55.0101 76.4881 54.4602C75.7155 53.9103 74.722 53.5804 73.8611 54.1303C73.0664 54.6582 72.8898 55.736 73.265 56.5719C73.7066 57.5617 74.7662 58.0237 75.6492 58.5296C76.6868 59.1015 77.7244 59.6954 78.7619 60.2673C79.5787 60.7293 80.7708 59.7394 80.1527 58.8815C78.784 57.0118 76.9959 55.5161 74.8766 54.6142C74.3688 54.3942 73.7949 54.4602 73.4858 54.9661C73.2209 55.4281 73.3754 56.088 73.839 56.3519C74.2805 56.5939 74.7441 56.7919 75.2519 56.6379C75.5168 56.5499 75.6713 56.3299 75.6934 56.066C75.7375 55.538 75.4064 55.1421 75.0753 54.7682C74.6558 55.2961 74.2585 55.824 73.839 56.3519C75.6272 57.1218 77.2387 58.3096 78.4087 59.8934C78.8723 59.4315 79.3359 58.9695 79.7995 58.5076C78.9606 58.0237 78.1217 57.5617 77.2608 57.0778C76.5985 56.7039 75.8038 56.3959 75.2298 55.89C75.0532 55.736 75.1415 55.802 75.0753 55.648C75.0973 55.67 75.0753 55.692 75.0753 55.714C75.0973 55.582 75.1194 55.56 75.0973 55.648C75.0973 55.648 74.8987 55.846 74.8766 55.824C74.8987 55.868 75.2519 56.022 75.3181 56.066C76.0687 56.5499 76.7751 57.0998 77.5036 57.6277C78.0113 57.9797 78.6074 58.3756 78.8944 58.9255C78.9606 59.0575 79.0268 59.1675 79.0268 59.2995C79.0048 59.1895 79.071 59.4534 79.0268 59.3655C78.9827 59.4754 78.9827 59.5194 79.0047 59.4534C79.0268 59.4315 79.0489 59.4095 79.071 59.4095C79.1593 59.3875 79.1593 59.3655 79.071 59.3435C79.0048 59.3215 78.9606 59.2995 78.8944 59.2775C77.2608 58.5736 75.8479 57.4298 74.1481 56.8798C73.7507 56.7699 73.243 57.3418 73.552 57.7597Z" fill="#E34F25"/>
<path d="M32.8002 59.9375C31.8068 59.5415 30.6147 60.4434 29.82 60.9493C28.9369 61.5432 28.076 62.2031 27.3033 62.929C26.5969 63.6109 25.6918 64.4028 25.449 65.3926C25.184 66.4705 25.8022 67.6583 26.9722 67.7683C28.1201 67.8782 29.0694 66.9324 29.9083 66.2945C30.8134 65.6126 31.6964 64.9307 32.5794 64.2048C33.3079 63.6109 34.3455 62.797 34.3896 61.7632C34.4117 61.1473 34.0144 60.5974 33.4183 60.4214C32.8223 60.2234 32.2483 60.4434 31.7406 60.7513C29.7758 61.9831 27.9214 63.5449 26.4424 65.3486C26.1333 65.7226 26.045 66.2285 26.3541 66.6464C26.641 67.0204 27.215 67.1744 27.6345 66.9104C27.9656 66.7124 28.2967 66.4925 28.5837 66.2505C28.8707 66.0085 28.9811 65.7006 29.1135 65.3706C29.2018 65.1067 29.0032 64.7107 28.7162 64.6667C28.363 64.6227 28.0318 64.5788 27.6786 64.7107C27.3033 64.8427 26.9722 65.0407 26.641 65.2167C27.0384 65.7446 27.4358 66.2505 27.8331 66.7784C28.6279 65.8766 29.4667 65.0187 30.3719 64.2268C30.7913 63.8529 31.2328 63.5229 31.6964 63.193C31.9172 63.039 32.16 62.863 32.3807 62.709C32.5132 62.621 32.6677 62.5331 32.8002 62.4451C32.8443 62.4231 32.8885 62.3791 32.9326 62.3571C33.1092 62.2911 32.9989 62.2471 32.6457 62.2471C32.5574 62.0931 32.4691 61.9612 32.4028 61.8072C32.4911 61.4992 32.4911 61.4552 32.3807 61.6752C32.3587 61.7192 32.3145 61.7632 32.2924 61.8072C32.2262 61.9172 32.1379 62.0051 32.0496 62.0931C31.8289 62.3131 31.5639 62.5331 31.3211 62.731C30.7471 63.193 30.1732 63.6549 29.5992 64.1168C29.0694 64.5348 28.5175 64.9527 27.9656 65.3486C27.9214 65.3706 27.1709 65.8766 27.1709 65.8546C27.1709 65.8326 27.2592 65.9425 27.3254 65.8985C27.2592 65.9425 27.3916 65.7226 27.3916 65.7006C27.4579 65.5906 27.5241 65.4806 27.6124 65.3706C27.8331 65.1067 28.0539 64.8647 28.2967 64.6447C28.7824 64.1608 29.2681 63.7209 29.7979 63.281C30.3056 62.885 30.8575 62.5111 31.4094 62.1811C31.9613 61.8512 32.6236 61.5872 33.0872 61.1253C33.5287 60.7293 33.2859 60.1354 32.8002 59.9375Z" fill="#E34F25"/>
<path d="M55.3394 38.4687C55.4056 39.7885 55.8471 41.1083 56.1562 42.3841C56.3328 43.044 57.3924 43.088 57.547 42.3841C57.7457 41.4163 57.8781 40.4704 57.856 39.5026C57.3704 39.6345 56.8847 39.7665 56.4211 39.8985C56.5977 40.2505 56.6419 40.5804 56.5977 40.9543C56.5315 41.6142 57.5249 42.0102 57.9443 41.5043C58.3858 40.9983 58.6066 40.4704 58.6728 39.8105C58.143 39.8105 57.6132 39.8105 57.0834 39.8105C57.1496 40.5144 57.1275 41.2183 57.0172 41.9222C56.9509 42.2741 57.0613 42.6481 57.3924 42.8241C57.6794 43 58.143 42.978 58.3638 42.6921C58.9598 41.9662 59.4455 41.2183 59.8208 40.3604C59.313 40.2285 58.8053 40.0965 58.2975 39.9425C58.2313 40.6464 58.0547 41.3503 57.7677 42.0102C57.6132 42.3841 57.9002 42.8461 58.2534 42.978C58.6728 43.132 59.026 42.978 59.291 42.6481C59.9312 41.7682 60.5714 40.8884 61.2336 40.0085C60.7259 39.7885 60.2181 39.5906 59.7104 39.3706C59.5338 40.3164 59.1144 41.1303 58.4521 41.8342C58.8494 42.2301 59.2247 42.6041 59.6221 43C60.3285 42.1202 61.0791 41.3063 61.8738 40.5144C61.4323 40.1845 61.0129 39.8545 60.5714 39.5026C60.1519 40.3824 59.4455 41.1303 59.1364 42.0762C58.9598 42.6261 59.5779 42.934 60.0195 42.7581C60.9908 42.3401 61.5648 41.2403 62.0063 40.3604C62.4036 39.5466 61.4102 38.6667 60.7038 39.3486C59.9091 40.1405 59.1585 40.9543 58.4521 41.8342C58.1651 42.1862 58.1209 42.6701 58.4521 43C58.7611 43.308 59.313 43.33 59.6221 43C60.4831 42.1202 61.0791 41.0203 61.3219 39.8105C61.4985 38.8647 60.3727 38.4247 59.7987 39.1726C59.1585 40.0525 58.5183 40.9323 57.8781 41.8122C58.3858 42.0322 58.8936 42.2301 59.4013 42.4501C59.7325 41.6362 59.9091 40.8224 59.9753 39.9425C59.9974 39.5466 59.6442 39.1946 59.2689 39.1506C58.8274 39.1066 58.5404 39.3486 58.3638 39.7445C58.0989 40.4044 57.7015 41.0203 57.26 41.5702C57.7015 41.8342 58.1651 42.0982 58.6066 42.3621C58.7391 41.5263 58.7832 40.6904 58.6949 39.8325C58.5845 38.8207 57.2158 38.8207 57.1055 39.8325C57.0834 40.0525 56.9951 40.2505 56.8626 40.4264C57.3041 40.6024 57.7677 40.8004 58.2092 40.9763C58.2755 40.3384 58.1209 39.7005 57.7898 39.1286C57.4145 38.4687 56.3107 38.7547 56.3549 39.5246C56.377 40.3604 56.3549 41.2183 56.2224 42.0322C56.686 42.0322 57.1496 42.0322 57.6132 42.0322C57.2379 40.7784 56.9288 39.4146 56.3107 38.2488C56.0017 37.8088 55.3173 38.0068 55.3394 38.4687Z" fill="#E34F25"/>
<path d="M38.2748 45.7277C38.341 46.2116 38.8708 46.6955 39.202 47.0255C39.6214 47.4214 40.1071 47.7733 40.6148 48.0813C41.2992 48.4992 42.116 47.4874 41.4979 46.9595C41.0122 46.5415 40.5486 46.1016 40.1292 45.6397C39.7759 45.9916 39.4007 46.3656 39.0474 46.7175C39.6435 47.3554 40.4161 47.7733 41.2771 47.9053C42.0277 48.0373 42.5796 47.2234 42.0277 46.6075C41.9173 46.4755 41.8069 46.3436 41.7407 46.1676C41.6965 46.0796 41.6745 45.9696 41.6524 45.8816C41.6524 45.7277 41.6082 45.7497 41.542 45.9696C41.4316 46.0356 41.3213 46.1016 41.1888 46.1676C41.233 46.1676 41.255 46.1456 41.2992 46.1456C41.1667 46.1456 41.0122 46.1456 40.8797 46.1456C40.9239 46.1676 40.946 46.1676 40.9901 46.1896C40.8797 46.1236 40.7694 46.0576 40.6369 45.9916C40.9239 46.2116 41.1005 46.7395 41.2771 47.0474C41.6745 47.7953 42.69 47.3774 42.7562 46.6515C42.8445 45.8596 42.8666 45.0678 42.8445 44.2759C42.3147 44.3419 41.7848 44.4079 41.255 44.4958C41.4096 45.0898 41.542 45.7057 41.6965 46.2996C42.2264 46.1676 42.7341 46.0136 43.2639 45.8816C43.0873 45.3537 43.0873 44.8478 43.2418 44.3199C42.712 44.3199 42.2043 44.3199 41.6745 44.3199C41.7628 44.8478 41.8511 45.3757 41.8952 45.9036C41.9394 46.4535 41.9394 47.0035 42.2264 47.4874C42.4692 47.8833 43.0873 47.9053 43.3302 47.4874C43.6392 46.9375 43.573 46.3216 43.5288 45.7277C43.4626 45.1117 43.3743 44.4958 43.2639 43.9019C43.1094 43.0661 41.9173 43.176 41.6965 43.9019C41.4537 44.6938 41.4537 45.5297 41.7186 46.3216C42.0498 47.3114 43.5288 46.9155 43.286 45.9036C43.1315 45.3097 42.9769 44.6938 42.8445 44.0999C42.6237 43.22 41.233 43.396 41.255 44.3199C41.2771 45.1117 41.255 45.9036 41.1888 46.6955C41.6745 46.5635 42.1822 46.4315 42.6679 46.2996C42.403 45.8376 42.1822 45.2877 41.7848 44.9358C41.3654 44.5838 40.7694 44.5838 40.372 44.9798C39.6214 45.7497 40.372 47.1354 40.946 47.7513C41.1888 47.3114 41.4537 46.8935 41.6965 46.4535C41.0784 46.3656 40.5707 46.1236 40.1512 45.6837C39.4669 44.9798 38.4073 46.0356 39.0695 46.7615C39.5331 47.2894 40.0629 47.7293 40.6369 48.1473C40.8797 47.7293 41.1226 47.3114 41.3654 46.9155C40.8797 46.6735 40.4161 46.4315 39.9526 46.1456C39.5552 45.9036 39.1137 45.5077 38.6501 45.4417C38.4073 45.3317 38.2527 45.4857 38.2748 45.7277Z" fill="#E34F25"/>
<path d="M42.7343 47.2454C42.4032 46.6075 41.9396 46.0356 41.6305 45.3757C41.3215 44.7378 41.1669 44.0779 41.0345 43.374C40.8137 42.2962 39.0476 42.5382 39.1139 43.638C39.2463 45.4417 40.2618 47.5094 42.0058 48.2133C42.5577 48.4553 42.9771 47.7074 42.7343 47.2454Z" fill="#E34F25"/>
<path d="M54.3019 42.3622C57.1276 41.8343 60.1079 41.7243 62.8673 42.5821C65.8476 43.506 68.3863 45.4637 70.7925 47.4874C72.1392 48.6312 73.4858 49.797 74.4792 51.2708C75.4505 52.7446 76.0466 54.5483 75.7375 56.286C75.5168 57.4518 74.9207 58.4857 74.2805 59.4755C70.2406 65.6786 63.9932 70.4079 56.9289 72.6295C54.5006 73.3994 51.9398 73.8613 49.4011 73.5754C46.2884 73.2234 43.3965 71.7497 40.7695 70.0339C38.297 68.4282 35.957 66.5365 34.1909 64.1608C32.9988 62.5331 30.5705 59.2116 30.3939 57.1439C30.1952 54.6363 34.0584 52.6346 35.8024 51.3148C38.4074 49.3791 41.1006 47.5534 43.9705 46.0576C47.2156 44.3639 50.6815 43.0441 54.3019 42.3622Z" fill="url(#paint2_linear)"/>
<path d="M69.2694 40.7783C69.2915 40.5144 69.3136 40.2504 69.446 40.0084C69.6889 39.4805 70.3291 39.2166 70.903 39.2166C71.4991 39.2166 72.051 39.4365 72.5808 39.6565C73.3093 39.9424 74.0378 40.2504 74.6338 40.7563C75.2299 41.2622 75.6493 42.0101 75.561 42.78C75.5169 43.1539 75.3623 43.5059 75.1857 43.8358C74.7001 44.7597 74.104 45.6176 73.4197 46.4095C72.4042 47.5533 69.9979 48.9611 68.7617 47.3333C67.5917 45.8155 69.0928 42.4721 69.2694 40.7783Z" fill="#E34F25"/>
<path d="M67.9226 51.1168C68.1433 51.8647 68.6511 52.4586 69.2692 52.9206C69.8873 53.3605 70.9249 53.8004 71.3885 52.8986C71.7638 52.1947 71.3664 51.2488 70.8587 50.7209C70.3068 50.193 69.512 49.863 68.7394 49.973C68.1213 50.061 67.6797 50.6329 68.0109 51.2268C68.1213 51.4248 68.2537 51.5568 68.4524 51.6448C69.2913 51.9967 70.0198 51.1169 69.4237 50.391C69.4017 50.369 69.3796 50.347 69.3575 50.325C69.4237 50.457 69.49 50.5669 69.5783 50.6989C69.5562 50.6769 69.5562 50.6329 69.5341 50.6109C69.3354 50.9629 69.1367 51.2928 68.9601 51.6448C69.1588 51.6228 69.4237 51.7108 69.5783 51.8427C69.6886 51.9307 69.799 52.0407 69.8873 52.1507C69.9094 52.1947 69.9535 52.2607 69.9756 52.3047C70.0198 52.5026 70.0418 52.4586 70.0639 52.1947C70.1743 52.1287 70.2847 52.0627 70.3951 51.9967C70.4613 51.9747 70.1302 51.8427 70.086 51.8207C69.9094 51.7328 69.7328 51.6228 69.5562 51.4908C69.2471 51.2488 68.9822 50.9629 68.7173 50.6769C68.3862 50.303 67.7901 50.6769 67.9226 51.1168Z" fill="#F29A24"/>
<path d="M66.3331 51.5348C66.3331 51.5348 66.3331 51.5128 66.3111 51.5128C66.2228 51.3148 65.9137 51.2488 65.7371 51.3588C65.406 51.5568 65.2294 51.9307 65.3397 52.3046C65.4501 52.6786 65.9137 52.9645 66.289 52.8546C66.6422 52.7666 66.8188 52.2827 66.8409 51.9527C66.863 51.6228 66.7305 51.2708 66.4656 51.0508C66.2228 50.8309 65.8696 50.8309 65.6488 51.0948C65.4501 51.3588 65.5163 51.7107 65.8033 51.8867C65.8696 51.9307 65.8254 51.8867 65.8033 51.8867C65.8254 51.8867 65.8475 51.9527 65.8033 51.8867C65.8254 51.9087 65.8475 51.9307 65.8475 51.9747C65.8033 51.8867 65.8475 52.0187 65.8475 51.9747C65.8475 51.9307 65.8475 52.0187 65.8475 52.0187C65.8475 52.0847 65.8696 51.9527 65.8475 52.0187C65.8475 52.0187 65.8254 52.1067 65.8254 52.0627C65.8475 52.0187 65.7592 52.1287 65.8254 52.0627C65.9358 52.0187 66.0462 51.9747 66.1565 51.9307C65.9799 51.9527 66.1565 51.9307 66.1345 51.9527C66.1124 51.9747 66.1345 51.8867 66.1345 51.9527C66.1345 51.9967 66.1786 51.9967 66.1345 52.0407C66.289 51.9307 66.3773 51.7547 66.3331 51.5788C66.3552 51.5788 66.3331 51.5568 66.3331 51.5348Z" fill="#F29A24"/>
<path d="M67.7461 53.7563C67.1942 53.7563 67.0175 54.5482 67.4811 54.8122C67.7461 54.9661 68.0772 54.8342 68.2759 54.6362C68.4966 54.4382 68.5849 54.1523 68.5187 53.8663C68.4746 53.6023 68.1655 53.4704 67.9447 53.5363C67.7019 53.5803 67.437 53.6243 67.2604 53.8003C67.0396 54.0643 67.1279 54.4162 67.4591 54.5262C67.7019 54.6142 67.9668 54.5042 68.1876 54.4382C67.9889 54.3282 67.7902 54.2182 67.6136 54.1083C67.6357 54.2182 67.5694 54.0203 67.6136 54.1083C67.6136 54.1523 67.6136 54.1523 67.6136 54.1083C67.6136 54.0863 67.6136 54.0643 67.6357 54.0423C67.5915 54.1083 67.6577 54.0203 67.6357 54.0423C67.6136 54.0643 67.6136 54.0643 67.6577 54.0203C67.6136 54.0423 67.6136 54.0423 67.6577 54.0203C67.6577 53.9983 67.8785 54.0203 67.9447 54.0863C67.9889 54.1303 68.011 54.1962 68.011 54.2402C68.011 54.1743 67.9889 54.3062 67.9889 54.3282C67.9668 54.3722 67.7902 54.4602 67.8564 54.4382C68.033 54.4162 68.1434 54.1962 68.1213 54.0203C68.0993 53.8883 67.9447 53.7563 67.7461 53.7563Z" fill="#F29A24"/>
<path d="M37.127 53.5364C36.0232 53.3164 35.0519 54.0203 34.6104 55.0102C34.5 55.2522 34.5221 55.6041 34.8091 55.7361C36.1998 56.33 38.0321 55.5601 38.3633 53.9983C38.4516 53.5804 38.1867 53.2285 37.7672 53.2065C37.0387 53.1625 35.7804 53.4484 35.7804 54.3503C35.7804 54.6582 36.0232 54.8562 36.3102 54.8782C36.6193 54.9002 36.7959 54.7462 37.0387 54.6143C37.2595 54.4823 37.5023 54.4603 37.7451 54.4603C37.5465 54.1963 37.3478 53.9324 37.1491 53.6684C36.9946 54.5703 36.0895 55.1202 35.2064 54.7682C35.3389 54.9882 35.4493 55.2082 35.5817 55.4281C35.8466 54.7682 36.5751 54.3283 37.1932 54.0203C37.3699 53.9324 37.3257 53.5804 37.127 53.5364Z" fill="#F29A24"/>
<path d="M35.3609 54.7683C35.3167 54.9003 35.3388 55.0763 35.405 55.2083C35.4933 55.3622 35.6699 55.4722 35.8465 55.4722C36.1114 55.4722 36.3101 55.2962 36.3101 55.0323C36.3101 54.9223 36.266 54.8123 36.1777 54.7243C36.1114 54.6803 36.0452 54.6363 35.979 54.6143H35.9569C36.0011 54.6363 36.0231 54.6363 36.0673 54.6583H36.0452C36.0673 54.6803 36.1114 54.7023 36.1335 54.7243L36.1114 54.7023C36.1335 54.7243 36.1556 54.7683 36.1777 54.7903L36.1556 54.7683C36.1777 54.8123 36.1777 54.8343 36.1997 54.8783V54.8563C36.1997 54.9003 36.1997 54.9443 36.2218 54.9663C36.2218 54.9443 36.2218 54.9443 36.2218 54.9443C36.2218 54.9883 36.2218 55.0323 36.1997 55.0543V55.0323C36.2218 54.9223 36.2218 54.7903 36.1556 54.7023C36.1114 54.6143 36.0011 54.5264 35.8907 54.5044C35.7803 54.4824 35.6478 54.4824 35.5595 54.5484C35.4712 54.5704 35.405 54.6583 35.3609 54.7683Z" fill="#F29A24"/>
<path d="M36.1115 57.1659C36.0894 57.2099 36.0453 57.2759 36.0453 57.3418C36.0894 57.2759 36.1115 57.2319 36.1557 57.1659C36.0011 57.2978 36.0011 57.5398 36.0894 57.6938C36.1336 57.7818 36.1998 57.8478 36.2881 57.9138C36.5089 58.0457 36.7738 58.0017 36.9504 57.8258C37.0829 57.6938 37.1491 57.5178 37.1491 57.3418C37.1491 57.0999 36.9946 56.8359 36.7296 56.7919C36.553 56.7479 36.3764 56.7919 36.2661 56.9459C36.1557 57.0779 36.1336 57.2978 36.2219 57.4298C36.2219 57.4298 36.2219 57.4518 36.244 57.4518C36.2219 57.4078 36.2219 57.3858 36.1998 57.3418C36.2219 57.4078 36.244 57.4518 36.2661 57.5178C36.244 57.4738 36.244 57.4518 36.2219 57.4078C36.2219 57.4298 36.244 57.4518 36.244 57.4738C36.244 57.4298 36.244 57.3858 36.2219 57.3418C36.2219 57.3638 36.2219 57.3858 36.2219 57.4078C36.2219 57.3638 36.2219 57.3198 36.244 57.2978C36.244 57.3198 36.244 57.3418 36.2219 57.3638C36.244 57.3198 36.244 57.2978 36.2661 57.2539C36.2661 57.2539 36.2661 57.2759 36.244 57.2759C36.2661 57.2539 36.2881 57.2099 36.3102 57.1879L36.2881 57.2099C36.3102 57.1879 36.3544 57.1659 36.3764 57.1439L36.3544 57.1659C36.3985 57.1439 36.4206 57.1439 36.4647 57.1219H36.4427C36.4868 57.1219 36.5089 57.1219 36.553 57.0999C36.531 57.0999 36.531 57.0999 36.5089 57.0999C36.553 57.0999 36.5751 57.0999 36.6193 57.1219C36.5972 57.1219 36.5972 57.1219 36.5751 57.1219C36.6193 57.1439 36.6413 57.1439 36.6855 57.1659C36.6413 57.1439 36.6634 57.1219 36.7296 57.2099C36.6855 57.1659 36.7959 57.2978 36.7738 57.2539C36.6855 57.1219 36.5751 57.0559 36.4206 57.0559C36.5089 57.0999 36.5972 57.1219 36.7076 57.1659C36.7959 57.2759 36.7517 57.2319 36.7517 57.2099C36.7296 57.1659 36.7959 57.2978 36.7738 57.2539C36.7296 57.1219 36.6193 57.0119 36.4868 57.0119C36.3102 56.9679 36.1778 57.0339 36.1115 57.1659Z" fill="#F29A24"/>
<path d="M69.1809 37.3689C68.5186 35.6531 68.5186 33.7394 68.9381 31.9577C69.2471 30.6819 69.799 29.4281 70.7262 28.5042C71.6534 27.5804 73 26.9865 74.3025 27.1624C74.7219 29.0542 74.9206 31.0119 74.9206 32.9476C76.201 31.6278 76.9957 29.846 77.1061 27.9983C79.115 27.9543 80.9473 29.5381 81.4992 31.4738C82.0511 33.4095 81.4771 35.5212 80.3292 37.1709C77.4814 41.2403 71.2781 42.89 69.1809 37.3689Z" fill="#F37422"/>
<path d="M29.1354 51.1388C28.8705 51.0728 28.6056 51.0288 28.3849 50.8968C27.8771 50.5888 27.7005 49.9509 27.7667 49.357C27.833 48.7631 28.12 48.2572 28.4069 47.7293C28.7822 47.0474 29.1575 46.3435 29.7315 45.8156C30.3055 45.2877 31.1002 44.9357 31.8728 45.1117C32.2481 45.1997 32.5793 45.3976 32.8883 45.5956C33.7493 46.1675 34.5661 46.8494 35.2504 47.6193C36.288 48.7411 37.4139 51.2707 35.6699 52.3266C33.97 53.3604 30.7911 51.4907 29.1354 51.1388Z" fill="#E34F25"/>
<path d="M25.7137 50.8529C23.9255 51.3148 22.0049 51.1168 20.283 50.4789C19.0468 50.039 17.8547 49.3351 17.0379 48.3233C16.2211 47.3114 15.7796 45.9036 16.1107 44.6498C18.0534 44.4519 20.0181 44.4519 21.9608 44.6718C20.7908 43.242 19.0909 42.2742 17.2587 41.9662C17.4353 39.9645 19.2234 38.3368 21.2102 38.0068C23.197 37.6769 25.2501 38.4688 26.7733 39.8106C30.5041 43.0661 31.4534 49.3791 25.7137 50.8529Z" fill="#F37422"/>
<path d="M31.4977 39.2606C30.9017 43.8579 35.9129 47.0034 40.1073 46.0795C44.9419 45.0017 45.7587 37.8308 42.2707 34.9273C39.6216 32.7276 35.8908 32.8156 33.5066 35.3452C32.2704 36.643 31.6523 37.9848 31.4977 39.2606Z" fill="white"/>
<path d="M41.1671 41.6582C44.346 40.2504 43.8603 35.7631 40.4386 35.0812C37.4142 34.4653 34.9196 38.0728 37.0389 40.5144C38.1206 41.7242 39.5776 42.3621 41.1671 41.6582Z" fill="black"/>
<path d="M41.2993 38.6887C42.4252 38.8867 43.242 37.4129 42.4031 36.577C41.7409 35.9171 40.5488 35.9831 40.328 36.907C40.1514 37.6989 40.4163 38.5347 41.2993 38.6887Z" fill="white"/>
<path d="M52.293 32.7277C51.6086 37.9848 57.3704 41.6143 62.1829 40.5365C67.7239 39.3046 68.6732 31.0779 64.6554 27.7344C61.631 25.2048 57.3483 25.3148 54.6109 28.2183C53.1981 29.7361 52.4916 31.2759 52.293 32.7277Z" fill="white"/>
<path d="M63.3972 35.4772C67.0397 33.8715 66.4878 28.7243 62.5583 27.9324C59.0703 27.2285 56.2446 31.3638 58.673 34.1574C59.8871 35.5652 61.587 36.2911 63.3972 35.4772Z" fill="black"/>
<path d="M63.5516 32.0677C64.8541 32.2877 65.7813 30.5939 64.832 29.6481C64.0594 28.8782 62.7127 28.9662 62.4478 30.044C62.2271 30.9239 62.5361 31.8917 63.5516 32.0677Z" fill="white"/>
<path d="M57.8561 46.0796C57.7015 47.7073 57.5249 49.3351 56.8847 50.8529C56.2445 52.3486 55.0966 53.7124 53.5513 54.2403C52.1826 54.7023 50.6152 54.4603 49.379 53.6904C48.6725 53.2505 46.8182 51.6007 47.0831 50.6109C47.3701 49.5551 49.7101 49.995 50.6373 49.841C52.006 49.621 53.3526 49.1591 54.5888 48.5212C55.2511 48.1913 57.7678 46.8935 57.8561 46.0796Z" fill="#E34F25"/>
<defs>
<linearGradient id="paint0_linear" x1="50" y1="0" x2="50" y2="100" gradientUnits="userSpaceOnUse">
<stop stop-color="#ACDCFA"/>
<stop offset="1" stop-color="#0779E2"/>
</linearGradient>
<linearGradient id="paint1_linear" x1="-360.651" y1="114.779" x2="130.841" y2="114.779" gradientUnits="userSpaceOnUse">
<stop stop-color="white"/>
<stop offset="0.941" stop-color="white"/>
</linearGradient>
<linearGradient id="paint2_linear" x1="44.5005" y1="71.017" x2="65.5005" y2="37.517" gradientUnits="userSpaceOnUse">
<stop stop-color="#F37422"/>
<stop offset="1" stop-color="#F69E37"/>
</linearGradient>
</defs>
</svg>
